<?xml version="1.0" encoding="UTF-8"?>
<svg id="Layer_2" xmlns="http://www.w3.org/2000/svg" viewBox="0 0 517.25 508.63">
  <defs>
    <style>
      .cls-1 {
        stroke: #dbc34c;
        stroke-miterlimit: 10;
        stroke-width: .14px;
      }

      .cls-1, .cls-2 {
        fill: #fff;
      }
    </style>
  </defs>
  <g id="Layer_2-2" data-name="Layer_2">
    <path class="cls-2" d="M216.9,151.49c-3.6-2.48-6.63-5.64-8.64-9.34-.15-.87-.38-2.06-.62-3.53.77,1.46,1.79,3.26,3.14,5.25,2.63,3.89,4.93,6.22,6.12,7.62Z"/>
    <path class="cls-2" d="M125.55,315.08c-.25-.05-.55.27-.85.77.03-.07.03-.1.02-.1-.02,0-.15.23-.24.52t-.01.02c-.65,1.28-1.2,3.17-1.06,3.55.02.04.19.49.36.47.07-.01.3-.09.71-3.09.25.28.81.06,1.62-.23-.06-1.16-.23-1.84-.55-1.91Z"/>
    <path class="cls-2" d="M36.24,292.27s.08.26.23.78c-.86.79-1.37,1.27-1.47,1.18-.02-.01-.03-.05-.03-.09,0-.4.61-1.77,1.27-1.87Z"/>
    <path class="cls-2" d="M60.67,276.97c3.29-1.26,5.05-1.8,5.88-1.97-2.51,1.42-5.08,2.84-7.67,4.26-13.43,7.34-38.99,20.62-39.57,19.6-.51-.89,20.75-14.04,41.36-21.89Z"/>
    <path class="cls-2" d="M114.3,244.86c.08.13-1.62,1.43-4.71,3.57.12-.46.24-.92.35-1.37,3.59-1.99,4.31-2.27,4.36-2.2Z"/>
    <path class="cls-2" d="M208.41,143.87c-.16.04-.56-.82-1.01-2.03.22-.02.44-.03.66-.05.06.12.13.24.2.36.19,1.09.27,1.69.15,1.72Z"/>
    <path class="cls-2" d="M398.97,75.74c1.82-1.73,1.51-4.62-.62-5.89-12.1-7.24-26.48-14.82-43.66-21.43-19.7-7.54-37.65-11.71-52.12-14.07,4.92,1.54,11.87,4.02,19.78,7.84,9.07,4.39,16.6,9.19,22.53,13.58,7.02,5.14,14.08,9.27,22.61,16.06,6.98,5.52,12.68,10.62,16.98,14.71.58.53,1.43.49,2.91.26l11.63-11.03-.04-.04Z"/>
    <path class="cls-2" d="M506.14,198.3c-3.4-9.31-5.29-14.52-7.79-19.76-4.42-9.27-8.66-15.79-12.5-21.65-4.68-7.11-11.06-16.12-19.54-26.18-.54-.68-1.67-.75-2.32-.13l-30.77,30.04c-.18.17-.29.36-.36.63-.8,3.4-1.67,8.18-2.18,13.92-.36,4.39-.25,7.47-.36,11.46-.5,16.48-.83,28.93,1.34,29.22.58.1.8-.68,3.56-3.99,1.77-2.17,4.05-4.92,7.24-7.41,1.13-.88,3.23-2.42,6.16-3.86,3.81-1.87,6.71-3.28,8.74-2.52,3.73,1.34,3.37,9.5,3.23,12.18-2.18,39.77-16.21,78.95-22.73,91.86-7.5,14.48-24.14,41.5-57.01,64.63-16.77,11.8-42.2,19.86-93.32,35.61-12.45,2.27-20.52,1.93-25.66,1.13,0,0-1.45-.22-3.08-.47l-5.5-1.53-15.73,56.55-64.13-4.26-.14.2-.62.9-.42-.29-1.28-.88-.16-.11,1.98.13.64.05,11.2-16.33-1.68-1.15-.06-.05c-1.05-.86-1.58-1.28-1.76-1.4-4.09-2.71-7.9-5.85-12.11-8.37-3.5-2.09-8.42-5.4-14.08-10.52-.54.48-1.07.95-1.61,1.43-.38.57-.85,1.17-1.42,1.78-1.53,1.63-3.16,2.61-4.4,3.21-2.31.33-3.8.53-3.8.53,0,0-3.23-1.47-8.24-3.76-5.56,5.39-11.25,10.8-17.07,16.24-4.33,4.05-8.65,8.03-12.95,11.94.65.82,1.7,2.1,3.09,3.56,5.79,6.13,11.58,9.4,15.21,11.41,0,0,30.93,17.14,49.03,23.04,1.06.34,2.14.68,2.14.68.33.11.69.22,1.06.33,12.96,4.02,49.43,14.03,97.34,12.48,17.36-.56,46.86-1.87,82.31-14.12,22.9-7.92,46.02-20.34,72.12-40.42,17.76-13.66,59.58-49.56,79.59-109.94,0,0,23.08-69.64-1.2-136.04ZM241.44,473.54l-1.72-.48,2.11.14c-.13.1-.26.21-.39.34ZM256.65,464.27l.06-.86c.57.06,1.14.13,1.71.19-.58.21-1.17.43-1.77.67ZM257.63,403.66c.11-.09.51.27.79.53-.27-.2-.53-.38-.79-.53Z"/>
    <path class="cls-1" d="M258.42,404.19c-.27-.2-.53-.38-.79-.53.11-.09.51.27.79.53Z"/>
    <path class="cls-2" d="M221.8,290.99l.1.1v-.1h-.1Z"/>
    <path class="cls-2" d="M136.38,349.52c-.19.16-.37.33-.55.49l.72.78.66-.61c-.29-.23-.56-.45-.83-.66Z"/>
    <path class="cls-2" d="M207.01,384.81c6.31-9.45,13.89-19.58,22.95-29.95,1.89-2.16,10.12-11.5,22.25-22.8,8.47-7.9,16.29-14.37,22.85-19.47-1.16-2.12-2.34-4.26-3.57-6.42-2.42-4.26-4.86-8.35-7.31-12.3-3.78-4.38-7.44-7.34-10.15-9.26-2.86-2.03-5.19-3.26-9.45-5.53-2.63-1.4-6.14-3.25-10.99-5.17-3.93-1.57-4.27-1.4-6.3-2.31-2.98-1.34-7-3.84-11.05-8.91-2.48,2.91-4.97,5.82-7.46,8.73-6.87,7.76-15.2,16.12-25.21,24.47-17.69,14.77-35.16,24.95-49.62,31.95-.9,2.78-1.91,5.89-2.82,8.68-.94,2.89-1.87,5.79-2.81,8.69-13.54-10.23-27.08-20.45-40.62-30.68l20.94-39.83-54.9,30.98,13.11,40.99,6.16-5.47c5,3.99,10.05,7.98,15.15,11.97,7.76,6.09,15.5,12.08,23.19,17.98-2.06,3.78-4.13,7.56-6.19,11.34,1.35,1.58,2.71,3.15,4.06,4.73-26.48,26.94-52.97,53.87-79.45,80.81-.57.05-12.43,1.2-17.16,10.76-4.28,8.65.47,17.7,5.12,22.38,5.46,5.52,15.89,10.18,25.37,5.59,7.32-3.54,11.7-11.46,11.02-19.92,27.95-26.07,55.91-52.15,83.86-78.22.4.23.8.47,1.21.71,2.79,1.67,5.4,3.41,7.83,5.18,2.34-1.51,4.71-3.07,7.1-4.68,1.64-1.1,3.24-2.19,4.82-3.29,3.99,3.85,8.35,7.8,13.1,11.79,6.7,5.63,13.26,10.57,19.49,14.87-1.19,2.06-2.43,4.16-3.73,6.29-1.47,2.4-2.94,4.72-4.41,6.96,15.84,1.11,31.68,2.22,47.53,3.32,6.57-20.65,13.14-41.31,19.7-61.96-1.57,1.4-15.62,13.92-17.24,15.36-.99.88-12.59,11.22-13.6,12.11-11.01-8.28-22.03-16.56-33.04-24.84.09-.03,7.68-2.14,7.77-2.16.23-.07,12.26-3.41,12.5-3.47ZM221.81,302.27l.08-.78h.15s.08,0,.08,0c-.02.07-.04.13-.06.19-.07.21-.13.43-.2.65-.02.06-.05.13-.07.2l.02-.25ZM221.1,301.5v.09l-.09-.09h.09ZM220.26,318.59s.07-.1.1-.14l-.03.28s.05.09.08.14c.07.13.15.26.23.38l-.25.22-.13.12.07-.86c-.03-.05-.05-.09-.07-.14ZM136.55,350.79l-.72-.78c.18-.16.36-.33.55-.49.27.21.54.43.83.66l-.66.61ZM163.04,370.83c-.32.27-.64.54-.96.81-1.37-1.32-2.98-2.72-4.83-4.13-1.55-1.18-3.06-2.2-4.48-3.07.53-.55,1.05-1.09,1.58-1.64,15.94-16.57,31.9-33.15,47.84-49.72,5.58-1.12,11.15-2.23,16.73-3.35-.5,4.95-1,9.9-1.5,14.85-18.13,15.42-36.25,30.83-54.38,46.25Z"/>
    <path class="cls-2" d="M137.21,350.18l-.66.61-.72-.78c.18-.16.36-.33.55-.49.27.21.54.43.83.66Z"/>
    <path class="cls-2" d="M221.12,309.73l-.03.31c-.03-.05-.05-.1-.07-.15.03-.05.07-.11.1-.16Z"/>
    <path class="cls-2" d="M221.01,310.99l.08-.95c.1.21.21.4.33.57l-.41.38Z"/>
    <path class="cls-2" d="M251.62,223.86c-2.28,9.07,11.22,18.79,14.03,20.81,4.31,3.1,7.91,5.69,13.17,6.06,6.21.44,9.29-2.62,12.69-.54,1.73,1.06,2.79,4.12,4.82,10.19,2.33,6.94,2.27,8.59,3.94,9.34,2.95,1.33,8.21-1.54,10.08-5.52.62-1.32.98-3.01.44-6.79-.96-6.68-3.53-11.57-4.38-13.16-6.25-11.67-9.38-17.51-9.64-17.84-5.88-7.39-19.29-19.49-30.24-16.14-4.48,1.37-8.7,5.37-9.55,6.2-2.53,2.46-4.64,4.51-5.36,7.38Z"/>
    <path class="cls-2" d="M325.81,173.19c5.03,10.27,11.22,21.41,18.86,32.99,4.75,7.2,9.54,13.79,14.25,19.79l134.95-136.9,5.03-60.2-59.51,9.48-116.09,126.6,2.51,8.25Z"/>
    <path class="cls-2" d="M208.41,143.87c-.5.13-3.41-8.8-2.86-9.03.23-.09.82,1.39,2.09,3.78.55,3.31.99,5.19.77,5.25Z"/>
    <path class="cls-2" d="M137.21,350.18l-.66.61-.72-.78c.18-.16.36-.33.55-.49.27.21.54.43.83.66Z"/>
    <path class="cls-2" d="M221.12,309.73l-.03.31c-.03-.05-.05-.1-.07-.15.03-.05.07-.11.1-.16Z"/>
    <polygon class="cls-2" points="221.9 290.99 221.9 291.09 221.8 290.99 221.9 290.99"/>
    <path class="cls-2" d="M222.97,290.97c-.02.07-.04.14-.06.21-.07.23-.14.47-.21.71l-.05-.05.08-.86h.16s.08-.01.08-.01Z"/>
    <path class="cls-2" d="M221.12,309.73l-.03.31c-.03-.05-.05-.1-.07-.15.03-.05.07-.11.1-.16Z"/>
    <path class="cls-2" d="M222.91,291.18c-.09.3-.18.61-.28.93l.1-1.13h.16s.02.2.02.2Z"/>
    <path class="cls-2" d="M221.12,309.73l-.03.31c-.03-.05-.05-.1-.07-.15.03-.05.07-.11.1-.16Z"/>
    <path class="cls-2" d="M221.01,310.99l.08-.95c.1.21.21.4.33.57l-.41.38Z"/>
    <path class="cls-2" d="M221.12,309.73l-.03.31c-.03-.05-.05-.1-.07-.15.03-.05.07-.11.1-.16Z"/>
    <path class="cls-2" d="M221.17,310.19l-.02.67-.14.13.08-.95s.05.1.08.15Z"/>
    <polygon class="cls-2" points="221.9 290.99 221.9 291.09 221.8 290.99 221.9 290.99"/>
    <path class="cls-2" d="M163.04,370.83c-.32.27-.64.54-.96.81-1.37-1.32-2.98-2.72-4.83-4.13-1.55-1.18-3.06-2.2-4.48-3.07.53-.55,1.05-1.09,1.58-1.64l8.69,8.03Z"/>
    <circle class="cls-2" cx="228.97" cy="158.94" r="1.32"/>
    <path class="cls-1" d="M258.42,404.19c-.27-.2-.53-.38-.79-.53.11-.09.51.27.79.53Z"/>
    <path class="cls-2" d="M233.65,398.07c-4.46,3.43-8.91,6.85-13.37,10.28-8.52-5.6-17.04-11.2-25.56-16.8,1.53-.16,3.06-.33,4.58-.5.11.06.22.13.33.19-.07-.09-.09-.16-.06-.22.13-.03.27-.06.4-.1,3.84-.93,7.68-1.86,11.52-2.79,5.8,2.59,11.6,5.18,17.4,7.77h.01c.72.24,1.35.51,1.9.85h.01c.95.44,1.89.88,2.84,1.32Z"/>
    <path class="cls-2" d="M199.97,390.92c-.13.04-.27.07-.4.1.04-.09.17-.11.4-.1Z"/>
    <path class="cls-2" d="M369.72,245.4c-10.76-7.7-17.36-16.08-21.05-21.62-12.36-13.86-19.61-26.6-23.89-35.64-6.16-12.97-9.35-25-11.7-33.68-3.54-13.19-3.3-16.55-6.38-27.26-1.09-4.22-2.43-8.33-3.76-12.43-2.48-7.63-6.6-20.34-12.71-26.73-11.8-20.83-25.77-35.22-33.66-42.66-6.41-6.06-17.86-16.77-35.91-26.86C194.35,3.74,166.58-2.58,164.52.96c-1.52,2.65,12.9,8.35,20.69,24.57,2.97,6.19,4.17,15.62,4.53,18.87.04.52-.5.88-1.01.65-5.08-2.16-26.21-11.04-41.25-14.81-14.17-3.57-37.87-7.53-37.87-6.22s11.92,14.87,15.95,27.61c1.81,5.74,2.82,14.55,3.11,17.17.04.36-.32.62-.72.52-3.84-1.01-20.84-5.5-32.55-6.84-9.71-1.12-24.53-.98-28.92-.95-.51,0-.76.52-.43.85,2.57,2.72,10.58,11.47,14.57,19.2h.07c3.01,5.82,4.75,11.23,5.77,15.7-17.1,11.45-29.34,28.01-36.44,40.02-14.73,17.79-42.89,57.18-48.98,113.63-.15,1.34-.37,3.37-.59,5.99-.73,8.59-5.35,78.49,43,141.57,3.83,4.99,9.74,12.22,17.83,20.32.03-.03.07-.06.1-.1l1.4,1.51,33.58-31.03-1.77-1.92c-.35-.6-.88-1.7-.96-3.16-.02-.37-.07-1.83.71-3.44.77-1.59,1.78-2.17,3.57-3.75,1-.88,2.38-2.19,3.91-3.98-6.57-5.77-13.42-11.56-20.55-17.34-2.38-1.94-4.76-3.84-7.13-5.71-1.97,2.73-4.46,5.75-7.6,8.8-.76.73-1.51,1.42-2.25,2.08l-20.01-60.76,75.84-38.81c-1.88,5.67-5.03,13.33-9.14,23.35-4.92,11.97-9.79,21.53-13.31,28.04,8.95,7.28,17.9,14.57,26.85,21.86,1-7.45,1.73-14.27,1.58-17.46-.81.29-1.37.51-1.62.23-.41,3-.64,3.08-.71,3.09-.17.02-.34-.43-.36-.47-.14-.38.41-2.27,1.06-3.55t.01-.02c.09-.29.22-.52.24-.52.01,0,.01.03-.02.1.3-.5.6-.82.85-.77.32.07.49.75.55,1.91.61-.23,1.36-.49,2.22-.6,1.53-.2,2.86.13,3.8.47-.87-2.21-1.96-5.46-2.61-9.5-.59-3.71-1.63-13.12,3.09-25.9,9.1-24.66,28.48-31.75,25.9-47.43-.26-1.58-.68-2.83-.96-3.59-2.27-4.98-7.7-6.43-13.57-20.19-2.94-6.81-7.25-17.26-4.57-29.81,2.14-10.15,8.3-19.03,10.62-18.8,2.61.26-6.92,24.5.91,42.32,5.65,12.81,15.04,20.25,26.56,29.19,8.41,6.52,12.9,8.65,54.4,30.04,19.14,9.86,34.76,18.08,43.35,31.22,4.93,7.53,6.99,15.59,6.99,15.59,2.07,8.03,0,19.23,1.09,19.23s57.7-28.66,56.72-29.68c-.98-1.01-10.36.13-17.9-2.42-7.94-2.69-13.16-6.82-15.84-9.27-3.19-3.54-6.81-8.19-10.08-13.96-4.38-7.8-5.36-19.2-7.68-20.44s-8.08,1.31-14.24.33c-7-1.12-11.96-3.87-14.57-5.54-4.42-5.44-9.17-12.09-13.59-19.98-5.4-9.67-11.64-24.9-11.24-26.18.4-1.27,6.05-2.52,10.73-3.17,10.55-1.51,18.95,1.77,26.85,5.01,7.04,2.85,17.98,8.29,29.14,18.44,2.87,5.31,5.8,11.47,8.41,18.48,2.65,7.07,4.21,18.83,5.73,19.52,1.56.66,9.02-3.57,17.79-1.93,8.48,1.6,13.56,6.32,15.15,7.93,2.36,3.27,5.15,7.96,7.14,13.98,2.65,8.06,1.16,18.71,2.25,19.56,4.69,3.68,19.32-5.2,28.31-16.02,7.54-9.09,10.47-18.79,11.74-24.89-1.74-1.05-17.51-5.8-28.42-13.6ZM19.04,299.22c-.03-.05-.03-.12-.02-.2l.09.27s-.06-.04-.07-.07ZM258.78,134.64c.09,6.7-2.04,13.27-6.9,17.73-2.36-16.37-7.26-34.41-13.01-46.39,6.74,2.61,12.34,7.97,15.46,12.97.79,1.31,1.52,2.72,2.1,4.16.06,0,.12-.03.18-.04,1.4,5.38,2.15,8.44,2.37,10.23.05.43.1.85.14,1.26-.11.03-.23.06-.34.08Z"/>
  </g>
</svg>