<svg width="582" height="414" viewBox="0 0 582 414" fill="none" xmlns="http://www.w3.org/2000/svg">
<g filter="url(#filter0_dddddd_0_1)">
<path d="M262.134 331.826C261.911 331.826 261.72 331.795 261.529 331.764C261.307 331.701 261.116 331.638 260.936 331.576C260.554 331.42 260.204 331.169 259.897 330.888C259.611 330.607 259.388 330.263 259.229 329.887C259.07 329.481 258.974 329.106 258.974 328.678C258.974 328.491 259.006 328.272 259.038 328.084C259.07 327.897 259.134 327.678 259.229 327.49C259.293 327.303 259.388 327.115 259.515 326.959C259.642 326.771 259.77 326.615 259.897 326.49C260.056 326.333 260.215 326.208 260.406 326.083C260.565 325.989 260.756 325.896 260.946 325.802C261.137 325.739 261.328 325.677 261.54 325.614C262.144 325.489 262.78 325.583 263.342 325.802C263.756 325.958 264.074 326.208 264.381 326.49C264.509 326.615 264.668 326.771 264.763 326.959C264.89 327.115 264.986 327.303 265.081 327.49C265.145 327.678 265.208 327.897 265.24 328.084C265.304 328.272 265.304 328.491 265.304 328.678C265.304 329.116 265.24 329.481 265.081 329.887C264.89 330.263 264.668 330.607 264.381 330.888C263.777 331.482 262.961 331.816 262.134 331.816V331.826Z" fill="#2A1E54"/>
</g>
<g filter="url(#filter1_dddddd_0_1)">
<path d="M428.324 328.72C428.324 326.98 429.744 325.583 431.515 325.583C433.253 325.583 434.642 326.98 434.642 328.72C434.642 330.43 433.253 331.795 431.515 331.795C429.744 331.795 428.324 330.43 428.324 328.72ZM412.92 328.72C412.92 326.98 414.34 325.583 416.079 325.583C417.849 325.583 419.27 326.98 419.27 328.72C419.27 330.43 417.849 331.795 416.079 331.795C414.34 331.795 412.92 330.43 412.92 328.72ZM397.558 328.72C397.558 326.98 398.947 325.583 400.717 325.583C402.456 325.583 403.876 326.98 403.876 328.72C403.876 330.43 402.456 331.795 400.717 331.795C398.947 331.795 397.558 330.43 397.558 328.72ZM382.154 328.72C382.154 326.98 383.574 325.583 385.313 325.583C387.052 325.583 388.472 326.98 388.472 328.72C388.472 330.43 387.052 331.795 385.313 331.795C383.574 331.795 382.154 330.43 382.154 328.72ZM366.75 328.72C366.75 326.98 368.17 325.583 369.909 325.583C371.648 325.583 373.068 326.98 373.068 328.72C373.068 330.43 371.648 331.795 369.909 331.795C368.17 331.795 366.75 330.43 366.75 328.72ZM351.346 328.72C351.346 326.98 352.766 325.583 354.505 325.583C356.244 325.583 357.664 326.98 357.664 328.72C357.664 330.43 356.244 331.795 354.505 331.795C352.766 331.795 351.346 330.43 351.346 328.72ZM335.942 328.72C335.942 326.98 337.362 325.583 339.101 325.583C340.84 325.583 342.26 326.98 342.26 328.72C342.26 330.43 340.84 331.795 339.101 331.795C337.362 331.795 335.942 330.43 335.942 328.72ZM320.58 328.72C320.58 326.98 321.969 325.583 323.739 325.583C325.478 325.583 326.867 326.98 326.867 328.72C326.867 330.43 325.478 331.795 323.739 331.795C321.969 331.795 320.58 330.43 320.58 328.72ZM305.144 328.72C305.144 326.98 306.565 325.583 308.303 325.583C310.074 325.583 311.505 326.98 311.505 328.72C311.505 330.43 310.085 331.795 308.303 331.795C306.565 331.795 305.144 330.43 305.144 328.72ZM289.772 328.72C289.772 326.98 291.161 325.583 292.931 325.583C294.67 325.583 296.09 326.98 296.09 328.72C296.09 330.43 294.67 331.795 292.931 331.795C291.161 331.795 289.772 330.43 289.772 328.72ZM274.379 328.72C274.379 326.98 275.799 325.583 277.538 325.583C279.276 325.583 280.697 326.98 280.697 328.72C280.697 330.43 279.276 331.795 277.538 331.795C275.799 331.795 274.379 330.43 274.379 328.72Z" fill="#2A1E54"/>
</g>
<g filter="url(#filter2_dddddd_0_1)">
<path d="M0 278.868L46.7952 186.857H124.78L187.17 79.5137L249.56 48.8398H545.927L452.336 278.868H0Z" fill="#2A1E54"/>
</g>
<g filter="url(#filter3_dddddd_0_1)">
<path d="M148.358 386.472L143.1 384.075L179.59 306.687H481.575L572.844 82.3597H281.45L220.448 112.346L157.656 220.377H79.7766L35.8756 306.687H162.129V312.377H26.5144L76.2039 214.686H154.295L216.293 108.02L280.072 76.6689H581.399L485.498 312.377H183.279L148.358 386.472Z" fill="#7F5CFF"/>
</g>
<g filter="url(#filter4_dddddd_0_1)">
<path d="M110.86 174.371H41.9078L138.658 0H422.334L443.717 21.0225H265.834L173.643 66.3402L110.85 174.371H110.86ZM51.6719 168.68H107.51L169.498 62.0253L264.477 15.3318H429.744L419.938 5.69079H142.092L51.6613 168.68H51.6719Z" fill="#2A1E54"/>
</g>
<g filter="url(#filter5_dddddd_0_1)">
<path d="M140.28 389.067C135.318 389.067 131.3 393.028 131.3 397.885C131.3 402.742 135.329 406.713 140.28 406.713C145.231 406.713 149.248 402.752 149.248 397.885C149.248 393.017 145.22 389.067 140.28 389.067ZM140.28 413.133C131.724 413.133 124.78 406.296 124.78 397.895C124.78 389.494 131.724 382.657 140.28 382.657C148.835 382.657 155.779 389.494 155.779 397.895C155.779 406.296 148.814 413.133 140.28 413.133Z" fill="#7F5CFF"/>
</g>
<g filter="url(#filter6_dddddd_0_1)">
<path d="M230.608 155C230.608 152.253 231.222 149.8 232.448 147.64C233.702 145.453 235.395 143.76 237.528 142.56C239.688 141.333 242.102 140.72 244.768 140.72C247.888 140.72 250.622 141.52 252.968 143.12C255.315 144.72 256.955 146.933 257.888 149.76H251.448C250.808 148.427 249.902 147.427 248.728 146.76C247.582 146.093 246.248 145.76 244.728 145.76C243.102 145.76 241.648 146.147 240.368 146.92C239.115 147.667 238.128 148.733 237.408 150.12C236.715 151.507 236.368 153.133 236.368 155C236.368 156.84 236.715 158.467 237.408 159.88C238.128 161.267 239.115 162.347 240.368 163.12C241.648 163.867 243.102 164.24 244.728 164.24C246.248 164.24 247.582 163.907 248.728 163.24C249.902 162.547 250.808 161.533 251.448 160.2H257.888C256.955 163.053 255.315 165.28 252.968 166.88C250.648 168.453 247.915 169.24 244.768 169.24C242.102 169.24 239.688 168.64 237.528 167.44C235.395 166.213 233.702 164.52 232.448 162.36C231.222 160.2 230.608 157.747 230.608 155ZM274.511 169.36C272.378 169.36 270.458 168.893 268.751 167.96C267.045 167 265.698 165.653 264.711 163.92C263.751 162.187 263.271 160.187 263.271 157.92C263.271 155.653 263.765 153.653 264.751 151.92C265.765 150.187 267.138 148.853 268.871 147.92C270.605 146.96 272.538 146.48 274.671 146.48C276.805 146.48 278.738 146.96 280.471 147.92C282.205 148.853 283.565 150.187 284.551 151.92C285.565 153.653 286.071 155.653 286.071 157.92C286.071 160.187 285.551 162.187 284.511 163.92C283.498 165.653 282.111 167 280.351 167.96C278.618 168.893 276.671 169.36 274.511 169.36ZM274.511 164.48C275.525 164.48 276.471 164.24 277.351 163.76C278.258 163.253 278.978 162.507 279.511 161.52C280.045 160.533 280.311 159.333 280.311 157.92C280.311 155.813 279.751 154.2 278.631 153.08C277.538 151.933 276.191 151.36 274.591 151.36C272.991 151.36 271.645 151.933 270.551 153.08C269.485 154.2 268.951 155.813 268.951 157.92C268.951 160.027 269.471 161.653 270.511 162.8C271.578 163.92 272.911 164.48 274.511 164.48ZM319.699 146.52C322.419 146.52 324.606 147.36 326.259 149.04C327.939 150.693 328.779 153.013 328.779 156V169H323.179V156.76C323.179 155.027 322.739 153.707 321.859 152.8C320.979 151.867 319.779 151.4 318.259 151.4C316.739 151.4 315.526 151.867 314.619 152.8C313.739 153.707 313.299 155.027 313.299 156.76V169H307.699V156.76C307.699 155.027 307.259 153.707 306.379 152.8C305.499 151.867 304.299 151.4 302.779 151.4C301.232 151.4 300.006 151.867 299.099 152.8C298.219 153.707 297.779 155.027 297.779 156.76V169H292.179V146.84H297.779V149.52C298.499 148.587 299.419 147.853 300.539 147.32C301.686 146.787 302.939 146.52 304.299 146.52C306.032 146.52 307.579 146.893 308.939 147.64C310.299 148.36 311.352 149.4 312.099 150.76C312.819 149.48 313.859 148.453 315.219 147.68C316.606 146.907 318.099 146.52 319.699 146.52ZM341.693 150.04C342.413 149.027 343.4 148.187 344.653 147.52C345.933 146.827 347.387 146.48 349.013 146.48C350.907 146.48 352.613 146.947 354.133 147.88C355.68 148.813 356.893 150.147 357.773 151.88C358.68 153.587 359.133 155.573 359.133 157.84C359.133 160.107 358.68 162.12 357.773 163.88C356.893 165.613 355.68 166.96 354.133 167.92C352.613 168.88 350.907 169.36 349.013 169.36C347.387 169.36 345.947 169.027 344.693 168.36C343.467 167.693 342.467 166.853 341.693 165.84V179.56H336.093V146.84H341.693V150.04ZM353.413 157.84C353.413 156.507 353.133 155.36 352.573 154.4C352.04 153.413 351.32 152.667 350.413 152.16C349.533 151.653 348.573 151.4 347.533 151.4C346.52 151.4 345.56 151.667 344.653 152.2C343.773 152.707 343.053 153.453 342.493 154.44C341.96 155.427 341.693 156.587 341.693 157.92C341.693 159.253 341.96 160.413 342.493 161.4C343.053 162.387 343.773 163.147 344.653 163.68C345.56 164.187 346.52 164.44 347.533 164.44C348.573 164.44 349.533 164.173 350.413 163.64C351.32 163.107 352.04 162.347 352.573 161.36C353.133 160.373 353.413 159.2 353.413 157.84ZM386.123 146.84V169H380.483V166.2C379.763 167.16 378.816 167.92 377.643 168.48C376.496 169.013 375.243 169.28 373.883 169.28C372.149 169.28 370.616 168.92 369.283 168.2C367.949 167.453 366.896 166.373 366.123 164.96C365.376 163.52 365.003 161.813 365.003 159.84V146.84H370.603V159.04C370.603 160.8 371.043 162.16 371.923 163.12C372.803 164.053 374.003 164.52 375.523 164.52C377.069 164.52 378.283 164.053 379.163 163.12C380.043 162.16 380.483 160.8 380.483 159.04V146.84H386.123ZM400.168 151.44V162.16C400.168 162.907 400.341 163.453 400.688 163.8C401.061 164.12 401.675 164.28 402.528 164.28H405.128V169H401.608C396.888 169 394.528 166.707 394.528 162.12V151.44H391.888V146.84H394.528V141.36H400.168V146.84H405.128V151.44H400.168ZM431.756 157.44C431.756 158.24 431.702 158.96 431.596 159.6H415.396C415.529 161.2 416.089 162.453 417.076 163.36C418.062 164.267 419.276 164.72 420.716 164.72C422.796 164.72 424.276 163.827 425.156 162.04H431.196C430.556 164.173 429.329 165.933 427.516 167.32C425.702 168.68 423.476 169.36 420.836 169.36C418.702 169.36 416.782 168.893 415.076 167.96C413.396 167 412.076 165.653 411.116 163.92C410.182 162.187 409.716 160.187 409.716 157.92C409.716 155.627 410.182 153.613 411.116 151.88C412.049 150.147 413.356 148.813 415.036 147.88C416.716 146.947 418.649 146.48 420.836 146.48C422.942 146.48 424.822 146.933 426.476 147.84C428.156 148.747 429.449 150.04 430.356 151.72C431.289 153.373 431.756 155.28 431.756 157.44ZM425.956 155.84C425.929 154.4 425.409 153.253 424.396 152.4C423.382 151.52 422.142 151.08 420.676 151.08C419.289 151.08 418.116 151.507 417.156 152.36C416.222 153.187 415.649 154.347 415.436 155.84H425.956ZM443.443 150.28C444.163 149.107 445.097 148.187 446.243 147.52C447.417 146.853 448.75 146.52 450.243 146.52V152.4H448.763C447.003 152.4 445.67 152.813 444.763 153.64C443.883 154.467 443.443 155.907 443.443 157.96V169H437.843V146.84H443.443V150.28ZM217.264 205.6V212.6H226.664V217.04H217.264V224.44H227.864V229H211.664V201.04H227.864V205.6H217.264ZM247.233 206.52C249.873 206.52 252.006 207.36 253.633 209.04C255.259 210.693 256.073 213.013 256.073 216V229H250.473V216.76C250.473 215 250.033 213.653 249.153 212.72C248.273 211.76 247.073 211.28 245.553 211.28C244.006 211.28 242.779 211.76 241.873 212.72C240.993 213.653 240.553 215 240.553 216.76V229H234.953V206.84H240.553V209.6C241.299 208.64 242.246 207.893 243.393 207.36C244.566 206.8 245.846 206.52 247.233 206.52ZM272.078 206.48C273.731 206.48 275.185 206.813 276.438 207.48C277.691 208.12 278.678 208.96 279.398 210V206.84H285.038V229.16C285.038 231.213 284.625 233.04 283.798 234.64C282.971 236.267 281.731 237.547 280.078 238.48C278.425 239.44 276.425 239.92 274.078 239.92C270.931 239.92 268.345 239.187 266.318 237.72C264.318 236.253 263.185 234.253 262.918 231.72H268.478C268.771 232.733 269.398 233.533 270.358 234.12C271.345 234.733 272.531 235.04 273.918 235.04C275.545 235.04 276.865 234.547 277.878 233.56C278.891 232.6 279.398 231.133 279.398 229.16V225.72C278.678 226.76 277.678 227.627 276.398 228.32C275.145 229.013 273.705 229.36 272.078 229.36C270.211 229.36 268.505 228.88 266.958 227.92C265.411 226.96 264.185 225.613 263.278 223.88C262.398 222.12 261.958 220.107 261.958 217.84C261.958 215.6 262.398 213.613 263.278 211.88C264.185 210.147 265.398 208.813 266.918 207.88C268.465 206.947 270.185 206.48 272.078 206.48ZM279.398 217.92C279.398 216.56 279.131 215.4 278.598 214.44C278.065 213.453 277.345 212.707 276.438 212.2C275.531 211.667 274.558 211.4 273.518 211.4C272.478 211.4 271.518 211.653 270.638 212.16C269.758 212.667 269.038 213.413 268.478 214.4C267.945 215.36 267.678 216.507 267.678 217.84C267.678 219.173 267.945 220.347 268.478 221.36C269.038 222.347 269.758 223.107 270.638 223.64C271.545 224.173 272.505 224.44 273.518 224.44C274.558 224.44 275.531 224.187 276.438 223.68C277.345 223.147 278.065 222.4 278.598 221.44C279.131 220.453 279.398 219.28 279.398 217.92ZM295.347 204.2C294.361 204.2 293.534 203.893 292.867 203.28C292.227 202.64 291.907 201.853 291.907 200.92C291.907 199.987 292.227 199.213 292.867 198.6C293.534 197.96 294.361 197.64 295.347 197.64C296.334 197.64 297.147 197.96 297.787 198.6C298.454 199.213 298.787 199.987 298.787 200.92C298.787 201.853 298.454 202.64 297.787 203.28C297.147 203.893 296.334 204.2 295.347 204.2ZM298.107 206.84V229H292.507V206.84H298.107ZM317.92 206.52C320.56 206.52 322.693 207.36 324.32 209.04C325.947 210.693 326.76 213.013 326.76 216V229H321.16V216.76C321.16 215 320.72 213.653 319.84 212.72C318.96 211.76 317.76 211.28 316.24 211.28C314.693 211.28 313.467 211.76 312.56 212.72C311.68 213.653 311.24 215 311.24 216.76V229H305.64V206.84H311.24V209.6C311.987 208.64 312.933 207.893 314.08 207.36C315.253 206.8 316.533 206.52 317.92 206.52ZM354.685 217.44C354.685 218.24 354.632 218.96 354.525 219.6H338.325C338.459 221.2 339.019 222.453 340.005 223.36C340.992 224.267 342.205 224.72 343.645 224.72C345.725 224.72 347.205 223.827 348.085 222.04H354.125C353.485 224.173 352.259 225.933 350.445 227.32C348.632 228.68 346.405 229.36 343.765 229.36C341.632 229.36 339.712 228.893 338.005 227.96C336.325 227 335.005 225.653 334.045 223.92C333.112 222.187 332.645 220.187 332.645 217.92C332.645 215.627 333.112 213.613 334.045 211.88C334.979 210.147 336.285 208.813 337.965 207.88C339.645 206.947 341.579 206.48 343.765 206.48C345.872 206.48 347.752 206.933 349.405 207.84C351.085 208.747 352.379 210.04 353.285 211.72C354.219 213.373 354.685 215.28 354.685 217.44ZM348.885 215.84C348.859 214.4 348.339 213.253 347.325 212.4C346.312 211.52 345.072 211.08 343.605 211.08C342.219 211.08 341.045 211.507 340.085 212.36C339.152 213.187 338.579 214.347 338.365 215.84H348.885ZM381.373 217.44C381.373 218.24 381.32 218.96 381.213 219.6H365.013C365.146 221.2 365.706 222.453 366.693 223.36C367.68 224.267 368.893 224.72 370.333 224.72C372.413 224.72 373.893 223.827 374.773 222.04H380.813C380.173 224.173 378.946 225.933 377.133 227.32C375.32 228.68 373.093 229.36 370.453 229.36C368.32 229.36 366.4 228.893 364.693 227.96C363.013 227 361.693 225.653 360.733 223.92C359.8 222.187 359.333 220.187 359.333 217.92C359.333 215.627 359.8 213.613 360.733 211.88C361.666 210.147 362.973 208.813 364.653 207.88C366.333 206.947 368.266 206.48 370.453 206.48C372.56 206.48 374.44 206.933 376.093 207.84C377.773 208.747 379.066 210.04 379.973 211.72C380.906 213.373 381.373 215.28 381.373 217.44ZM375.573 215.84C375.546 214.4 375.026 213.253 374.013 212.4C373 211.52 371.76 211.08 370.293 211.08C368.906 211.08 367.733 211.507 366.773 212.36C365.84 213.187 365.266 214.347 365.053 215.84H375.573ZM393.06 210.28C393.78 209.107 394.714 208.187 395.86 207.52C397.034 206.853 398.367 206.52 399.86 206.52V212.4H398.38C396.62 212.4 395.287 212.813 394.38 213.64C393.5 214.467 393.06 215.907 393.06 217.96V229H387.46V206.84H393.06V210.28ZM408.472 204.2C407.486 204.2 406.659 203.893 405.992 203.28C405.352 202.64 405.032 201.853 405.032 200.92C405.032 199.987 405.352 199.213 405.992 198.6C406.659 197.96 407.486 197.64 408.472 197.64C409.459 197.64 410.272 197.96 410.912 198.6C411.579 199.213 411.912 199.987 411.912 200.92C411.912 201.853 411.579 202.64 410.912 203.28C410.272 203.893 409.459 204.2 408.472 204.2ZM411.232 206.84V229H405.632V206.84H411.232ZM431.045 206.52C433.685 206.52 435.818 207.36 437.445 209.04C439.072 210.693 439.885 213.013 439.885 216V229H434.285V216.76C434.285 215 433.845 213.653 432.965 212.72C432.085 211.76 430.885 211.28 429.365 211.28C427.818 211.28 426.592 211.76 425.685 212.72C424.805 213.653 424.365 215 424.365 216.76V229H418.765V206.84H424.365V209.6C425.112 208.64 426.058 207.893 427.205 207.36C428.378 206.8 429.658 206.52 431.045 206.52ZM455.89 206.48C457.544 206.48 458.997 206.813 460.25 207.48C461.504 208.12 462.49 208.96 463.21 210V206.84H468.85V229.16C468.85 231.213 468.437 233.04 467.61 234.64C466.784 236.267 465.544 237.547 463.89 238.48C462.237 239.44 460.237 239.92 457.89 239.92C454.744 239.92 452.157 239.187 450.13 237.72C448.13 236.253 446.997 234.253 446.73 231.72H452.29C452.584 232.733 453.21 233.533 454.17 234.12C455.157 234.733 456.344 235.04 457.73 235.04C459.357 235.04 460.677 234.547 461.69 233.56C462.704 232.6 463.21 231.133 463.21 229.16V225.72C462.49 226.76 461.49 227.627 460.21 228.32C458.957 229.013 457.517 229.36 455.89 229.36C454.024 229.36 452.317 228.88 450.77 227.92C449.224 226.96 447.997 225.613 447.09 223.88C446.21 222.12 445.77 220.107 445.77 217.84C445.77 215.6 446.21 213.613 447.09 211.88C447.997 210.147 449.21 208.813 450.73 207.88C452.277 206.947 453.997 206.48 455.89 206.48ZM463.21 217.92C463.21 216.56 462.944 215.4 462.41 214.44C461.877 213.453 461.157 212.707 460.25 212.2C459.344 211.667 458.37 211.4 457.33 211.4C456.29 211.4 455.33 211.653 454.45 212.16C453.57 212.667 452.85 213.413 452.29 214.4C451.757 215.36 451.49 216.507 451.49 217.84C451.49 219.173 451.757 220.347 452.29 221.36C452.85 222.347 453.57 223.107 454.45 223.64C455.357 224.173 456.317 224.44 457.33 224.44C458.37 224.44 459.344 224.187 460.25 223.68C461.157 223.147 461.877 222.4 462.41 221.44C462.944 220.453 463.21 219.28 463.21 217.92Z" fill="white"/>
</g>
<defs>
<filter id="filter0_dddddd_0_1" x="258.974" y="325.558" width="6.32922" height="6.26807" filterUnits="userSpaceOnUse" color-interpolation-filters="sRGB">
<feFlood flood-opacity="0" result="BackgroundImageFix"/>
<feColorMatrix in="SourceAlpha" type="matrix" values="0 0 0 0 0 0 0 0 0 0 0 0 0 0 0 0 0 0 127 0" result="hardAlpha"/>
<feOffset/>
<feColorMatrix type="matrix" values="0 0 0 0 0.164706 0 0 0 0 0.117647 0 0 0 0 0.329412 0 0 0 1 0"/>
<feBlend mode="normal" in2="BackgroundImageFix" result="effect1_dropShadow_0_1"/>
<feColorMatrix in="SourceAlpha" type="matrix" values="0 0 0 0 0 0 0 0 0 0 0 0 0 0 0 0 0 0 127 0" result="hardAlpha"/>
<feOffset/>
<feColorMatrix type="matrix" values="0 0 0 0 0.164706 0 0 0 0 0.117647 0 0 0 0 0.329412 0 0 0 1 0"/>
<feBlend mode="normal" in2="effect1_dropShadow_0_1" result="effect2_dropShadow_0_1"/>
<feColorMatrix in="SourceAlpha" type="matrix" values="0 0 0 0 0 0 0 0 0 0 0 0 0 0 0 0 0 0 127 0" result="hardAlpha"/>
<feOffset/>
<feColorMatrix type="matrix" values="0 0 0 0 0.164706 0 0 0 0 0.117647 0 0 0 0 0.329412 0 0 0 1 0"/>
<feBlend mode="normal" in2="effect2_dropShadow_0_1" result="effect3_dropShadow_0_1"/>
<feColorMatrix in="SourceAlpha" type="matrix" values="0 0 0 0 0 0 0 0 0 0 0 0 0 0 0 0 0 0 127 0" result="hardAlpha"/>
<feOffset/>
<feColorMatrix type="matrix" values="0 0 0 0 0.164706 0 0 0 0 0.117647 0 0 0 0 0.329412 0 0 0 1 0"/>
<feBlend mode="normal" in2="effect3_dropShadow_0_1" result="effect4_dropShadow_0_1"/>
<feColorMatrix in="SourceAlpha" type="matrix" values="0 0 0 0 0 0 0 0 0 0 0 0 0 0 0 0 0 0 127 0" result="hardAlpha"/>
<feOffset/>
<feColorMatrix type="matrix" values="0 0 0 0 0.164706 0 0 0 0 0.117647 0 0 0 0 0.329412 0 0 0 1 0"/>
<feBlend mode="normal" in2="effect4_dropShadow_0_1" result="effect5_dropShadow_0_1"/>
<feColorMatrix in="SourceAlpha" type="matrix" values="0 0 0 0 0 0 0 0 0 0 0 0 0 0 0 0 0 0 127 0" result="hardAlpha"/>
<feOffset/>
<feColorMatrix type="matrix" values="0 0 0 0 0.164706 0 0 0 0 0.117647 0 0 0 0 0.329412 0 0 0 1 0"/>
<feBlend mode="normal" in2="effect5_dropShadow_0_1" result="effect6_dropShadow_0_1"/>
<feBlend mode="normal" in="SourceGraphic" in2="effect6_dropShadow_0_1" result="shape"/>
</filter>
<filter id="filter1_dddddd_0_1" x="274.379" y="325.583" width="160.264" height="6.21191" filterUnits="userSpaceOnUse" color-interpolation-filters="sRGB">
<feFlood flood-opacity="0" result="BackgroundImageFix"/>
<feColorMatrix in="SourceAlpha" type="matrix" values="0 0 0 0 0 0 0 0 0 0 0 0 0 0 0 0 0 0 127 0" result="hardAlpha"/>
<feOffset/>
<feColorMatrix type="matrix" values="0 0 0 0 0.164706 0 0 0 0 0.117647 0 0 0 0 0.329412 0 0 0 1 0"/>
<feBlend mode="normal" in2="BackgroundImageFix" result="effect1_dropShadow_0_1"/>
<feColorMatrix in="SourceAlpha" type="matrix" values="0 0 0 0 0 0 0 0 0 0 0 0 0 0 0 0 0 0 127 0" result="hardAlpha"/>
<feOffset/>
<feColorMatrix type="matrix" values="0 0 0 0 0.164706 0 0 0 0 0.117647 0 0 0 0 0.329412 0 0 0 1 0"/>
<feBlend mode="normal" in2="effect1_dropShadow_0_1" result="effect2_dropShadow_0_1"/>
<feColorMatrix in="SourceAlpha" type="matrix" values="0 0 0 0 0 0 0 0 0 0 0 0 0 0 0 0 0 0 127 0" result="hardAlpha"/>
<feOffset/>
<feColorMatrix type="matrix" values="0 0 0 0 0.164706 0 0 0 0 0.117647 0 0 0 0 0.329412 0 0 0 1 0"/>
<feBlend mode="normal" in2="effect2_dropShadow_0_1" result="effect3_dropShadow_0_1"/>
<feColorMatrix in="SourceAlpha" type="matrix" values="0 0 0 0 0 0 0 0 0 0 0 0 0 0 0 0 0 0 127 0" result="hardAlpha"/>
<feOffset/>
<feColorMatrix type="matrix" values="0 0 0 0 0.164706 0 0 0 0 0.117647 0 0 0 0 0.329412 0 0 0 1 0"/>
<feBlend mode="normal" in2="effect3_dropShadow_0_1" result="effect4_dropShadow_0_1"/>
<feColorMatrix in="SourceAlpha" type="matrix" values="0 0 0 0 0 0 0 0 0 0 0 0 0 0 0 0 0 0 127 0" result="hardAlpha"/>
<feOffset/>
<feColorMatrix type="matrix" values="0 0 0 0 0.164706 0 0 0 0 0.117647 0 0 0 0 0.329412 0 0 0 1 0"/>
<feBlend mode="normal" in2="effect4_dropShadow_0_1" result="effect5_dropShadow_0_1"/>
<feColorMatrix in="SourceAlpha" type="matrix" values="0 0 0 0 0 0 0 0 0 0 0 0 0 0 0 0 0 0 127 0" result="hardAlpha"/>
<feOffset/>
<feColorMatrix type="matrix" values="0 0 0 0 0.164706 0 0 0 0 0.117647 0 0 0 0 0.329412 0 0 0 1 0"/>
<feBlend mode="normal" in2="effect5_dropShadow_0_1" result="effect6_dropShadow_0_1"/>
<feBlend mode="normal" in="SourceGraphic" in2="effect6_dropShadow_0_1" result="shape"/>
</filter>
<filter id="filter2_dddddd_0_1" x="0" y="48.8398" width="545.927" height="230.028" filterUnits="userSpaceOnUse" color-interpolation-filters="sRGB">
<feFlood flood-opacity="0" result="BackgroundImageFix"/>
<feColorMatrix in="SourceAlpha" type="matrix" values="0 0 0 0 0 0 0 0 0 0 0 0 0 0 0 0 0 0 127 0" result="hardAlpha"/>
<feOffset/>
<feColorMatrix type="matrix" values="0 0 0 0 0.164706 0 0 0 0 0.117647 0 0 0 0 0.329412 0 0 0 1 0"/>
<feBlend mode="normal" in2="BackgroundImageFix" result="effect1_dropShadow_0_1"/>
<feColorMatrix in="SourceAlpha" type="matrix" values="0 0 0 0 0 0 0 0 0 0 0 0 0 0 0 0 0 0 127 0" result="hardAlpha"/>
<feOffset/>
<feColorMatrix type="matrix" values="0 0 0 0 0.164706 0 0 0 0 0.117647 0 0 0 0 0.329412 0 0 0 1 0"/>
<feBlend mode="normal" in2="effect1_dropShadow_0_1" result="effect2_dropShadow_0_1"/>
<feColorMatrix in="SourceAlpha" type="matrix" values="0 0 0 0 0 0 0 0 0 0 0 0 0 0 0 0 0 0 127 0" result="hardAlpha"/>
<feOffset/>
<feColorMatrix type="matrix" values="0 0 0 0 0.164706 0 0 0 0 0.117647 0 0 0 0 0.329412 0 0 0 1 0"/>
<feBlend mode="normal" in2="effect2_dropShadow_0_1" result="effect3_dropShadow_0_1"/>
<feColorMatrix in="SourceAlpha" type="matrix" values="0 0 0 0 0 0 0 0 0 0 0 0 0 0 0 0 0 0 127 0" result="hardAlpha"/>
<feOffset/>
<feColorMatrix type="matrix" values="0 0 0 0 0.164706 0 0 0 0 0.117647 0 0 0 0 0.329412 0 0 0 1 0"/>
<feBlend mode="normal" in2="effect3_dropShadow_0_1" result="effect4_dropShadow_0_1"/>
<feColorMatrix in="SourceAlpha" type="matrix" values="0 0 0 0 0 0 0 0 0 0 0 0 0 0 0 0 0 0 127 0" result="hardAlpha"/>
<feOffset/>
<feColorMatrix type="matrix" values="0 0 0 0 0.164706 0 0 0 0 0.117647 0 0 0 0 0.329412 0 0 0 1 0"/>
<feBlend mode="normal" in2="effect4_dropShadow_0_1" result="effect5_dropShadow_0_1"/>
<feColorMatrix in="SourceAlpha" type="matrix" values="0 0 0 0 0 0 0 0 0 0 0 0 0 0 0 0 0 0 127 0" result="hardAlpha"/>
<feOffset/>
<feColorMatrix type="matrix" values="0 0 0 0 0.164706 0 0 0 0 0.117647 0 0 0 0 0.329412 0 0 0 1 0"/>
<feBlend mode="normal" in2="effect5_dropShadow_0_1" result="effect6_dropShadow_0_1"/>
<feBlend mode="normal" in="SourceGraphic" in2="effect6_dropShadow_0_1" result="shape"/>
</filter>
<filter id="filter3_dddddd_0_1" x="26.5144" y="76.6689" width="554.885" height="309.803" filterUnits="userSpaceOnUse" color-interpolation-filters="sRGB">
<feFlood flood-opacity="0" result="BackgroundImageFix"/>
<feColorMatrix in="SourceAlpha" type="matrix" values="0 0 0 0 0 0 0 0 0 0 0 0 0 0 0 0 0 0 127 0" result="hardAlpha"/>
<feOffset/>
<feColorMatrix type="matrix" values="0 0 0 0 0.498039 0 0 0 0 0.360784 0 0 0 0 1 0 0 0 1 0"/>
<feBlend mode="normal" in2="BackgroundImageFix" result="effect1_dropShadow_0_1"/>
<feColorMatrix in="SourceAlpha" type="matrix" values="0 0 0 0 0 0 0 0 0 0 0 0 0 0 0 0 0 0 127 0" result="hardAlpha"/>
<feOffset/>
<feColorMatrix type="matrix" values="0 0 0 0 0.498039 0 0 0 0 0.360784 0 0 0 0 1 0 0 0 1 0"/>
<feBlend mode="normal" in2="effect1_dropShadow_0_1" result="effect2_dropShadow_0_1"/>
<feColorMatrix in="SourceAlpha" type="matrix" values="0 0 0 0 0 0 0 0 0 0 0 0 0 0 0 0 0 0 127 0" result="hardAlpha"/>
<feOffset/>
<feColorMatrix type="matrix" values="0 0 0 0 0.498039 0 0 0 0 0.360784 0 0 0 0 1 0 0 0 1 0"/>
<feBlend mode="normal" in2="effect2_dropShadow_0_1" result="effect3_dropShadow_0_1"/>
<feColorMatrix in="SourceAlpha" type="matrix" values="0 0 0 0 0 0 0 0 0 0 0 0 0 0 0 0 0 0 127 0" result="hardAlpha"/>
<feOffset/>
<feColorMatrix type="matrix" values="0 0 0 0 0.498039 0 0 0 0 0.360784 0 0 0 0 1 0 0 0 1 0"/>
<feBlend mode="normal" in2="effect3_dropShadow_0_1" result="effect4_dropShadow_0_1"/>
<feColorMatrix in="SourceAlpha" type="matrix" values="0 0 0 0 0 0 0 0 0 0 0 0 0 0 0 0 0 0 127 0" result="hardAlpha"/>
<feOffset/>
<feColorMatrix type="matrix" values="0 0 0 0 0.498039 0 0 0 0 0.360784 0 0 0 0 1 0 0 0 1 0"/>
<feBlend mode="normal" in2="effect4_dropShadow_0_1" result="effect5_dropShadow_0_1"/>
<feColorMatrix in="SourceAlpha" type="matrix" values="0 0 0 0 0 0 0 0 0 0 0 0 0 0 0 0 0 0 127 0" result="hardAlpha"/>
<feOffset/>
<feColorMatrix type="matrix" values="0 0 0 0 0.498039 0 0 0 0 0.360784 0 0 0 0 1 0 0 0 1 0"/>
<feBlend mode="normal" in2="effect5_dropShadow_0_1" result="effect6_dropShadow_0_1"/>
<feBlend mode="normal" in="SourceGraphic" in2="effect6_dropShadow_0_1" result="shape"/>
</filter>
<filter id="filter4_dddddd_0_1" x="41.9078" y="0" width="401.809" height="174.371" filterUnits="userSpaceOnUse" color-interpolation-filters="sRGB">
<feFlood flood-opacity="0" result="BackgroundImageFix"/>
<feColorMatrix in="SourceAlpha" type="matrix" values="0 0 0 0 0 0 0 0 0 0 0 0 0 0 0 0 0 0 127 0" result="hardAlpha"/>
<feOffset/>
<feColorMatrix type="matrix" values="0 0 0 0 0.164706 0 0 0 0 0.117647 0 0 0 0 0.329412 0 0 0 1 0"/>
<feBlend mode="normal" in2="BackgroundImageFix" result="effect1_dropShadow_0_1"/>
<feColorMatrix in="SourceAlpha" type="matrix" values="0 0 0 0 0 0 0 0 0 0 0 0 0 0 0 0 0 0 127 0" result="hardAlpha"/>
<feOffset/>
<feColorMatrix type="matrix" values="0 0 0 0 0.164706 0 0 0 0 0.117647 0 0 0 0 0.329412 0 0 0 1 0"/>
<feBlend mode="normal" in2="effect1_dropShadow_0_1" result="effect2_dropShadow_0_1"/>
<feColorMatrix in="SourceAlpha" type="matrix" values="0 0 0 0 0 0 0 0 0 0 0 0 0 0 0 0 0 0 127 0" result="hardAlpha"/>
<feOffset/>
<feColorMatrix type="matrix" values="0 0 0 0 0.164706 0 0 0 0 0.117647 0 0 0 0 0.329412 0 0 0 1 0"/>
<feBlend mode="normal" in2="effect2_dropShadow_0_1" result="effect3_dropShadow_0_1"/>
<feColorMatrix in="SourceAlpha" type="matrix" values="0 0 0 0 0 0 0 0 0 0 0 0 0 0 0 0 0 0 127 0" result="hardAlpha"/>
<feOffset/>
<feColorMatrix type="matrix" values="0 0 0 0 0.164706 0 0 0 0 0.117647 0 0 0 0 0.329412 0 0 0 1 0"/>
<feBlend mode="normal" in2="effect3_dropShadow_0_1" result="effect4_dropShadow_0_1"/>
<feColorMatrix in="SourceAlpha" type="matrix" values="0 0 0 0 0 0 0 0 0 0 0 0 0 0 0 0 0 0 127 0" result="hardAlpha"/>
<feOffset/>
<feColorMatrix type="matrix" values="0 0 0 0 0.164706 0 0 0 0 0.117647 0 0 0 0 0.329412 0 0 0 1 0"/>
<feBlend mode="normal" in2="effect4_dropShadow_0_1" result="effect5_dropShadow_0_1"/>
<feColorMatrix in="SourceAlpha" type="matrix" values="0 0 0 0 0 0 0 0 0 0 0 0 0 0 0 0 0 0 127 0" result="hardAlpha"/>
<feOffset/>
<feColorMatrix type="matrix" values="0 0 0 0 0.164706 0 0 0 0 0.117647 0 0 0 0 0.329412 0 0 0 1 0"/>
<feBlend mode="normal" in2="effect5_dropShadow_0_1" result="effect6_dropShadow_0_1"/>
<feBlend mode="normal" in="SourceGraphic" in2="effect6_dropShadow_0_1" result="shape"/>
</filter>
<filter id="filter5_dddddd_0_1" x="124.78" y="382.657" width="30.9989" height="30.4761" filterUnits="userSpaceOnUse" color-interpolation-filters="sRGB">
<feFlood flood-opacity="0" result="BackgroundImageFix"/>
<feColorMatrix in="SourceAlpha" type="matrix" values="0 0 0 0 0 0 0 0 0 0 0 0 0 0 0 0 0 0 127 0" result="hardAlpha"/>
<feOffset/>
<feColorMatrix type="matrix" values="0 0 0 0 0.498039 0 0 0 0 0.360784 0 0 0 0 1 0 0 0 1 0"/>
<feBlend mode="normal" in2="BackgroundImageFix" result="effect1_dropShadow_0_1"/>
<feColorMatrix in="SourceAlpha" type="matrix" values="0 0 0 0 0 0 0 0 0 0 0 0 0 0 0 0 0 0 127 0" result="hardAlpha"/>
<feOffset/>
<feColorMatrix type="matrix" values="0 0 0 0 0.498039 0 0 0 0 0.360784 0 0 0 0 1 0 0 0 1 0"/>
<feBlend mode="normal" in2="effect1_dropShadow_0_1" result="effect2_dropShadow_0_1"/>
<feColorMatrix in="SourceAlpha" type="matrix" values="0 0 0 0 0 0 0 0 0 0 0 0 0 0 0 0 0 0 127 0" result="hardAlpha"/>
<feOffset/>
<feColorMatrix type="matrix" values="0 0 0 0 0.498039 0 0 0 0 0.360784 0 0 0 0 1 0 0 0 1 0"/>
<feBlend mode="normal" in2="effect2_dropShadow_0_1" result="effect3_dropShadow_0_1"/>
<feColorMatrix in="SourceAlpha" type="matrix" values="0 0 0 0 0 0 0 0 0 0 0 0 0 0 0 0 0 0 127 0" result="hardAlpha"/>
<feOffset/>
<feColorMatrix type="matrix" values="0 0 0 0 0.498039 0 0 0 0 0.360784 0 0 0 0 1 0 0 0 1 0"/>
<feBlend mode="normal" in2="effect3_dropShadow_0_1" result="effect4_dropShadow_0_1"/>
<feColorMatrix in="SourceAlpha" type="matrix" values="0 0 0 0 0 0 0 0 0 0 0 0 0 0 0 0 0 0 127 0" result="hardAlpha"/>
<feOffset/>
<feColorMatrix type="matrix" values="0 0 0 0 0.498039 0 0 0 0 0.360784 0 0 0 0 1 0 0 0 1 0"/>
<feBlend mode="normal" in2="effect4_dropShadow_0_1" result="effect5_dropShadow_0_1"/>
<feColorMatrix in="SourceAlpha" type="matrix" values="0 0 0 0 0 0 0 0 0 0 0 0 0 0 0 0 0 0 127 0" result="hardAlpha"/>
<feOffset/>
<feColorMatrix type="matrix" values="0 0 0 0 0.498039 0 0 0 0 0.360784 0 0 0 0 1 0 0 0 1 0"/>
<feBlend mode="normal" in2="effect5_dropShadow_0_1" result="effect6_dropShadow_0_1"/>
<feBlend mode="normal" in="SourceGraphic" in2="effect6_dropShadow_0_1" result="shape"/>
</filter>
<filter id="filter6_dddddd_0_1" x="211.664" y="140.72" width="257.187" height="99.1997" filterUnits="userSpaceOnUse" color-interpolation-filters="sRGB">
<feFlood flood-opacity="0" result="BackgroundImageFix"/>
<feColorMatrix in="SourceAlpha" type="matrix" values="0 0 0 0 0 0 0 0 0 0 0 0 0 0 0 0 0 0 127 0" result="hardAlpha"/>
<feOffset/>
<feColorMatrix type="matrix" values="0 0 0 0 1 0 0 0 0 1 0 0 0 0 1 0 0 0 1 0"/>
<feBlend mode="normal" in2="BackgroundImageFix" result="effect1_dropShadow_0_1"/>
<feColorMatrix in="SourceAlpha" type="matrix" values="0 0 0 0 0 0 0 0 0 0 0 0 0 0 0 0 0 0 127 0" result="hardAlpha"/>
<feOffset/>
<feColorMatrix type="matrix" values="0 0 0 0 1 0 0 0 0 1 0 0 0 0 1 0 0 0 1 0"/>
<feBlend mode="normal" in2="effect1_dropShadow_0_1" result="effect2_dropShadow_0_1"/>
<feColorMatrix in="SourceAlpha" type="matrix" values="0 0 0 0 0 0 0 0 0 0 0 0 0 0 0 0 0 0 127 0" result="hardAlpha"/>
<feOffset/>
<feColorMatrix type="matrix" values="0 0 0 0 1 0 0 0 0 1 0 0 0 0 1 0 0 0 1 0"/>
<feBlend mode="normal" in2="effect2_dropShadow_0_1" result="effect3_dropShadow_0_1"/>
<feColorMatrix in="SourceAlpha" type="matrix" values="0 0 0 0 0 0 0 0 0 0 0 0 0 0 0 0 0 0 127 0" result="hardAlpha"/>
<feOffset/>
<feColorMatrix type="matrix" values="0 0 0 0 1 0 0 0 0 1 0 0 0 0 1 0 0 0 1 0"/>
<feBlend mode="normal" in2="effect3_dropShadow_0_1" result="effect4_dropShadow_0_1"/>
<feColorMatrix in="SourceAlpha" type="matrix" values="0 0 0 0 0 0 0 0 0 0 0 0 0 0 0 0 0 0 127 0" result="hardAlpha"/>
<feOffset/>
<feColorMatrix type="matrix" values="0 0 0 0 1 0 0 0 0 1 0 0 0 0 1 0 0 0 1 0"/>
<feBlend mode="normal" in2="effect4_dropShadow_0_1" result="effect5_dropShadow_0_1"/>
<feColorMatrix in="SourceAlpha" type="matrix" values="0 0 0 0 0 0 0 0 0 0 0 0 0 0 0 0 0 0 127 0" result="hardAlpha"/>
<feOffset/>
<feColorMatrix type="matrix" values="0 0 0 0 1 0 0 0 0 1 0 0 0 0 1 0 0 0 1 0"/>
<feBlend mode="normal" in2="effect5_dropShadow_0_1" result="effect6_dropShadow_0_1"/>
<feBlend mode="normal" in="SourceGraphic" in2="effect6_dropShadow_0_1" result="shape"/>
</filter>
</defs>
</svg>
