<svg width="400" height="1064" viewBox="0 0 1440 3828" fill="none" xmlns="http://www.w3.org/2000/svg">
<g opacity="0.98" filter="url(#filter0_dddddd_0_1)">
<path d="M102 1752C102 1724.39 124.386 1702 152 1702H716H1280C1307.61 1702 1330 1724.39 1330 1752V2126C1330 2153.61 1307.61 2176 1280 2176H152C124.386 2176 102 2153.61 102 2126V1752Z" fill="url(#paint0_radial_0_1)" fill-opacity="0.7"/>
<path d="M152 1699.5C123.005 1699.5 99.5 1723.01 99.5 1752V2126C99.5 2154.99 123.005 2178.5 152 2178.5H1280C1308.99 2178.5 1332.5 2154.99 1332.5 2126V1752C1332.5 1723.01 1308.99 1699.5 1280 1699.5H716H152Z" stroke="#D7B4FE" stroke-width="5"/>
</g>
<g filter="url(#filter1_dddddd_0_1)">
<path d="M537.438 1905.18V1968H524.838V1941.27H497.928V1968H485.328V1905.18H497.928V1931.01H524.838V1905.18H537.438ZM592.86 1956.03H567.84L563.7 1968H550.47L573.06 1905.09H587.73L610.32 1968H597L592.86 1956.03ZM589.44 1945.95L580.35 1919.67L571.26 1945.95H589.44ZM620.204 1936.5C620.204 1930.32 621.584 1924.8 624.344 1919.94C627.164 1915.02 630.974 1911.21 635.774 1908.51C640.634 1905.75 646.064 1904.37 652.064 1904.37C659.084 1904.37 665.234 1906.17 670.514 1909.77C675.794 1913.37 679.484 1918.35 681.584 1924.71H667.094C665.654 1921.71 663.614 1919.46 660.974 1917.96C658.394 1916.46 655.394 1915.71 651.974 1915.71C648.314 1915.71 645.044 1916.58 642.164 1918.32C639.344 1920 637.124 1922.4 635.504 1925.52C633.944 1928.64 633.164 1932.3 633.164 1936.5C633.164 1940.64 633.944 1944.3 635.504 1947.48C637.124 1950.6 639.344 1953.03 642.164 1954.77C645.044 1956.45 648.314 1957.29 651.974 1957.29C655.394 1957.29 658.394 1956.54 660.974 1955.04C663.614 1953.48 665.654 1951.2 667.094 1948.2H681.584C679.484 1954.62 675.794 1959.63 670.514 1963.23C665.294 1966.77 659.144 1968.54 652.064 1968.54C646.064 1968.54 640.634 1967.19 635.774 1964.49C630.974 1961.73 627.164 1957.92 624.344 1953.06C621.584 1948.2 620.204 1942.68 620.204 1936.5ZM732.306 1968L709.446 1940.01V1968H696.846V1905.18H709.446V1933.35L732.306 1905.18H747.516L721.596 1936.32L748.236 1968H732.306ZM799.543 1956.03H774.523L770.383 1968H757.153L779.743 1905.09H794.413L817.003 1968H803.683L799.543 1956.03ZM796.123 1945.95L787.033 1919.67L777.943 1945.95H796.123ZM872.697 1905.18V1915.35H855.957V1968H843.357V1915.35H826.617V1905.18H872.697ZM938.501 1905.18V1968H925.901V1941.27H898.991V1968H886.391V1905.18H898.991V1931.01H925.901V1905.18H938.501ZM984.562 1968.63C978.682 1968.63 973.282 1967.25 968.362 1964.49C963.442 1961.73 959.542 1957.92 956.662 1953.06C953.782 1948.14 952.342 1942.59 952.342 1936.41C952.342 1930.29 953.782 1924.8 956.662 1919.94C959.542 1915.02 963.442 1911.18 968.362 1908.42C973.282 1905.66 978.682 1904.28 984.562 1904.28C990.502 1904.28 995.902 1905.66 1000.76 1908.42C1005.68 1911.18 1009.55 1915.02 1012.37 1919.94C1015.25 1924.8 1016.69 1930.29 1016.69 1936.41C1016.69 1942.59 1015.25 1948.14 1012.37 1953.06C1009.55 1957.92 1005.68 1961.73 1000.76 1964.49C995.842 1967.25 990.442 1968.63 984.562 1968.63ZM984.562 1957.38C988.342 1957.38 991.672 1956.54 994.552 1954.86C997.432 1953.12 999.682 1950.66 1001.3 1947.48C1002.92 1944.3 1003.73 1940.61 1003.73 1936.41C1003.73 1932.21 1002.92 1928.55 1001.3 1925.43C999.682 1922.25 997.432 1919.82 994.552 1918.14C991.672 1916.46 988.342 1915.62 984.562 1915.62C980.782 1915.62 977.422 1916.46 974.482 1918.14C971.602 1919.82 969.352 1922.25 967.732 1925.43C966.112 1928.55 965.302 1932.21 965.302 1936.41C965.302 1940.61 966.112 1944.3 967.732 1947.48C969.352 1950.66 971.602 1953.12 974.482 1954.86C977.422 1956.54 980.782 1957.38 984.562 1957.38ZM1084.3 1968H1071.7L1043.17 1924.89V1968H1030.57V1905.09H1043.17L1071.7 1948.29V1905.09H1084.3V1968ZM1122.94 1968.63C1118.56 1968.63 1114.6 1967.88 1111.06 1966.38C1107.58 1964.88 1104.82 1962.72 1102.78 1959.9C1100.74 1957.08 1099.69 1953.75 1099.63 1949.91H1113.13C1113.31 1952.49 1114.21 1954.53 1115.83 1956.03C1117.51 1957.53 1119.79 1958.28 1122.67 1958.28C1125.61 1958.28 1127.92 1957.59 1129.6 1956.21C1131.28 1954.77 1132.12 1952.91 1132.12 1950.63C1132.12 1948.77 1131.55 1947.24 1130.41 1946.04C1129.27 1944.84 1127.83 1943.91 1126.09 1943.25C1124.41 1942.53 1122.07 1941.75 1119.07 1940.91C1114.99 1939.71 1111.66 1938.54 1109.08 1937.4C1106.56 1936.2 1104.37 1934.43 1102.51 1932.09C1100.71 1929.69 1099.81 1926.51 1099.81 1922.55C1099.81 1918.83 1100.74 1915.59 1102.6 1912.83C1104.46 1910.07 1107.07 1907.97 1110.43 1906.53C1113.79 1905.03 1117.63 1904.28 1121.95 1904.28C1128.43 1904.28 1133.68 1905.87 1137.7 1909.05C1141.78 1912.17 1144.03 1916.55 1144.45 1922.19H1130.59C1130.47 1920.03 1129.54 1918.26 1127.8 1916.88C1126.12 1915.44 1123.87 1914.72 1121.05 1914.72C1118.59 1914.72 1116.61 1915.35 1115.11 1916.61C1113.67 1917.87 1112.95 1919.7 1112.95 1922.1C1112.95 1923.78 1113.49 1925.19 1114.57 1926.33C1115.71 1927.41 1117.09 1928.31 1118.71 1929.03C1120.39 1929.69 1122.73 1930.47 1125.73 1931.37C1129.81 1932.57 1133.14 1933.77 1135.72 1934.97C1138.3 1936.17 1140.52 1937.97 1142.38 1940.37C1144.24 1942.77 1145.17 1945.92 1145.17 1949.82C1145.17 1953.18 1144.3 1956.3 1142.56 1959.18C1140.82 1962.06 1138.27 1964.37 1134.91 1966.11C1131.55 1967.79 1127.56 1968.63 1122.94 1968.63Z" fill="white"/>
</g>
<g filter="url(#filter2_dddddd_0_1)">
<path d="M422.683 1898.8H374.083V1924.45C376.183 1921.85 379.183 1919.75 383.083 1918.15C386.983 1916.45 391.133 1915.6 395.533 1915.6C403.533 1915.6 410.083 1917.35 415.183 1920.85C420.283 1924.35 423.983 1928.85 426.283 1934.35C428.583 1939.75 429.733 1945.55 429.733 1951.75C429.733 1963.25 426.433 1972.5 419.833 1979.5C413.333 1986.5 404.033 1990 391.933 1990C380.533 1990 371.433 1987.15 364.633 1981.45C357.833 1975.75 353.983 1968.3 353.083 1959.1H373.483C374.383 1963.1 376.383 1966.3 379.483 1968.7C382.683 1971.1 386.733 1972.3 391.633 1972.3C397.533 1972.3 401.983 1970.45 404.983 1966.75C407.983 1963.05 409.483 1958.15 409.483 1952.05C409.483 1945.85 407.933 1941.15 404.833 1937.95C401.833 1934.65 397.383 1933 391.483 1933C387.283 1933 383.783 1934.05 380.983 1936.15C378.183 1938.25 376.183 1941.05 374.983 1944.55H354.883V1880.35H422.683V1898.8Z" fill="white"/>
</g>
<defs>
<filter id="filter0_dddddd_0_1" x="30.9369" y="1630.94" width="1370.13" height="616.126" filterUnits="userSpaceOnUse" color-interpolation-filters="sRGB">
<feFlood flood-opacity="0" result="BackgroundImageFix"/>
<feColorMatrix in="SourceAlpha" type="matrix" values="0 0 0 0 0 0 0 0 0 0 0 0 0 0 0 0 0 0 127 0" result="hardAlpha"/>
<feOffset/>
<feGaussianBlur stdDeviation="0.786465"/>
<feColorMatrix type="matrix" values="0 0 0 0 0.545098 0 0 0 0 0.458824 0 0 0 0 0.741176 0 0 0 1 0"/>
<feBlend mode="normal" in2="BackgroundImageFix" result="effect1_dropShadow_0_1"/>
<feColorMatrix in="SourceAlpha" type="matrix" values="0 0 0 0 0 0 0 0 0 0 0 0 0 0 0 0 0 0 127 0" result="hardAlpha"/>
<feOffset/>
<feGaussianBlur stdDeviation="1.57293"/>
<feColorMatrix type="matrix" values="0 0 0 0 0.545098 0 0 0 0 0.458824 0 0 0 0 0.741176 0 0 0 1 0"/>
<feBlend mode="normal" in2="effect1_dropShadow_0_1" result="effect2_dropShadow_0_1"/>
<feColorMatrix in="SourceAlpha" type="matrix" values="0 0 0 0 0 0 0 0 0 0 0 0 0 0 0 0 0 0 127 0" result="hardAlpha"/>
<feOffset/>
<feGaussianBlur stdDeviation="5.50525"/>
<feColorMatrix type="matrix" values="0 0 0 0 0.545098 0 0 0 0 0.458824 0 0 0 0 0.741176 0 0 0 1 0"/>
<feBlend mode="normal" in2="effect2_dropShadow_0_1" result="effect3_dropShadow_0_1"/>
<feColorMatrix in="SourceAlpha" type="matrix" values="0 0 0 0 0 0 0 0 0 0 0 0 0 0 0 0 0 0 127 0" result="hardAlpha"/>
<feOffset/>
<feGaussianBlur stdDeviation="11.0105"/>
<feColorMatrix type="matrix" values="0 0 0 0 0.545098 0 0 0 0 0.458824 0 0 0 0 0.741176 0 0 0 1 0"/>
<feBlend mode="normal" in2="effect3_dropShadow_0_1" result="effect4_dropShadow_0_1"/>
<feColorMatrix in="SourceAlpha" type="matrix" values="0 0 0 0 0 0 0 0 0 0 0 0 0 0 0 0 0 0 127 0" result="hardAlpha"/>
<feOffset/>
<feGaussianBlur stdDeviation="18.8752"/>
<feColorMatrix type="matrix" values="0 0 0 0 0.545098 0 0 0 0 0.458824 0 0 0 0 0.741176 0 0 0 1 0"/>
<feBlend mode="normal" in2="effect4_dropShadow_0_1" result="effect5_dropShadow_0_1"/>
<feColorMatrix in="SourceAlpha" type="matrix" values="0 0 0 0 0 0 0 0 0 0 0 0 0 0 0 0 0 0 127 0" result="hardAlpha"/>
<feOffset/>
<feGaussianBlur stdDeviation="33.0315"/>
<feColorMatrix type="matrix" values="0 0 0 0 0.545098 0 0 0 0 0.458824 0 0 0 0 0.741176 0 0 0 1 0"/>
<feBlend mode="normal" in2="effect5_dropShadow_0_1" result="effect6_dropShadow_0_1"/>
<feBlend mode="normal" in="SourceGraphic" in2="effect6_dropShadow_0_1" result="shape"/>
</filter>
<filter id="filter1_dddddd_0_1" x="-1274.83" y="144.121" width="4180.16" height="3584.67" filterUnits="userSpaceOnUse" color-interpolation-filters="sRGB">
<feFlood flood-opacity="0" result="BackgroundImageFix"/>
<feColorMatrix in="SourceAlpha" type="matrix" values="0 0 0 0 0 0 0 0 0 0 0 0 0 0 0 0 0 0 127 0" result="hardAlpha"/>
<feOffset/>
<feGaussianBlur stdDeviation="20.9543"/>
<feColorMatrix type="matrix" values="0 0 0 0 0.419608 0 0 0 0 0.129412 0 0 0 0 0.658824 0 0 0 1 0"/>
<feBlend mode="normal" in2="BackgroundImageFix" result="effect1_dropShadow_0_1"/>
<feColorMatrix in="SourceAlpha" type="matrix" values="0 0 0 0 0 0 0 0 0 0 0 0 0 0 0 0 0 0 127 0" result="hardAlpha"/>
<feOffset/>
<feGaussianBlur stdDeviation="41.9085"/>
<feColorMatrix type="matrix" values="0 0 0 0 0.419608 0 0 0 0 0.129412 0 0 0 0 0.658824 0 0 0 1 0"/>
<feBlend mode="normal" in2="effect1_dropShadow_0_1" result="effect2_dropShadow_0_1"/>
<feColorMatrix in="SourceAlpha" type="matrix" values="0 0 0 0 0 0 0 0 0 0 0 0 0 0 0 0 0 0 127 0" result="hardAlpha"/>
<feOffset/>
<feGaussianBlur stdDeviation="146.68"/>
<feColorMatrix type="matrix" values="0 0 0 0 0.419608 0 0 0 0 0.129412 0 0 0 0 0.658824 0 0 0 1 0"/>
<feBlend mode="normal" in2="effect2_dropShadow_0_1" result="effect3_dropShadow_0_1"/>
<feColorMatrix in="SourceAlpha" type="matrix" values="0 0 0 0 0 0 0 0 0 0 0 0 0 0 0 0 0 0 127 0" result="hardAlpha"/>
<feOffset/>
<feGaussianBlur stdDeviation="293.36"/>
<feColorMatrix type="matrix" values="0 0 0 0 0.419608 0 0 0 0 0.129412 0 0 0 0 0.658824 0 0 0 1 0"/>
<feBlend mode="normal" in2="effect3_dropShadow_0_1" result="effect4_dropShadow_0_1"/>
<feColorMatrix in="SourceAlpha" type="matrix" values="0 0 0 0 0 0 0 0 0 0 0 0 0 0 0 0 0 0 127 0" result="hardAlpha"/>
<feOffset/>
<feGaussianBlur stdDeviation="502.903"/>
<feColorMatrix type="matrix" values="0 0 0 0 0.419608 0 0 0 0 0.129412 0 0 0 0 0.658824 0 0 0 1 0"/>
<feBlend mode="normal" in2="effect4_dropShadow_0_1" result="effect5_dropShadow_0_1"/>
<feColorMatrix in="SourceAlpha" type="matrix" values="0 0 0 0 0 0 0 0 0 0 0 0 0 0 0 0 0 0 127 0" result="hardAlpha"/>
<feOffset/>
<feGaussianBlur stdDeviation="880.079"/>
<feColorMatrix type="matrix" values="0 0 0 0 0.419608 0 0 0 0 0.129412 0 0 0 0 0.658824 0 0 0 1 0"/>
<feBlend mode="normal" in2="effect5_dropShadow_0_1" result="effect6_dropShadow_0_1"/>
<feBlend mode="normal" in="SourceGraphic" in2="effect6_dropShadow_0_1" result="shape"/>
</filter>
<filter id="filter2_dddddd_0_1" x="-1526.4" y="0.864746" width="3835.62" height="3868.62" filterUnits="userSpaceOnUse" color-interpolation-filters="sRGB">
<feFlood flood-opacity="0" result="BackgroundImageFix"/>
<feColorMatrix in="SourceAlpha" type="matrix" values="0 0 0 0 0 0 0 0 0 0 0 0 0 0 0 0 0 0 127 0" result="hardAlpha"/>
<feOffset/>
<feGaussianBlur stdDeviation="22.3748"/>
<feColorMatrix type="matrix" values="0 0 0 0 0.847059 0 0 0 0 0.709804 0 0 0 0 0.996078 0 0 0 1 0"/>
<feBlend mode="normal" in2="BackgroundImageFix" result="effect1_dropShadow_0_1"/>
<feColorMatrix in="SourceAlpha" type="matrix" values="0 0 0 0 0 0 0 0 0 0 0 0 0 0 0 0 0 0 127 0" result="hardAlpha"/>
<feOffset/>
<feGaussianBlur stdDeviation="44.7496"/>
<feColorMatrix type="matrix" values="0 0 0 0 0.847059 0 0 0 0 0.709804 0 0 0 0 0.996078 0 0 0 1 0"/>
<feBlend mode="normal" in2="effect1_dropShadow_0_1" result="effect2_dropShadow_0_1"/>
<feColorMatrix in="SourceAlpha" type="matrix" values="0 0 0 0 0 0 0 0 0 0 0 0 0 0 0 0 0 0 127 0" result="hardAlpha"/>
<feOffset/>
<feGaussianBlur stdDeviation="156.624"/>
<feColorMatrix type="matrix" values="0 0 0 0 0.847059 0 0 0 0 0.709804 0 0 0 0 0.996078 0 0 0 1 0"/>
<feBlend mode="normal" in2="effect2_dropShadow_0_1" result="effect3_dropShadow_0_1"/>
<feColorMatrix in="SourceAlpha" type="matrix" values="0 0 0 0 0 0 0 0 0 0 0 0 0 0 0 0 0 0 127 0" result="hardAlpha"/>
<feOffset/>
<feGaussianBlur stdDeviation="313.248"/>
<feColorMatrix type="matrix" values="0 0 0 0 0.847059 0 0 0 0 0.709804 0 0 0 0 0.996078 0 0 0 1 0"/>
<feBlend mode="normal" in2="effect3_dropShadow_0_1" result="effect4_dropShadow_0_1"/>
<feColorMatrix in="SourceAlpha" type="matrix" values="0 0 0 0 0 0 0 0 0 0 0 0 0 0 0 0 0 0 127 0" result="hardAlpha"/>
<feOffset/>
<feGaussianBlur stdDeviation="536.996"/>
<feColorMatrix type="matrix" values="0 0 0 0 0.847059 0 0 0 0 0.709804 0 0 0 0 0.996078 0 0 0 1 0"/>
<feBlend mode="normal" in2="effect4_dropShadow_0_1" result="effect5_dropShadow_0_1"/>
<feColorMatrix in="SourceAlpha" type="matrix" values="0 0 0 0 0 0 0 0 0 0 0 0 0 0 0 0 0 0 127 0" result="hardAlpha"/>
<feOffset/>
<feGaussianBlur stdDeviation="939.743"/>
<feColorMatrix type="matrix" values="0 0 0 0 0.847059 0 0 0 0 0.709804 0 0 0 0 0.996078 0 0 0 1 0"/>
<feBlend mode="normal" in2="effect5_dropShadow_0_1" result="effect6_dropShadow_0_1"/>
<feBlend mode="normal" in="SourceGraphic" in2="effect6_dropShadow_0_1" result="shape"/>
</filter>
<radialGradient id="paint0_radial_0_1" cx="0" cy="0" r="1" gradientUnits="userSpaceOnUse" gradientTransform="translate(719.646 1745.96) rotate(90.4572) scale(456.88 1496.06)">
<stop stop-color="#D8B3FE"/>
<stop offset="0.0001" stop-color="#D8B3FE"/>
<stop offset="0.055454" stop-color="#D8B3FE"/>
<stop offset="0.149869" stop-color="#D8B3FE"/>
<stop offset="0.425" stop-color="#8557B4" stop-opacity="0.854988"/>
<stop offset="0.869003" stop-color="#2E1647"/>
</radialGradient>
</defs>
</svg>
