<svg width="1440" height="1909" viewBox="0 0 1440 1909" fill="none" xmlns="http://www.w3.org/2000/svg">
<g filter="url(#filter0_dddddd_246_2124)">
<g clip-path="url(#clip0_246_2124)">
<path d="M1178.03 604.671C1176 603.252 1174.3 601.444 1173.16 599.328C1173.08 598.83 1172.95 598.149 1172.82 597.308C1173.25 598.143 1173.82 599.173 1174.58 600.312C1176.06 602.537 1177.36 603.87 1178.03 604.671Z" fill="#D8B4FE"/>
<path d="M1126.63 698.265C1126.49 698.237 1126.32 698.42 1126.16 698.706C1126.17 698.666 1126.17 698.649 1126.17 698.649C1126.16 698.649 1126.08 698.78 1126.03 698.946C1126.03 698.946 1126.03 698.95 1126.03 698.957C1125.66 699.69 1125.35 700.771 1125.43 700.988C1125.44 701.011 1125.54 701.269 1125.63 701.257C1125.67 701.252 1125.8 701.206 1126.03 699.49C1126.17 699.65 1126.49 699.524 1126.94 699.358C1126.91 698.694 1126.81 698.305 1126.63 698.265Z" fill="#D8B4FE"/>
<path d="M1076.39 685.215C1076.39 685.215 1076.43 685.364 1076.52 685.661C1076.03 686.113 1075.75 686.388 1075.69 686.336C1075.68 686.331 1075.67 686.308 1075.67 686.285C1075.67 686.056 1076.02 685.272 1076.39 685.215Z" fill="#D8B4FE"/>
<path d="M1090.13 676.461C1091.98 675.741 1092.97 675.432 1093.44 675.334C1092.03 676.147 1090.58 676.959 1089.13 677.772C1081.57 681.971 1067.19 689.569 1066.86 688.985C1066.58 688.476 1078.54 680.953 1090.13 676.461Z" fill="#D8B4FE"/>
<path d="M1120.3 658.091C1120.35 658.165 1119.39 658.909 1117.65 660.133C1117.72 659.87 1117.79 659.607 1117.85 659.349C1119.87 658.211 1120.28 658.05 1120.3 658.091Z" fill="#D8B4FE"/>
<path d="M1173.25 600.312C1173.16 600.335 1172.93 599.843 1172.68 599.15C1172.8 599.139 1172.93 599.133 1173.05 599.122C1173.09 599.19 1173.13 599.259 1173.16 599.328C1173.27 599.951 1173.32 600.294 1173.25 600.312Z" fill="#D8B4FE"/>
<path d="M1280.46 561.333C1281.48 560.343 1281.31 558.69 1280.11 557.963C1273.3 553.821 1265.21 549.484 1255.55 545.702C1244.46 541.388 1234.36 539.003 1226.22 537.652C1228.99 538.534 1232.9 539.952 1237.35 542.138C1242.45 544.65 1246.69 547.396 1250.03 549.907C1253.98 552.848 1257.95 555.211 1262.75 559.096C1266.67 562.254 1269.88 565.172 1272.3 567.512C1272.63 567.815 1273.1 567.792 1273.94 567.66L1280.48 561.35L1280.46 561.327V561.333Z" fill="#D8B4FE"/>
<path d="M1340.75 631.452C1338.84 626.126 1337.77 623.145 1336.37 620.147C1333.88 614.844 1331.5 611.113 1329.33 607.761C1326.7 603.693 1323.11 598.538 1318.34 592.782C1318.04 592.393 1317.4 592.353 1317.04 592.708L1299.73 609.895C1299.62 609.992 1299.56 610.101 1299.52 610.255C1299.07 612.2 1298.58 614.935 1298.3 618.219C1298.09 620.731 1298.16 622.493 1298.09 624.776C1297.81 634.204 1297.63 641.327 1298.85 641.493C1299.17 641.55 1299.3 641.104 1300.85 639.21C1301.85 637.969 1303.13 636.396 1304.92 634.971C1305.56 634.468 1306.74 633.586 1308.39 632.763C1310.53 631.693 1312.16 630.886 1313.31 631.321C1315.4 632.087 1315.2 636.756 1315.12 638.289C1313.9 661.043 1306 683.459 1302.34 690.845C1298.12 699.129 1288.76 714.588 1270.26 727.821C1260.83 734.572 1246.52 739.184 1217.76 748.195C1210.76 749.493 1206.22 749.299 1203.33 748.841C1203.33 748.841 1202.51 748.715 1201.59 748.572L1198.5 747.697L1189.65 780.05L1153.57 777.613L1153.49 777.728L1153.14 778.243L1152.91 778.077L1152.19 777.573L1152.1 777.51L1153.21 777.585L1153.57 777.613L1159.87 768.27L1158.93 767.612L1158.89 767.584C1158.3 767.092 1158 766.852 1157.9 766.783C1155.6 765.232 1153.46 763.436 1151.09 761.994C1149.12 760.798 1146.35 758.905 1143.17 755.975C1142.86 756.25 1142.57 756.519 1142.26 756.794C1142.05 757.12 1141.78 757.463 1141.46 757.812C1140.6 758.745 1139.69 759.305 1138.99 759.648C1137.69 759.837 1136.85 759.952 1136.85 759.952C1136.85 759.952 1135.03 759.111 1132.21 757.801C1129.09 760.884 1125.89 763.979 1122.61 767.092C1120.17 769.409 1117.74 771.686 1115.33 773.923C1115.69 774.392 1116.28 775.124 1117.06 775.96C1120.32 779.467 1123.58 781.338 1125.62 782.488C1125.62 782.488 1143.02 792.294 1153.2 795.669C1153.8 795.864 1154.41 796.059 1154.41 796.059C1154.59 796.121 1154.8 796.184 1155 796.247C1162.3 798.547 1182.81 804.274 1209.77 803.387C1219.53 803.067 1236.13 802.318 1256.07 795.309C1268.96 790.778 1281.96 783.672 1296.65 772.184C1306.64 764.369 1330.17 743.829 1341.42 709.284C1341.42 709.284 1354.41 669.442 1340.75 631.452ZM1191.83 788.924L1190.86 788.65L1192.05 788.73C1191.98 788.787 1191.91 788.85 1191.83 788.924ZM1200.39 783.621L1200.42 783.128C1200.74 783.163 1201.06 783.203 1201.38 783.237C1201.06 783.357 1200.73 783.483 1200.39 783.621ZM1200.94 748.944C1201 748.893 1201.23 749.098 1201.38 749.247C1201.23 749.133 1201.09 749.03 1200.94 748.944Z" fill="#D8B4FE"/>
<path d="M1201.38 749.247C1201.23 749.133 1201.09 749.03 1200.94 748.944C1201 748.893 1201.23 749.098 1201.38 749.247Z" fill="#D8B4FE" stroke="#DBC34C" stroke-width="0.14" stroke-miterlimit="10"/>
<path d="M1180.78 684.483L1180.84 684.54V684.483H1180.78Z" fill="#D8B4FE"/>
<path d="M1132.73 717.969C1132.62 718.061 1132.52 718.158 1132.42 718.25L1132.82 718.696L1133.19 718.347C1133.03 718.215 1132.88 718.089 1132.73 717.969Z" fill="#D8B4FE"/>
<path d="M1172.46 738.159C1176.01 732.753 1180.28 726.957 1185.37 721.024C1186.44 719.789 1191.07 714.445 1197.89 707.98C1202.66 703.46 1207.06 699.758 1210.75 696.841C1210.09 695.628 1209.43 694.403 1208.74 693.168C1207.38 690.73 1206 688.39 1204.63 686.13C1202.5 683.624 1200.44 681.931 1198.91 680.833C1197.31 679.671 1196 678.967 1193.6 677.669C1192.12 676.868 1190.14 675.809 1187.42 674.711C1185.2 673.813 1185.01 673.91 1183.87 673.389C1182.19 672.623 1179.93 671.192 1177.65 668.292C1176.26 669.956 1174.86 671.621 1173.46 673.286C1169.59 677.726 1164.91 682.509 1159.27 687.286C1149.32 695.736 1139.49 701.561 1131.36 705.565C1130.85 707.156 1130.28 708.935 1129.77 710.532C1129.24 712.185 1128.72 713.844 1128.19 715.503C1120.57 709.65 1112.96 703.803 1105.34 697.951L1117.12 675.163L1086.23 692.887L1093.61 716.339L1097.07 713.209C1099.89 715.492 1102.73 717.775 1105.6 720.057C1109.96 723.542 1114.32 726.969 1118.64 730.344C1117.49 732.507 1116.32 734.669 1115.16 736.832C1115.92 737.736 1116.69 738.634 1117.45 739.538C1102.55 754.951 1087.65 770.359 1072.75 785.772C1072.43 785.8 1065.76 786.458 1063.09 791.928C1060.69 796.877 1063.36 802.054 1065.97 804.732C1069.05 807.89 1074.91 810.556 1080.25 807.93C1084.37 805.905 1086.83 801.374 1086.45 796.533C1102.17 781.618 1117.9 766.697 1133.63 751.782C1133.85 751.913 1134.08 752.051 1134.31 752.188C1135.88 753.143 1137.35 754.139 1138.71 755.152C1140.03 754.288 1141.36 753.395 1142.71 752.474C1143.63 751.845 1144.53 751.221 1145.42 750.592C1147.66 752.794 1150.12 755.054 1152.79 757.337C1156.56 760.558 1160.25 763.384 1163.75 765.845C1163.08 767.023 1162.39 768.225 1161.65 769.443C1160.83 770.816 1160 772.144 1159.17 773.425C1168.08 774.06 1177 774.695 1185.91 775.325C1189.61 763.51 1193.31 751.69 1197 739.876C1196.11 740.677 1188.21 747.84 1187.3 748.664C1186.74 749.167 1180.21 755.083 1179.65 755.592C1173.45 750.855 1167.25 746.118 1161.06 741.381C1161.11 741.363 1165.38 740.156 1165.43 740.145C1165.56 740.105 1172.33 738.194 1172.46 738.159ZM1180.79 690.936L1180.83 690.49H1180.92H1180.96C1180.95 690.53 1180.94 690.564 1180.93 690.599C1180.89 690.719 1180.86 690.845 1180.82 690.971C1180.81 691.005 1180.79 691.045 1180.78 691.085L1180.79 690.942V690.936ZM1180.39 690.496V690.547L1180.34 690.496H1180.39ZM1179.92 700.273C1179.92 700.273 1179.96 700.216 1179.97 700.193L1179.96 700.353C1179.96 700.353 1179.98 700.405 1180 700.434C1180.04 700.508 1180.09 700.582 1180.13 700.651L1179.99 700.777L1179.92 700.845L1179.96 700.353C1179.94 700.325 1179.93 700.302 1179.92 700.273ZM1132.82 718.696L1132.42 718.25C1132.52 718.158 1132.62 718.061 1132.73 717.969C1132.88 718.089 1133.03 718.215 1133.19 718.347L1132.82 718.696ZM1147.72 730.161C1147.54 730.316 1147.36 730.47 1147.18 730.625C1146.41 729.869 1145.51 729.068 1144.47 728.262C1143.6 727.587 1142.75 727.003 1141.95 726.505C1142.25 726.191 1142.54 725.882 1142.84 725.567C1151.8 716.087 1160.78 706.601 1169.75 697.121C1172.89 696.48 1176.02 695.845 1179.16 695.204C1178.88 698.036 1178.6 700.868 1178.32 703.7C1168.12 712.523 1157.92 721.339 1147.72 730.161Z" fill="#D8B4FE"/>
<path d="M1133.19 718.347L1132.82 718.696L1132.42 718.25C1132.52 718.158 1132.62 718.061 1132.73 717.969C1132.88 718.089 1133.03 718.215 1133.19 718.347Z" fill="#D8B4FE"/>
<path d="M1180.4 695.204L1180.38 695.382C1180.37 695.353 1180.36 695.324 1180.34 695.296C1180.36 695.267 1180.38 695.233 1180.4 695.204Z" fill="#D8B4FE"/>
<path d="M1180.34 695.925L1180.38 695.382C1180.44 695.502 1180.5 695.611 1180.57 695.708L1180.34 695.925Z" fill="#D8B4FE"/>
<path d="M1197.56 646.076C1196.28 651.265 1203.87 656.826 1205.45 657.982C1207.88 659.755 1209.9 661.237 1212.86 661.449C1216.36 661.701 1218.09 659.95 1220 661.14C1220.97 661.746 1221.57 663.497 1222.71 666.97C1224.02 670.941 1223.99 671.885 1224.93 672.314C1226.59 673.075 1229.55 671.433 1230.6 669.155C1230.95 668.4 1231.15 667.433 1230.85 665.271C1230.31 661.449 1228.86 658.651 1228.38 657.742C1224.87 651.065 1223.11 647.724 1222.96 647.535C1219.65 643.307 1212.11 636.384 1205.95 638.301C1203.43 639.085 1201.05 641.373 1200.57 641.848C1199.15 643.255 1197.96 644.428 1197.56 646.07V646.076Z" fill="#D8B4FE"/>
<path d="M1239.3 617.086C1242.13 622.962 1245.61 629.336 1249.91 635.961C1252.58 640.08 1255.28 643.85 1257.92 647.283L1333.85 568.959L1336.68 534.517L1303.2 539.941L1237.89 612.372L1239.3 617.092V617.086Z" fill="#D8B4FE"/>
<path d="M1173.25 600.312C1172.97 600.386 1171.33 595.277 1171.64 595.145C1171.77 595.094 1172.1 595.941 1172.82 597.308C1173.13 599.202 1173.37 600.277 1173.25 600.312Z" fill="#D8B4FE"/>
<path d="M1133.19 718.347L1132.82 718.696L1132.42 718.25C1132.52 718.158 1132.62 718.061 1132.73 717.969C1132.88 718.089 1133.03 718.215 1133.19 718.347Z" fill="#D8B4FE"/>
<path d="M1180.4 695.204L1180.38 695.382C1180.37 695.353 1180.36 695.324 1180.34 695.296C1180.36 695.267 1180.38 695.233 1180.4 695.204Z" fill="#D8B4FE"/>
<path d="M1180.84 684.483V684.54L1180.78 684.483H1180.84Z" fill="#D8B4FE"/>
<path d="M1181.44 684.471C1181.43 684.511 1181.42 684.551 1181.41 684.591C1181.37 684.723 1181.33 684.86 1181.29 684.998L1181.26 684.969L1181.31 684.477H1181.4L1181.44 684.471Z" fill="#D8B4FE"/>
<path d="M1180.4 695.204L1180.38 695.382C1180.37 695.353 1180.36 695.324 1180.34 695.296C1180.36 695.267 1180.38 695.233 1180.4 695.204Z" fill="#D8B4FE"/>
<path d="M1181.41 684.591C1181.36 684.763 1181.31 684.94 1181.25 685.123L1181.31 684.477H1181.4L1181.41 684.591Z" fill="#D8B4FE"/>
<path d="M1180.4 695.204L1180.38 695.382C1180.37 695.353 1180.36 695.324 1180.34 695.296C1180.36 695.267 1180.38 695.233 1180.4 695.204Z" fill="#D8B4FE"/>
<path d="M1180.34 695.925L1180.38 695.382C1180.44 695.502 1180.5 695.611 1180.57 695.708L1180.34 695.925Z" fill="#D8B4FE"/>
<path d="M1180.4 695.204L1180.38 695.382C1180.37 695.353 1180.36 695.324 1180.34 695.296C1180.36 695.267 1180.38 695.233 1180.4 695.204Z" fill="#D8B4FE"/>
<path d="M1180.43 695.467L1180.42 695.851L1180.34 695.925L1180.38 695.382C1180.38 695.382 1180.41 695.439 1180.43 695.467Z" fill="#D8B4FE"/>
<path d="M1180.84 684.483V684.54L1180.78 684.483H1180.84Z" fill="#D8B4FE"/>
<path d="M1147.72 730.161C1147.54 730.316 1147.36 730.47 1147.18 730.625C1146.41 729.869 1145.51 729.068 1144.47 728.262C1143.6 727.587 1142.75 727.003 1141.95 726.505C1142.25 726.191 1142.54 725.882 1142.84 725.567L1147.72 730.161Z" fill="#D8B4FE"/>
<path d="M1184.82 609.689C1185.23 609.689 1185.56 609.351 1185.56 608.934C1185.56 608.516 1185.23 608.178 1184.82 608.178C1184.41 608.178 1184.07 608.516 1184.07 608.934C1184.07 609.351 1184.41 609.689 1184.82 609.689Z" fill="#D8B4FE"/>
<path d="M1201.38 749.247C1201.23 749.133 1201.09 749.03 1200.94 748.944C1201 748.893 1201.23 749.098 1201.38 749.247Z" fill="#D8B4FE" stroke="#DBC34C" stroke-width="0.14" stroke-miterlimit="10"/>
<path d="M1187.45 745.746C1184.94 747.708 1182.44 749.665 1179.93 751.627C1175.13 748.423 1170.34 745.219 1165.55 742.016C1166.41 741.924 1167.27 741.827 1168.12 741.73C1168.19 741.764 1168.25 741.804 1168.31 741.838C1168.27 741.787 1168.26 741.747 1168.28 741.712C1168.35 741.695 1168.43 741.678 1168.5 741.655C1170.66 741.123 1172.82 740.591 1174.98 740.059C1178.25 741.541 1181.51 743.023 1184.77 744.504H1184.78C1185.18 744.642 1185.54 744.796 1185.85 744.991H1185.85C1186.39 745.242 1186.91 745.494 1187.45 745.746Z" fill="#D8B4FE"/>
<path d="M1168.5 741.655C1168.43 741.678 1168.35 741.695 1168.28 741.712C1168.3 741.661 1168.37 741.649 1168.5 741.655Z" fill="#D8B4FE"/>
<path d="M1264 658.4C1257.95 653.994 1254.23 649.2 1252.16 646.03C1245.2 638.101 1241.13 630.812 1238.72 625.64C1235.25 618.219 1233.46 611.337 1232.14 606.37C1230.14 598.824 1230.28 596.902 1228.55 590.774C1227.93 588.36 1227.18 586.009 1226.43 583.663C1225.04 579.297 1222.72 572.026 1219.28 568.37C1212.64 556.453 1204.78 548.22 1200.34 543.963C1196.74 540.496 1190.3 534.369 1180.14 528.596C1165.34 520.14 1149.72 516.524 1148.56 518.549C1147.7 520.065 1155.81 523.327 1160.2 532.606C1161.87 536.148 1162.54 541.543 1162.75 543.402C1162.77 543.7 1162.46 543.906 1162.18 543.774C1159.32 542.538 1147.43 537.458 1138.97 535.301C1131 533.259 1117.67 530.993 1117.67 531.742C1117.67 532.492 1124.37 540.25 1126.64 547.539C1127.66 550.823 1128.23 555.863 1128.39 557.362C1128.41 557.568 1128.21 557.717 1127.98 557.66C1125.82 557.082 1116.26 554.513 1109.67 553.746C1104.21 553.106 1095.87 553.186 1093.4 553.203C1093.11 553.203 1092.97 553.5 1093.16 553.689C1094.6 555.245 1099.11 560.251 1101.36 564.674H1101.4C1103.09 568.004 1104.07 571.099 1104.64 573.656C1095.02 580.207 1088.14 589.682 1084.14 596.553C1075.85 606.731 1060.01 629.267 1056.59 661.563C1056.5 662.33 1056.38 663.491 1056.25 664.99C1055.84 669.905 1053.24 709.896 1080.44 745.986C1082.6 748.841 1085.92 752.978 1090.48 757.612C1090.49 757.595 1090.51 757.577 1090.53 757.555L1091.32 758.418L1110.21 740.665L1109.22 739.567C1109.02 739.224 1108.72 738.594 1108.68 737.759C1108.66 737.547 1108.64 736.712 1109.07 735.791C1109.51 734.881 1110.08 734.549 1111.08 733.645C1111.65 733.142 1112.42 732.392 1113.28 731.368C1109.59 728.067 1105.73 724.755 1101.72 721.448C1100.38 720.338 1099.04 719.251 1097.71 718.181C1096.6 719.743 1095.2 721.471 1093.43 723.216C1093.01 723.633 1092.59 724.028 1092.17 724.406L1080.91 689.643L1123.58 667.439C1122.52 670.683 1120.75 675.066 1118.44 680.798C1115.67 687.647 1112.93 693.116 1110.95 696.841C1115.98 701.006 1121.02 705.176 1126.05 709.347C1126.62 705.085 1127.03 701.183 1126.94 699.358C1126.49 699.524 1126.17 699.65 1126.03 699.49C1125.8 701.206 1125.67 701.252 1125.63 701.257C1125.54 701.269 1125.44 701.011 1125.43 700.988C1125.35 700.771 1125.66 699.69 1126.03 698.957C1126.03 698.957 1126.03 698.954 1126.03 698.946C1126.08 698.78 1126.16 698.649 1126.17 698.649C1126.17 698.649 1126.17 698.666 1126.16 698.706C1126.32 698.42 1126.49 698.237 1126.63 698.265C1126.81 698.305 1126.91 698.694 1126.94 699.358C1127.29 699.226 1127.71 699.078 1128.19 699.015C1129.05 698.9 1129.8 699.089 1130.33 699.284C1129.84 698.019 1129.23 696.16 1128.86 693.848C1128.53 691.726 1127.94 686.342 1130.6 679.03C1135.72 664.922 1146.62 660.865 1145.17 651.894C1145.02 650.99 1144.79 650.275 1144.63 649.841C1143.35 646.991 1140.3 646.162 1137 638.289C1135.34 634.393 1132.92 628.414 1134.43 621.234C1135.63 615.427 1139.09 610.347 1140.4 610.478C1141.87 610.627 1136.51 624.495 1140.91 634.691C1144.09 642.02 1149.37 646.276 1155.85 651.391C1160.59 655.121 1163.11 656.34 1186.46 668.578C1197.23 674.219 1206.01 678.922 1210.85 686.439C1213.62 690.747 1214.78 695.359 1214.78 695.359C1215.94 699.953 1214.78 706.361 1215.39 706.361C1216.01 706.361 1247.85 689.964 1247.3 689.38C1246.75 688.802 1241.47 689.454 1237.23 687.996C1232.77 686.457 1229.83 684.094 1228.32 682.692C1226.53 680.667 1224.49 678.006 1222.65 674.705C1220.19 670.242 1219.64 663.72 1218.33 663.011C1217.02 662.301 1213.78 663.76 1210.32 663.2C1206.38 662.559 1203.59 660.986 1202.12 660.03C1199.63 656.918 1196.96 653.113 1194.48 648.599C1191.44 643.067 1187.93 634.353 1188.15 633.621C1188.38 632.894 1191.56 632.179 1194.19 631.807C1200.12 630.943 1204.85 632.82 1209.29 634.673C1213.26 636.304 1219.41 639.416 1225.69 645.223C1227.3 648.261 1228.95 651.786 1230.42 655.796C1231.91 659.841 1232.79 666.569 1233.64 666.964C1234.52 667.342 1238.72 664.922 1243.65 665.86C1248.42 666.775 1251.28 669.476 1252.18 670.397C1253.5 672.268 1255.07 674.951 1256.19 678.395C1257.68 683.007 1256.84 689.1 1257.46 689.586C1260.1 691.691 1268.33 686.611 1273.38 680.421C1277.63 675.22 1279.28 669.67 1279.99 666.18C1279.01 665.58 1270.14 662.862 1264 658.4ZM1066.71 689.191C1066.69 689.163 1066.69 689.123 1066.7 689.077L1066.75 689.231C1066.75 689.231 1066.72 689.208 1066.71 689.191ZM1201.59 595.031C1201.64 598.864 1200.44 602.623 1197.71 605.175C1196.38 595.809 1193.62 585.488 1190.39 578.634C1194.18 580.127 1197.33 583.194 1199.08 586.054C1199.53 586.804 1199.94 587.61 1200.27 588.434C1200.3 588.434 1200.33 588.417 1200.37 588.411C1201.15 591.489 1201.58 593.24 1201.7 594.264C1201.73 594.51 1201.76 594.751 1201.78 594.985C1201.72 595.002 1201.65 595.02 1201.59 595.031Z" fill="#D8B4FE"/>
</g>
</g>
<defs>
<filter id="filter0_dddddd_246_2124" x="-43.98" y="-581.98" width="2490.96" height="2490.96" filterUnits="userSpaceOnUse" color-interpolation-filters="sRGB">
<feFlood flood-opacity="0" result="BackgroundImageFix"/>
<feColorMatrix in="SourceAlpha" type="matrix" values="0 0 0 0 0 0 0 0 0 0 0 0 0 0 0 0 0 0 127 0" result="hardAlpha"/>
<feOffset/>
<feGaussianBlur stdDeviation="13.095"/>
<feColorMatrix type="matrix" values="0 0 0 0 0.419608 0 0 0 0 0.129412 0 0 0 0 0.658824 0 0 0 1 0"/>
<feBlend mode="normal" in2="BackgroundImageFix" result="effect1_dropShadow_246_2124"/>
<feColorMatrix in="SourceAlpha" type="matrix" values="0 0 0 0 0 0 0 0 0 0 0 0 0 0 0 0 0 0 127 0" result="hardAlpha"/>
<feOffset/>
<feGaussianBlur stdDeviation="26.19"/>
<feColorMatrix type="matrix" values="0 0 0 0 0.419608 0 0 0 0 0.129412 0 0 0 0 0.658824 0 0 0 1 0"/>
<feBlend mode="normal" in2="effect1_dropShadow_246_2124" result="effect2_dropShadow_246_2124"/>
<feColorMatrix in="SourceAlpha" type="matrix" values="0 0 0 0 0 0 0 0 0 0 0 0 0 0 0 0 0 0 127 0" result="hardAlpha"/>
<feOffset/>
<feGaussianBlur stdDeviation="91.665"/>
<feColorMatrix type="matrix" values="0 0 0 0 0.419608 0 0 0 0 0.129412 0 0 0 0 0.658824 0 0 0 1 0"/>
<feBlend mode="normal" in2="effect2_dropShadow_246_2124" result="effect3_dropShadow_246_2124"/>
<feColorMatrix in="SourceAlpha" type="matrix" values="0 0 0 0 0 0 0 0 0 0 0 0 0 0 0 0 0 0 127 0" result="hardAlpha"/>
<feOffset/>
<feGaussianBlur stdDeviation="183.33"/>
<feColorMatrix type="matrix" values="0 0 0 0 0.419608 0 0 0 0 0.129412 0 0 0 0 0.658824 0 0 0 1 0"/>
<feBlend mode="normal" in2="effect3_dropShadow_246_2124" result="effect4_dropShadow_246_2124"/>
<feColorMatrix in="SourceAlpha" type="matrix" values="0 0 0 0 0 0 0 0 0 0 0 0 0 0 0 0 0 0 127 0" result="hardAlpha"/>
<feOffset/>
<feGaussianBlur stdDeviation="314.28"/>
<feColorMatrix type="matrix" values="0 0 0 0 0.419608 0 0 0 0 0.129412 0 0 0 0 0.658824 0 0 0 1 0"/>
<feBlend mode="normal" in2="effect4_dropShadow_246_2124" result="effect5_dropShadow_246_2124"/>
<feColorMatrix in="SourceAlpha" type="matrix" values="0 0 0 0 0 0 0 0 0 0 0 0 0 0 0 0 0 0 127 0" result="hardAlpha"/>
<feOffset/>
<feGaussianBlur stdDeviation="549.99"/>
<feColorMatrix type="matrix" values="0 0 0 0 0.419608 0 0 0 0 0.129412 0 0 0 0 0.658824 0 0 0 1 0"/>
<feBlend mode="normal" in2="effect5_dropShadow_246_2124" result="effect6_dropShadow_246_2124"/>
<feBlend mode="normal" in="SourceGraphic" in2="effect6_dropShadow_246_2124" result="shape"/>
</filter>
<clipPath id="clip0_246_2124">
<rect width="291" height="291" fill="white" transform="translate(1056 518)"/>
</clipPath>
</defs>
</svg>
