<svg width="338" height="92" viewBox="0 0 338 92" fill="none" xmlns="http://www.w3.org/2000/svg">
<path d="M35.9335 27.3169C35.3371 26.9025 34.8351 26.3745 34.5021 25.7562C34.4773 25.6109 34.4392 25.412 34.3994 25.1664C34.527 25.4103 34.696 25.7111 34.9196 26.0436C35.3553 26.6936 35.7364 27.083 35.9335 27.3169Z" fill="white"/>
<path d="M20.7996 54.652C20.7582 54.6436 20.7085 54.6971 20.6588 54.7806C20.6637 54.7689 20.6637 54.7639 20.6621 54.7639C20.6588 54.7639 20.6372 54.8024 20.6223 54.8508C20.6223 54.8508 20.6218 54.8519 20.6207 54.8542C20.513 55.068 20.4219 55.3839 20.445 55.4474C20.4484 55.454 20.4765 55.5292 20.5047 55.5259C20.5163 55.5242 20.5544 55.5109 20.6223 55.0096C20.6637 55.0564 20.7565 55.0196 20.8907 54.9711C20.8808 54.7773 20.8526 54.6637 20.7996 54.652Z" fill="white"/>
<path d="M6.00386 50.8406C6.00386 50.8406 6.01711 50.884 6.04196 50.9709C5.89948 51.1029 5.81499 51.1831 5.79843 51.1681C5.79511 51.1664 5.79346 51.1597 5.79346 51.153C5.79346 51.0862 5.89451 50.8573 6.00386 50.8406Z" fill="white"/>
<path d="M10.0513 48.284C10.5963 48.0735 10.8879 47.9832 11.0254 47.9548C10.6096 48.1921 10.1838 48.4294 9.75474 48.6667C7.52982 49.8931 3.29533 52.1122 3.19924 51.9417C3.11475 51.793 6.63686 49.5957 10.0513 48.284Z" fill="white"/>
<path d="M18.9361 42.9186C18.9493 42.9403 18.6677 43.1575 18.1558 43.5151C18.1756 43.4382 18.1955 43.3614 18.2137 43.2862C18.8085 42.9537 18.9278 42.9069 18.9361 42.9186Z" fill="white"/>
<path d="M34.5267 26.0436C34.5002 26.0503 34.4339 25.9066 34.3594 25.7044C34.3958 25.7011 34.4323 25.6994 34.4687 25.696C34.4787 25.7161 34.4903 25.7361 34.5018 25.7562C34.5333 25.9383 34.5466 26.0386 34.5267 26.0436Z" fill="white"/>
<path d="M66.0969 14.6595C66.3984 14.3704 66.3471 13.8875 65.9942 13.6753C63.9896 12.4655 61.6073 11.1989 58.7611 10.0944C55.4974 8.83454 52.5237 8.13775 50.1265 7.74341C50.9416 8.00073 52.0929 8.41513 53.4034 9.05343C54.906 9.78698 56.1535 10.589 57.1359 11.3226C58.2989 12.1814 59.4685 12.8716 60.8817 14.0061C62.038 14.9285 62.9823 15.7807 63.6947 16.4641C63.7908 16.5527 63.9316 16.546 64.1768 16.5075L66.1035 14.6645L66.0969 14.6578V14.6595Z" fill="white"/>
<path d="M28.6259 77.818L28.2979 77.7963L28.3244 77.8146L28.5364 77.9617L28.606 78.0101L28.7087 77.8598L28.7319 77.8263L28.6259 77.818Z" fill="white" stroke="#DBC34C" stroke-width="0.14" stroke-miterlimit="10"/>
<path d="M83.8514 35.1387C83.2881 33.583 82.975 32.7125 82.5609 31.8369C81.8286 30.2879 81.1262 29.1985 80.49 28.2193C79.7147 27.0313 78.6577 25.5257 77.2528 23.8448C77.1634 23.7311 76.9762 23.7194 76.8685 23.823L71.7709 28.8426C71.741 28.871 71.7228 28.9027 71.7112 28.9478C71.5787 29.516 71.4346 30.3147 71.3501 31.2738C71.2904 32.0073 71.3086 32.522 71.2904 33.1887C71.2076 35.9424 71.1529 38.0228 71.5124 38.0712C71.6085 38.0879 71.645 37.9576 72.1022 37.4045C72.3954 37.0419 72.7732 36.5824 73.3016 36.1663C73.4888 36.0193 73.8367 35.762 74.3222 35.5213C74.9534 35.2089 75.4338 34.9733 75.7701 35.1003C76.388 35.3242 76.3284 36.6877 76.3052 37.1355C75.9441 43.7808 73.6197 50.3276 72.5396 52.4848C71.297 54.9044 68.5403 59.4193 63.0948 63.2842C60.3166 65.2559 56.1036 66.6027 47.6346 69.2344C45.5721 69.6137 44.2351 69.5569 43.3836 69.4232C43.3836 69.4232 43.1434 69.3865 42.8733 69.3447L41.9621 69.089L39.3562 78.5383L28.7319 77.8264L28.7087 77.8599L28.606 78.0102L28.5364 77.9618L28.3243 77.8147L28.2978 77.7964L28.6258 77.8181L28.7319 77.8264L30.5874 75.0978L30.309 74.9056L30.2991 74.8973C30.1251 74.7536 30.0373 74.6834 30.0075 74.6633C29.3299 74.2105 28.6987 73.6858 28.0013 73.2647C27.4214 72.9155 26.6063 72.3624 25.6687 71.5069C25.5792 71.5871 25.4914 71.6656 25.4019 71.7458C25.339 71.8411 25.2611 71.9413 25.1667 72.0433C24.9132 72.3156 24.6432 72.4794 24.4377 72.5797C24.055 72.6348 23.8082 72.6682 23.8082 72.6682C23.8082 72.6682 23.2731 72.4226 22.4431 72.0399C21.522 72.9406 20.5793 73.8446 19.6151 74.7536C18.8978 75.4303 18.1821 76.0953 17.4697 76.7487C17.5774 76.8857 17.7514 77.0996 17.9816 77.3435C18.9409 78.3678 19.9001 78.9142 20.5015 79.2501C20.5015 79.2501 25.6256 82.1141 28.6242 83.0999C28.7998 83.1568 28.9787 83.2136 28.9787 83.2136C29.0334 83.232 29.093 83.2503 29.1543 83.2687C31.3014 83.9404 37.3433 85.6131 45.2805 85.3541C48.1565 85.2605 53.0437 85.0416 58.9167 82.9947C62.7105 81.6713 66.5407 79.596 70.8647 76.2407C73.8069 73.9582 80.7352 67.9595 84.0502 57.8703C84.0502 57.8703 87.8738 46.2338 83.8514 35.1387ZM39.999 81.1299L39.714 81.0497L40.0636 81.0731C40.042 81.0898 40.0205 81.1082 39.999 81.1299ZM42.5188 79.5809L42.5287 79.4372C42.6232 79.4473 42.7176 79.459 42.812 79.469C42.7159 79.5041 42.6182 79.5408 42.5188 79.5809ZM42.6811 69.4533C42.6994 69.4383 42.7656 69.4984 42.812 69.5419C42.7673 69.5084 42.7242 69.4784 42.6811 69.4533Z" fill="white"/>
<path d="M28.6078 77.848C28.6409 77.8514 28.6757 77.8547 28.7088 77.8597L28.6061 78.0101L28.5365 77.9617L28.3245 77.8146C28.2549 77.8079 28.1853 77.7996 28.1157 77.7912V77.7845L28.298 77.7962L28.626 77.818C28.621 77.828 28.6144 77.838 28.6078 77.848Z" fill="white" stroke="#DBC34C" stroke-width="0.14" stroke-miterlimit="10"/>
<path d="M40.0634 81.0731C40.0419 81.0898 40.0204 81.1082 39.9988 81.1299L39.7139 81.0497L40.0634 81.0731Z" fill="white" stroke="#DBC34C" stroke-width="0.14" stroke-miterlimit="10"/>
<path d="M42.812 69.5418C42.7673 69.5084 42.7242 69.4783 42.6812 69.4533C42.6994 69.4382 42.7656 69.4984 42.812 69.5418Z" fill="white" stroke="#DBC34C" stroke-width="0.14" stroke-miterlimit="10"/>
<path d="M42.5285 79.4371C42.6229 79.4472 42.7174 79.4589 42.8118 79.4689C42.7157 79.504 42.618 79.5407 42.5186 79.5808L42.5285 79.4371Z" fill="white" stroke="#DBC34C" stroke-width="0.14" stroke-miterlimit="10"/>
<path d="M36.7451 50.6267L36.7617 50.6434V50.6267H36.7451Z" fill="white"/>
<path d="M22.594 60.4067C22.5626 60.4335 22.5328 60.4619 22.5029 60.4886L22.6222 60.619L22.7316 60.517C22.6835 60.4786 22.6388 60.4418 22.594 60.4067Z" fill="white"/>
<path d="M34.295 66.3035C35.3403 64.7244 36.5961 63.0317 38.0971 61.299C38.4102 60.938 39.7736 59.3774 41.7832 57.4892C43.1864 56.1692 44.4819 55.088 45.5687 54.2359C45.3765 53.8816 45.181 53.524 44.9773 53.1631C44.5764 52.4513 44.1721 51.7679 43.7662 51.1078C43.14 50.376 42.5337 49.8814 42.0847 49.5605C41.6109 49.2213 41.2249 49.0158 40.5191 48.6365C40.0834 48.4026 39.5019 48.0935 38.6984 47.7726C38.0474 47.5103 37.991 47.5387 37.6547 47.3866C37.161 47.1627 36.4951 46.745 35.8241 45.8978C35.4132 46.3841 35.0007 46.8703 34.5882 47.3566C33.4501 48.6532 32.0701 50.0501 30.4117 51.4454C27.481 53.9134 24.5868 55.6144 22.1912 56.7841C22.0421 57.2486 21.8748 57.7682 21.7241 58.2344C21.5683 58.7173 21.4143 59.2019 21.2585 59.6865C19.0154 57.9771 16.7722 56.2694 14.5291 54.56L17.9982 47.9046L8.90298 53.0812L11.0749 59.9305L12.0954 59.0164C12.9238 59.6832 13.7604 60.3499 14.6053 61.0166C15.8909 62.0342 17.1732 63.0351 18.4471 64.0209C18.1059 64.6526 17.7629 65.2842 17.4217 65.9158C17.6453 66.1798 17.8706 66.4421 18.0943 66.7062C13.7074 71.2077 9.31881 75.7076 4.93191 80.2091C4.83748 80.2174 2.87265 80.4096 2.08904 82.007C1.37998 83.4524 2.16691 84.9646 2.93726 85.7466C3.84181 86.669 5.56973 87.4476 7.14027 86.6807C8.35296 86.0892 9.07859 84.7658 8.96594 83.3521C13.5964 78.996 18.2285 74.6381 22.8589 70.282C22.9252 70.3204 22.9914 70.3605 23.0593 70.4006C23.5216 70.6797 23.954 70.9704 24.3565 71.2662C24.7442 71.0139 25.1368 70.7532 25.5328 70.4842C25.8045 70.3004 26.0695 70.1182 26.3313 69.9344C26.9923 70.5777 27.7146 71.2378 28.5016 71.9045C29.6115 72.8452 30.6983 73.6707 31.7304 74.3892C31.5333 74.7334 31.3279 75.0843 31.1125 75.4402C30.869 75.8412 30.6254 76.2289 30.3819 76.6032C33.0061 76.7887 35.6303 76.9741 38.2561 77.1579C39.3446 73.7074 40.433 70.2553 41.5198 66.8047C41.2597 67.0387 38.932 69.1307 38.6637 69.3713C38.4996 69.5184 36.5779 71.2461 36.4106 71.3948C34.5866 70.0113 32.7609 68.6277 30.9369 67.2442C30.9518 67.2392 32.2092 66.8866 32.2241 66.8833C32.2622 66.8716 34.2552 66.3135 34.295 66.3035ZM36.7469 52.5114L36.7601 52.3811H36.785H36.7982C36.7949 52.3928 36.7916 52.4028 36.7883 52.4129C36.7767 52.4479 36.7668 52.4847 36.7552 52.5215C36.7518 52.5315 36.7469 52.5432 36.7436 52.5549L36.7469 52.5131V52.5114ZM36.6292 52.3828V52.3978L36.6143 52.3828H36.6292ZM36.4901 55.2384C36.4901 55.2384 36.5017 55.2217 36.5067 55.215L36.5017 55.2618C36.5017 55.2618 36.51 55.2769 36.5149 55.2852C36.5265 55.3069 36.5398 55.3287 36.553 55.3487L36.5116 55.3855L36.4901 55.4055L36.5017 55.2618C36.4967 55.2535 36.4934 55.2468 36.4901 55.2384ZM22.622 60.6189L22.5027 60.4886C22.5325 60.4618 22.5623 60.4334 22.5938 60.4067C22.6386 60.4418 22.6833 60.4785 22.7313 60.517L22.622 60.6189ZM27.0105 63.9675C26.9575 64.0126 26.9045 64.0577 26.8515 64.1028C26.6245 63.8823 26.3578 63.6483 26.0513 63.4127C25.7945 63.2155 25.5444 63.0451 25.3091 62.8997C25.3969 62.8078 25.4831 62.7176 25.5709 62.6257C28.2116 59.8569 30.8557 57.0865 33.4965 54.3177C34.4209 54.1306 35.3437 53.9451 36.2681 53.758C36.1853 54.5851 36.1024 55.4122 36.0196 56.2393C33.016 58.8159 30.0141 61.3909 27.0105 63.9675Z" fill="white"/>
<path d="M22.7316 60.517L22.6222 60.619L22.5029 60.4886C22.5328 60.4619 22.5626 60.4335 22.594 60.4067C22.6388 60.4418 22.6835 60.4786 22.7316 60.517Z" fill="white"/>
<path d="M36.6328 53.7581L36.6278 53.8099C36.6228 53.8015 36.6195 53.7931 36.6162 53.7848C36.6212 53.7764 36.6278 53.7664 36.6328 53.7581Z" fill="white"/>
<path d="M36.6143 53.9686L36.6275 53.8098C36.6441 53.8449 36.6623 53.8766 36.6822 53.9051L36.6143 53.9686Z" fill="white"/>
<path d="M41.6853 39.4096C41.3076 40.9252 43.5441 42.5494 44.0097 42.8869C44.7237 43.4049 45.3201 43.8377 46.1915 43.8995C47.2203 43.973 47.7306 43.4617 48.2939 43.8093C48.5805 43.9864 48.7561 44.4977 49.0924 45.5119C49.4784 46.6716 49.4684 46.9473 49.7451 47.0726C50.2338 47.2949 51.1052 46.8153 51.415 46.1503C51.5178 45.9297 51.5774 45.6473 51.4879 45.0157C51.3289 43.8995 50.9031 43.0824 50.7623 42.8167C49.7269 40.8667 49.2083 39.8909 49.1653 39.8357C48.1911 38.6009 45.9695 36.5791 44.1555 37.1388C43.4133 37.3677 42.7141 38.0361 42.5733 38.1748C42.1542 38.5859 41.8046 38.9284 41.6853 39.408V39.4096Z" fill="white"/>
<path d="M53.9764 30.9446C54.8097 32.6607 55.8352 34.5221 57.1009 36.4571C57.8878 37.6601 58.6814 38.7613 59.4617 39.7639L81.8186 16.8886L82.6519 6.82947L72.793 8.41353L53.5605 29.5677L53.9764 30.9463V30.9446Z" fill="white"/>
<path d="M34.5267 26.0437C34.4439 26.0654 33.9618 24.5733 34.0529 24.5348C34.091 24.5198 34.1888 24.7671 34.3992 25.1664C34.4903 25.7195 34.5632 26.0337 34.5267 26.0437Z" fill="white"/>
<path d="M22.7316 60.517L22.6222 60.619L22.5029 60.4886C22.5328 60.4619 22.5626 60.4335 22.594 60.4067C22.6388 60.4418 22.6835 60.4786 22.7316 60.517Z" fill="white"/>
<path d="M36.6328 53.7581L36.6278 53.8099C36.6228 53.8015 36.6195 53.7931 36.6162 53.7848C36.6212 53.7764 36.6278 53.7664 36.6328 53.7581Z" fill="white"/>
<path d="M36.7617 50.6267V50.6434L36.7451 50.6267H36.7617Z" fill="white"/>
<path d="M36.9392 50.6233C36.9359 50.635 36.9326 50.6467 36.9293 50.6584C36.9177 50.6968 36.9061 50.7369 36.8945 50.777L36.8862 50.7687L36.8995 50.625H36.926L36.9392 50.6233Z" fill="white"/>
<path d="M36.6328 53.7581L36.6278 53.8099C36.6228 53.8015 36.6195 53.7931 36.6162 53.7848C36.6212 53.7764 36.6278 53.7664 36.6328 53.7581Z" fill="white"/>
<path d="M36.9292 50.6584C36.9143 50.7085 36.8994 50.7603 36.8828 50.8138L36.8994 50.625H36.9259L36.9292 50.6584Z" fill="white"/>
<path d="M36.6328 53.7581L36.6278 53.8099C36.6228 53.8015 36.6195 53.7931 36.6162 53.7848C36.6212 53.7764 36.6278 53.7664 36.6328 53.7581Z" fill="white"/>
<path d="M36.6143 53.9686L36.6275 53.8098C36.6441 53.8449 36.6623 53.8766 36.6822 53.9051L36.6143 53.9686Z" fill="white"/>
<path d="M36.6328 53.7581L36.6278 53.8099C36.6228 53.8015 36.6195 53.7931 36.6162 53.7848C36.6212 53.7764 36.6278 53.7664 36.6328 53.7581Z" fill="white"/>
<path d="M36.6408 53.8349L36.6375 53.9468L36.6143 53.9686L36.6275 53.8098C36.6275 53.8098 36.6358 53.8265 36.6408 53.8349Z" fill="white"/>
<path d="M36.7617 50.6267V50.6434L36.7451 50.6267H36.7617Z" fill="white"/>
<path d="M27.0105 63.9675C26.9575 64.0126 26.9045 64.0577 26.8515 64.1029C26.6245 63.8823 26.3578 63.6484 26.0513 63.4128C25.7945 63.2156 25.5443 63.0451 25.3091 62.8998C25.3969 62.8079 25.483 62.7176 25.5708 62.6257L27.0105 63.9675Z" fill="white"/>
<path d="M37.933 28.7823C38.0538 28.7823 38.1517 28.6836 38.1517 28.5618C38.1517 28.4399 38.0538 28.3412 37.933 28.3412C37.8123 28.3412 37.7144 28.4399 37.7144 28.5618C37.7144 28.6836 37.8123 28.7823 37.933 28.7823Z" fill="white"/>
<path d="M28.7319 77.8263L28.7087 77.8598L28.606 78.0101L28.5364 77.9617L28.3244 77.8146L28.2979 77.7963L28.6259 77.818L28.7319 77.8263Z" fill="white" stroke="#DBC34C" stroke-width="0.14" stroke-miterlimit="10"/>
<path d="M40.0634 81.0731C40.0419 81.0898 40.0204 81.1082 39.9988 81.1299L39.7139 81.0497L40.0634 81.0731Z" fill="white" stroke="#DBC34C" stroke-width="0.14" stroke-miterlimit="10"/>
<path d="M42.812 69.5418C42.7673 69.5084 42.7242 69.4783 42.6812 69.4533C42.6994 69.4382 42.7656 69.4984 42.812 69.5418Z" fill="white" stroke="#DBC34C" stroke-width="0.14" stroke-miterlimit="10"/>
<path d="M38.7083 68.5192C37.9694 69.0923 37.2322 69.6638 36.4933 70.2369C35.0818 69.3012 33.6703 68.3655 32.2588 67.4297C32.5123 67.403 32.7657 67.3746 33.0176 67.3462C33.0358 67.3562 33.054 67.3679 33.0722 67.3779C33.0606 67.3629 33.0573 67.3512 33.0623 67.3412C33.0838 67.3362 33.107 67.3312 33.1285 67.3245C33.7647 67.1691 34.4009 67.0137 35.037 66.8583C35.9979 67.2911 36.9588 67.7238 37.9197 68.1566H37.9213C38.0406 68.1967 38.145 68.2418 38.2361 68.2986H38.2378C38.3951 68.3722 38.5509 68.4457 38.7083 68.5192Z" fill="white"/>
<path d="M33.1288 67.3245C33.1072 67.3312 33.084 67.3362 33.0625 67.3412C33.0691 67.3262 33.0907 67.3228 33.1288 67.3245Z" fill="white"/>
<path d="M61.2509 43.0088C59.4683 41.7221 58.3749 40.3219 57.7636 39.3962C55.7159 37.0802 54.5148 34.9514 53.8058 33.4409C52.7853 31.2737 52.2568 29.2635 51.8675 27.8131C51.281 25.6092 51.3208 25.0477 50.8105 23.2581C50.6299 22.553 50.4079 21.8662 50.1876 21.1811C49.7767 19.9062 49.0942 17.7824 48.0819 16.7147C46.1271 13.2341 43.8127 10.8296 42.5055 9.58643C41.4436 8.57384 39.5467 6.78425 36.5564 5.09826C32.1977 2.6286 27.597 1.57256 27.2558 2.16408C27.0039 2.60688 29.3929 3.55932 30.6834 6.2696C31.1755 7.30391 31.3743 8.87962 31.4339 9.42268C31.4405 9.50957 31.3511 9.56972 31.2666 9.53129C30.425 9.17036 26.9244 7.68656 24.4328 7.05661C22.0852 6.46009 18.1589 5.79839 18.1589 6.01728C18.1589 6.23618 20.1337 8.50199 20.8013 10.6308C21.1012 11.5899 21.2685 13.062 21.3165 13.4998C21.3232 13.5599 21.2635 13.6034 21.1973 13.5867C20.5611 13.4179 17.7447 12.6677 15.8048 12.4438C14.1961 12.2566 11.7409 12.28 11.0136 12.285C10.9291 12.285 10.8877 12.3719 10.9424 12.427C11.3682 12.8815 12.6952 14.3436 13.3562 15.6353H13.3678C13.8664 16.6078 14.1547 17.5117 14.3237 18.2587C11.4908 20.1719 9.46297 22.939 8.28672 24.9458C5.84643 27.9184 1.1812 34.5003 0.172284 43.9328C0.147434 44.1567 0.110987 44.4959 0.0745397 44.9337C-0.0463982 46.369 -0.811786 58.049 7.19828 68.5893C7.83279 69.4231 8.81189 70.6312 10.1522 71.9847C10.1571 71.9797 10.1637 71.9746 10.1687 71.968L10.4007 72.2203L15.9638 67.0353L15.6706 66.7145C15.6126 66.6142 15.5248 66.4304 15.5115 66.1865C15.5082 66.1247 15.4999 65.8807 15.6291 65.6117C15.7567 65.346 15.924 65.2491 16.2206 64.9851C16.3863 64.838 16.6149 64.6191 16.8683 64.32C15.7799 63.3559 14.6451 62.3884 13.4639 61.4226C13.0696 61.0984 12.6753 60.781 12.2826 60.4685C11.9563 60.9247 11.5438 61.4293 11.0236 61.9389C10.8977 62.0609 10.7734 62.1762 10.6508 62.2865L7.33579 52.1338L19.9001 45.6489C19.5886 46.5963 19.0668 47.8762 18.3859 49.5505C17.5708 51.5506 16.764 53.1481 16.1808 54.2359C17.6636 55.4523 19.1463 56.6704 20.629 57.8886C20.7947 56.6437 20.9156 55.5041 20.8908 54.9711C20.7566 55.0195 20.6638 55.0563 20.6224 55.0095C20.5545 55.5108 20.5164 55.5242 20.5048 55.5258C20.4766 55.5292 20.4484 55.454 20.4451 55.4473C20.4219 55.3838 20.5131 55.068 20.6207 54.8541C20.6207 54.8541 20.6213 54.853 20.6224 54.8508C20.6373 54.8023 20.6588 54.7639 20.6622 54.7639C20.6638 54.7639 20.6638 54.7689 20.6588 54.7806C20.7085 54.697 20.7582 54.6436 20.7997 54.6519C20.8527 54.6636 20.8808 54.7772 20.8908 54.9711C20.9918 54.9326 21.1161 54.8892 21.2586 54.8708C21.512 54.8374 21.7324 54.8925 21.8881 54.9494C21.744 54.5801 21.5634 54.037 21.4557 53.3619C21.358 52.742 21.1857 51.1697 21.9676 49.0342C23.4752 44.9136 26.6859 43.7289 26.2584 41.1089C26.2154 40.8449 26.1458 40.636 26.0994 40.509C25.7233 39.6769 24.8237 39.4346 23.8513 37.1354C23.3642 35.9975 22.6502 34.2513 23.0942 32.1543C23.4487 30.4583 24.4692 28.9745 24.8536 29.0129C25.286 29.0563 23.7071 33.1067 25.0043 36.0843C25.9404 38.2248 27.496 39.468 29.4045 40.9618C30.7978 42.0513 31.5416 42.4072 38.4168 45.9814C41.5877 47.6289 44.1755 49.0024 45.5986 51.1981C46.4153 52.4563 46.7566 53.8031 46.7566 53.8031C47.0995 55.1449 46.7566 57.0163 46.9372 57.0163C47.1177 57.0163 56.4962 52.2274 56.3339 52.0569C56.1715 51.8882 54.6176 52.0787 53.3684 51.6526C52.053 51.2031 51.1882 50.513 50.7442 50.1036C50.2157 49.5121 49.616 48.7351 49.0743 47.771C48.3487 46.4676 48.1863 44.5627 47.802 44.3555C47.4176 44.1483 46.4634 44.5744 45.4428 44.4107C44.2832 44.2235 43.4614 43.764 43.0291 43.485C42.2968 42.576 41.5099 41.4648 40.7776 40.1464C39.883 38.5306 38.8492 35.9858 38.9155 35.7719C38.9818 35.5597 39.9178 35.3508 40.6931 35.2422C42.4409 34.9899 43.8325 35.5379 45.1413 36.0793C46.3076 36.5555 48.12 37.4645 49.9689 39.1606C50.4444 40.0478 50.9298 41.0771 51.3622 42.2485C51.8012 43.4298 52.0596 45.3949 52.3115 45.5102C52.5699 45.6204 53.8058 44.9136 55.2587 45.1877C56.6636 45.455 57.5052 46.2437 57.7686 46.5127C58.1595 47.0591 58.6218 47.8428 58.9514 48.8487C59.3905 50.1955 59.1436 51.9751 59.3242 52.1171C60.1012 52.732 62.5249 51.2482 64.0143 49.4402C65.2634 47.9213 65.7488 46.3005 65.9592 45.2812C65.671 45.1058 63.0584 44.3121 61.2509 43.0088ZM3.15432 52.0018C3.14935 51.9934 3.14935 51.9817 3.151 51.9684L3.16591 52.0135C3.16591 52.0135 3.15597 52.0068 3.15432 52.0018ZM42.8717 24.5013C42.8866 25.6209 42.5337 26.7187 41.7286 27.4639C41.3376 24.7286 40.5258 21.7142 39.5732 19.7124C40.6898 20.1485 41.6176 21.0441 42.1344 21.8796C42.2653 22.0985 42.3863 22.3341 42.4823 22.5747C42.4923 22.5747 42.5022 22.5697 42.5122 22.568C42.7441 23.467 42.8684 23.9783 42.9048 24.2774C42.9131 24.3493 42.9214 24.4194 42.928 24.488C42.9098 24.493 42.8899 24.498 42.8717 24.5013Z" fill="white"/>
<path d="M337.705 9.81543C337.117 10.1112 336.529 10.4086 335.943 10.1112H328.3C325.655 10.1112 325.949 10.1112 325.949 12.1865V40.3487C325.949 42.1266 325.068 43.0172 323.304 43.0172H317.131C315.564 43.0172 314.78 42.2268 314.78 40.6461V13.0754C314.78 10.9015 313.703 9.81543 311.548 9.81543H304.494C303.317 9.81543 302.731 9.51967 302.731 8.3333V1.81158C302.731 1.21839 302.731 0.625207 303.319 0.329449C303.612 0.0336914 304.2 0.0336914 304.789 0.0336914H335.943C336.824 0.0336914 337.705 0.0336914 338 0.922636V1.51582C337.707 3.29371 337.707 5.36903 337.707 7.14859V9.8171L337.705 9.81543Z" fill="white"/>
<path d="M211.915 0.0319824C212.208 0.625169 212.208 1.51411 212.208 2.40306V40.6427C212.208 43.0138 212.208 43.3112 209.562 43.0138C206.916 42.7164 204.272 43.0138 201.92 43.0138C200.45 43.0138 199.862 42.718 199.862 41.2359V1.81154C199.862 1.21836 199.862 0.625169 200.156 0.0336534H211.911L211.915 0.0319824Z" fill="white"/>
<path d="M338 1.21836C337.412 0.329411 336.53 0.625169 335.649 0.625169H303.614V0.0319824H337.119C337.707 0.0319824 338 0.32774 338 1.21836Z" fill="white"/>
<path d="M151.958 0.329411V0.0319824H163.713V0.32774C163.42 0.623498 162.832 0.920927 162.244 0.920927H153.72C153.132 1.21669 152.544 0.920927 151.958 0.32774V0.329411Z" fill="white"/>
<path d="M135.794 0.0319824V0.32774C135.5 0.623498 135.206 0.623498 135.206 0.623498C132.267 0.919256 129.033 0.919256 126.094 0.623498C125.801 0.623498 125.506 0.32774 125.212 0.32774V0.0319824H135.794Z" fill="white"/>
<path d="M185.757 0.329449L196.044 0.0336914V0.329449C195.75 0.625207 195.162 0.922636 194.574 0.922636H187.227C186.639 0.922636 186.345 0.922636 185.757 0.329449Z" fill="white"/>
<path d="M270.401 0.0319824V0.32774C270.107 0.623498 269.519 0.920927 268.931 0.920927H261.584C260.996 0.920927 260.407 0.625169 260.114 0.32774V0.0319824H270.401Z" fill="white"/>
<path d="M288.917 0.329449L298.911 0.0336914V0.329449C298.911 0.625207 298.617 0.625207 298.322 0.922636C295.384 1.21839 292.445 1.21839 289.211 0.922636C289.211 0.626878 288.917 0.626878 288.917 0.329449Z" fill="white"/>
<path d="M337.705 9.81539C337.705 7.14688 337.705 4.48005 337.998 2.1073V9.81539H337.705Z" fill="white"/>
<path d="M125.212 0.625188H135.793C136.382 0.920946 136.087 1.81156 136.087 2.40308V20.1887C136.087 20.7818 136.087 21.375 136.38 21.9665C136.968 21.6708 137.261 21.0776 137.556 20.4844C141.671 14.2585 146.08 8.32993 150.193 2.10565C150.487 1.51246 151.075 0.623517 151.956 0.327759H163.712C164.593 0.920946 163.712 1.51413 163.419 1.80989C159.01 8.3316 154.602 15.1491 150.193 21.6708C149.312 22.5597 149.312 24.3393 150.193 25.2282C161.949 42.1249 173.705 59.0215 185.463 75.9182C188.695 80.6603 192.222 85.6999 195.456 90.4437C195.749 90.7395 196.044 91.3327 195.749 91.6301H184.286C183.405 91.6301 182.524 91.3343 181.935 90.4437L156.071 53.3887C151.663 47.1628 147.254 40.9385 142.846 34.4168C142.258 33.5278 141.67 33.5278 141.083 34.4168L136.675 41.5317C136.382 42.1249 136.087 42.7181 136.382 43.3096V90.1463H136.97L149.902 50.4245C150.783 51.0177 151.371 51.9066 151.959 52.7956C154.31 56.353 156.661 59.9105 159.307 63.1705C159.895 63.7637 159.895 64.9484 159.6 65.839C158.424 68.8032 157.249 71.7675 155.78 74.7318C155.192 75.9182 155.486 76.2139 156.661 76.2139H166.654C167.536 76.2139 168.124 76.2139 168.712 76.8071C170.769 79.7714 172.827 82.4399 174.885 85.4041C174.296 85.9973 173.708 85.6999 173.415 85.6999H153.724C151.373 85.6999 151.373 85.9957 150.197 88.071C148.139 92.5174 149.609 91.6284 144.907 91.6284H126.978C125.509 91.6284 125.216 91.3327 125.216 89.8505V76.2139C125.216 74.7318 124.922 74.436 123.453 74.436H109.639C108.17 74.436 107.582 74.7318 107.582 76.5113V89.5548C107.582 90.9383 106.896 91.6301 105.524 91.6301H98.1768C97.0005 91.6301 96.4141 91.3343 96.4141 89.8522V50.1304C96.4141 48.944 96.7073 48.6483 97.8836 48.6483H106.112C107.289 48.6483 107.582 49.2415 107.582 50.4262V62.5806C107.582 64.0628 107.875 64.3585 109.344 64.3585H123.158C124.627 64.3585 124.921 64.0628 124.921 62.5806V2.40475C125.214 2.10899 125.214 1.21837 125.214 0.626859L125.212 0.625188Z" fill="white"/>
<path d="M185.757 0.329468H196.044C196.337 0.922655 196.632 1.51584 196.337 2.10736V40.6445C196.337 42.028 195.553 42.7198 193.986 42.7198H187.52C186.344 43.0155 185.169 42.424 184.581 41.2376C179.585 34.1227 174.295 27.0095 169.298 19.8946C169.005 19.5989 169.005 19.0057 168.122 19.0057V45.0925C167.534 44.7968 166.946 44.2036 166.653 43.6104L158.129 31.4559C157.541 30.567 157.248 29.678 157.248 28.4916V17.8193C157.248 16.9303 157.541 16.0414 158.129 15.1508L167.241 1.51417C168.122 0.0320388 168.417 0.0320388 169.592 1.51417L184.286 21.0793C184.58 21.6725 185.168 22.2657 186.049 22.5614V2.40479C185.168 1.8116 185.461 0.922655 185.756 0.329468H185.757Z" fill="white"/>
<path d="M288.917 0.329468H298.911C299.499 0.922655 299.499 1.51584 299.499 2.10736V41.2376C299.499 42.7198 298.911 43.313 297.441 43.313H290.094C288.624 43.313 288.036 42.7198 288.036 41.5351V28.7891C288.036 26.418 288.036 26.1206 285.685 26.1206H272.753C271.381 26.1206 270.696 26.9109 270.696 28.4916V41.2376C270.696 42.8184 269.912 43.6087 268.345 43.6087H261.585C260.214 43.6087 259.528 42.9169 259.528 41.5334V2.40479C259.528 1.8116 259.235 0.922655 259.821 0.329468H270.107C270.696 0.922655 270.401 1.51584 270.401 2.10736V13.9644C270.401 15.4465 270.694 16.0397 272.163 16.0397H285.977C287.446 16.0397 287.74 15.4465 287.74 14.2618V2.40479C288.328 1.8116 288.033 0.922655 288.916 0.329468H288.917Z" fill="white"/>
<path d="M246.301 18.4124H254.53C255.706 18.4124 256.292 18.7082 256.292 19.8946V33.5312C256.292 34.4201 255.704 35.6065 254.823 36.1997C248.064 42.7214 238.071 44.7967 229.254 41.535C220.142 38.5708 214.559 29.9737 215.44 19.0056C216.322 9.51965 223.669 2.10899 232.781 0.626859C239.835 -1.15103 247.182 0.922616 252.179 5.9622C255.706 9.51965 255.706 9.81541 251.297 12.1882C250.121 12.7813 248.652 13.3745 247.477 14.2635C246.303 15.1524 246.008 14.8567 245.42 13.9677C242.774 10.1145 238.072 8.63238 233.664 10.4103C227.786 13.0788 224.847 19.8962 227.491 25.8248C230.137 31.7533 236.896 34.7176 242.774 32.0507C243.067 32.0507 243.067 31.755 243.362 31.755L244.243 31.4592C245.125 30.866 245.42 29.6813 245.125 28.7907C244.831 27.6043 243.948 27.9018 243.362 27.9018H237.484C236.308 27.9018 236.015 27.606 236.015 26.4196V19.8979C236.015 18.7115 236.603 18.12 237.777 18.12L246.301 18.4158V18.4124Z" fill="white"/>
<path d="M237.484 65.5448C238.072 65.5448 238.365 64.9517 238.66 64.3585C242.187 59.9121 245.419 55.1683 248.946 50.7219C249.535 49.5355 251.004 48.944 252.179 48.944H263.346C263.64 49.5372 263.346 49.8329 263.053 50.1303C258.351 55.7631 253.648 61.6916 248.652 67.3244C247.77 68.2134 247.77 69.3997 248.358 70.2887C248.358 70.2887 248.358 70.5844 248.652 70.5844C253.353 76.8104 258.35 83.0347 263.053 89.5564L264.523 91.3343C263.934 91.9275 263.053 91.63 262.465 91.63H253.06C251.884 91.9258 250.709 91.0368 250.121 90.1479C247.182 85.9973 244.243 81.8483 241.597 77.6977C241.304 77.1045 241.009 76.5113 240.128 76.2155C238.07 77.4019 236.896 79.773 237.189 82.4415C237.482 85.11 237.189 87.7768 237.189 90.1496C237.189 91.3359 236.896 91.9275 235.719 91.9275H228.372C226.021 91.9275 226.314 91.9275 226.314 89.8521V51.315C226.314 49.8329 226.608 49.2397 228.077 49.5372H235.719C237.189 49.5372 237.482 49.8329 237.482 51.315V64.3585C237.189 64.6542 236.894 64.9517 237.482 65.5448H237.484Z" fill="white"/>
<path d="M282.451 91.9275C276.573 92.2232 270.989 90.4453 266.287 87.1853C264.524 85.9989 264.524 85.7032 265.699 83.9253C266.875 82.1474 268.05 80.3678 269.226 78.59C269.814 77.701 270.402 77.4036 271.284 78.2942C274.223 80.9627 278.043 82.7406 281.865 82.7406C283.628 83.0363 285.392 82.7406 287.155 81.8516C288.331 81.5559 288.917 80.6653 288.917 79.4806C288.917 78.2959 288.036 77.7027 287.155 77.1095C284.509 76.2205 281.57 75.3316 278.926 75.0342C275.399 74.441 272.167 72.9589 269.521 70.8835C264.819 66.1414 264.819 58.4333 269.521 53.6895C270.109 53.0963 270.99 52.5031 271.578 51.9116C278.633 47.7609 285.98 48.3541 293.327 51.3184C294.797 51.9116 296.56 52.8005 297.736 53.6895C298.617 54.2827 298.912 54.8758 298.029 56.0605C296.56 57.8384 295.383 59.618 294.209 61.3959C293.621 62.2848 292.739 62.2848 291.858 61.6916C288.626 59.6163 284.804 58.4316 280.983 58.4316C280.102 58.4316 278.926 58.7274 278.045 59.0248C276.868 59.618 276.575 60.8027 276.868 61.9891C277.162 62.5823 277.456 62.878 278.045 63.1754C279.807 64.0644 281.865 64.6576 283.922 64.9533C286.861 65.5465 289.507 66.4355 292.446 67.3244C296.561 68.8065 299.5 72.6598 299.793 77.1061C300.382 82.1457 298.031 87.1853 293.621 89.8521C290.388 91.63 286.273 92.2232 282.453 91.9275H282.451Z" fill="white"/>
<path d="M204.566 91.9275H202.215C200.452 91.9275 198.983 91.0385 198.1 89.5564C193.398 82.7389 188.695 75.9198 183.993 69.3981C183.112 68.2117 182.817 66.7295 183.405 65.5448C185.756 56.0589 191.929 51.3167 201.039 49.5372C208.974 47.7593 217.203 51.315 221.611 58.4299C222.788 60.2078 222.788 60.5053 220.73 61.3942C218.672 62.2832 216.91 63.1721 214.852 64.3585C214.264 64.9517 213.383 64.6542 213.089 64.0627C213.089 64.0627 213.089 63.767 212.796 63.767C210.445 59.6163 205.449 57.541 201.04 59.3206C196.632 60.8027 193.398 64.9533 193.398 69.6955C192.81 75.9214 197.218 81.5525 203.391 82.1457H204.861C208.093 82.1457 211.033 80.3678 212.503 77.6993C213.384 76.513 213.972 76.2172 215.442 76.8104C216.911 77.4036 218.969 78.5883 220.732 79.4789C222.494 80.3678 222.789 80.6653 221.613 82.4431C218.086 88.9649 211.327 92.2249 204.566 91.9291V91.9275Z" fill="white"/>
</svg>
