<svg width="52" height="48" viewBox="0 0 52 48" fill="none" xmlns="http://www.w3.org/2000/svg">
<path d="M6.5 24C6.5 19.5817 10.3802 16 15.1667 16H36.8333C41.6198 16 45.5 19.5817 45.5 24C45.5 28.4183 41.6198 32 36.8333 32H15.1667C10.3802 32 6.5 28.4183 6.5 24Z" fill="black" fill-opacity="0.15"/>
<path d="M32.5 32H36.8333C41.6198 32 45.5 28.4183 45.5 24C45.5 19.5817 41.6198 16 36.8333 16H32.5M17.3333 24H34.6667M19.5 16H15.1667C10.3802 16 6.5 19.5817 6.5 24C6.5 28.4183 10.3802 32 15.1667 32H19.5" stroke="white" stroke-width="2" stroke-linecap="round" stroke-linejoin="round"/>
</svg>
