<svg width="570" height="375" viewBox="0 0 570 375" fill="none" xmlns="http://www.w3.org/2000/svg">
<g filter="url(#filter0_dddddd_394_5186)">
<path d="M256.92 300.974C256.702 300.974 256.515 300.946 256.328 300.918C256.11 300.861 255.923 300.804 255.746 300.747C255.372 300.605 255.029 300.379 254.728 300.123C254.447 299.868 254.229 299.556 254.073 299.216C253.917 298.847 253.824 298.507 253.824 298.119C253.824 297.949 253.855 297.751 253.886 297.58C253.917 297.41 253.98 297.212 254.073 297.042C254.136 296.871 254.229 296.701 254.354 296.559C254.478 296.389 254.603 296.247 254.728 296.134C254.884 295.992 255.039 295.879 255.227 295.765C255.382 295.68 255.569 295.595 255.756 295.51C255.943 295.453 256.13 295.397 256.338 295.34C256.931 295.226 257.554 295.312 258.105 295.51C258.51 295.652 258.822 295.879 259.123 296.134C259.248 296.247 259.404 296.389 259.497 296.559C259.622 296.701 259.715 296.871 259.809 297.042C259.871 297.212 259.933 297.41 259.965 297.58C260.027 297.751 260.027 297.949 260.027 298.119C260.027 298.516 259.965 298.847 259.809 299.216C259.622 299.556 259.404 299.868 259.123 300.123C258.531 300.662 257.731 300.965 256.92 300.965V300.974Z" fill="#2A1E54"/>
</g>
<g filter="url(#filter1_dddddd_394_5186)">
<path d="M419.805 298.157C419.805 296.578 421.197 295.311 422.932 295.311C424.636 295.311 425.998 296.578 425.998 298.157C425.998 299.707 424.636 300.946 422.932 300.946C421.197 300.946 419.805 299.707 419.805 298.157ZM404.707 298.157C404.707 296.578 406.099 295.311 407.803 295.311C409.539 295.311 410.931 296.578 410.931 298.157C410.931 299.707 409.539 300.946 407.803 300.946C406.099 300.946 404.707 299.707 404.707 298.157ZM389.651 298.157C389.651 296.578 391.012 295.311 392.747 295.311C394.451 295.311 395.844 296.578 395.844 298.157C395.844 299.707 394.451 300.946 392.747 300.946C391.012 300.946 389.651 299.707 389.651 298.157ZM374.553 298.157C374.553 296.578 375.946 295.311 377.65 295.311C379.354 295.311 380.746 296.578 380.746 298.157C380.746 299.707 379.354 300.946 377.65 300.946C375.946 300.946 374.553 299.707 374.553 298.157ZM359.456 298.157C359.456 296.578 360.848 295.311 362.552 295.311C364.256 295.311 365.648 296.578 365.648 298.157C365.648 299.707 364.256 300.946 362.552 300.946C360.848 300.946 359.456 299.707 359.456 298.157ZM344.358 298.157C344.358 296.578 345.75 295.311 347.454 295.311C349.158 295.311 350.551 296.578 350.551 298.157C350.551 299.707 349.158 300.946 347.454 300.946C345.75 300.946 344.358 299.707 344.358 298.157ZM329.26 298.157C329.26 296.578 330.653 295.311 332.357 295.311C334.061 295.311 335.453 296.578 335.453 298.157C335.453 299.707 334.061 300.946 332.357 300.946C330.653 300.946 329.26 299.707 329.26 298.157ZM314.204 298.157C314.204 296.578 315.565 295.311 317.301 295.311C319.005 295.311 320.366 296.578 320.366 298.157C320.366 299.707 319.005 300.946 317.301 300.946C315.565 300.946 314.204 299.707 314.204 298.157ZM299.075 298.157C299.075 296.578 300.468 295.311 302.172 295.311C303.907 295.311 305.31 296.578 305.31 298.157C305.31 299.707 303.917 300.946 302.172 300.946C300.468 300.946 299.075 299.707 299.075 298.157ZM284.009 298.157C284.009 296.578 285.37 295.311 287.105 295.311C288.809 295.311 290.202 296.578 290.202 298.157C290.202 299.707 288.809 300.946 287.105 300.946C285.37 300.946 284.009 299.707 284.009 298.157ZM268.921 298.157C268.921 296.578 270.314 295.311 272.018 295.311C273.722 295.311 275.114 296.578 275.114 298.157C275.114 299.707 273.722 300.946 272.018 300.946C270.314 300.946 268.921 299.707 268.921 298.157Z" fill="#2A1E54"/>
</g>
<g filter="url(#filter2_dddddd_394_5186)">
<path d="M-3.05176e-05 252.94L45.8645 169.484H122.298L183.448 72.1212L244.597 44.2993H535.069L443.34 252.94H-3.05176e-05Z" fill="#2A1E54"/>
</g>
<g filter="url(#filter3_dddddd_394_5186)">
<path d="M145.407 350.539L140.253 348.365L176.018 278.172H471.997L561.451 74.7022H275.852L216.064 101.9L154.52 199.887H78.1899L35.162 278.172H158.905V283.334H25.9871L74.6882 194.725H151.226L211.991 97.977L274.501 69.5405H569.836L475.842 283.334H179.634L145.407 350.539Z" fill="#7F5CFF"/>
</g>
<g filter="url(#filter4_dddddd_394_5186)">
<path d="M108.655 158.159H41.0743L135.9 0H413.934L434.892 19.0679H260.547L170.189 60.1721L108.645 158.159H108.655ZM50.6442 152.997H105.372L166.126 56.2584L259.217 13.9063H421.197L411.586 5.16168H139.266L50.6338 152.997H50.6442Z" fill="#2A1E54"/>
</g>
<g filter="url(#filter5_dddddd_394_5186)">
<path d="M137.49 352.893C132.627 352.893 128.689 356.486 128.689 360.891C128.689 365.296 132.637 368.898 137.49 368.898C142.342 368.898 146.28 365.306 146.28 360.891C146.28 356.476 142.332 352.893 137.49 352.893ZM137.49 374.722C129.104 374.722 122.298 368.52 122.298 360.901C122.298 353.281 129.104 347.079 137.49 347.079C145.875 347.079 152.681 353.281 152.681 360.901C152.681 368.52 145.854 374.722 137.49 374.722Z" fill="#7F5CFF"/>
</g>
<defs>
<filter id="filter0_dddddd_394_5186" x="253.824" y="295.289" width="6.20334" height="5.68506" filterUnits="userSpaceOnUse" color-interpolation-filters="sRGB">
<feFlood flood-opacity="0" result="BackgroundImageFix"/>
<feColorMatrix in="SourceAlpha" type="matrix" values="0 0 0 0 0 0 0 0 0 0 0 0 0 0 0 0 0 0 127 0" result="hardAlpha"/>
<feOffset/>
<feColorMatrix type="matrix" values="0 0 0 0 0.164706 0 0 0 0 0.117647 0 0 0 0 0.329412 0 0 0 1 0"/>
<feBlend mode="normal" in2="BackgroundImageFix" result="effect1_dropShadow_394_5186"/>
<feColorMatrix in="SourceAlpha" type="matrix" values="0 0 0 0 0 0 0 0 0 0 0 0 0 0 0 0 0 0 127 0" result="hardAlpha"/>
<feOffset/>
<feColorMatrix type="matrix" values="0 0 0 0 0.164706 0 0 0 0 0.117647 0 0 0 0 0.329412 0 0 0 1 0"/>
<feBlend mode="normal" in2="effect1_dropShadow_394_5186" result="effect2_dropShadow_394_5186"/>
<feColorMatrix in="SourceAlpha" type="matrix" values="0 0 0 0 0 0 0 0 0 0 0 0 0 0 0 0 0 0 127 0" result="hardAlpha"/>
<feOffset/>
<feColorMatrix type="matrix" values="0 0 0 0 0.164706 0 0 0 0 0.117647 0 0 0 0 0.329412 0 0 0 1 0"/>
<feBlend mode="normal" in2="effect2_dropShadow_394_5186" result="effect3_dropShadow_394_5186"/>
<feColorMatrix in="SourceAlpha" type="matrix" values="0 0 0 0 0 0 0 0 0 0 0 0 0 0 0 0 0 0 127 0" result="hardAlpha"/>
<feOffset/>
<feColorMatrix type="matrix" values="0 0 0 0 0.164706 0 0 0 0 0.117647 0 0 0 0 0.329412 0 0 0 1 0"/>
<feBlend mode="normal" in2="effect3_dropShadow_394_5186" result="effect4_dropShadow_394_5186"/>
<feColorMatrix in="SourceAlpha" type="matrix" values="0 0 0 0 0 0 0 0 0 0 0 0 0 0 0 0 0 0 127 0" result="hardAlpha"/>
<feOffset/>
<feColorMatrix type="matrix" values="0 0 0 0 0.164706 0 0 0 0 0.117647 0 0 0 0 0.329412 0 0 0 1 0"/>
<feBlend mode="normal" in2="effect4_dropShadow_394_5186" result="effect5_dropShadow_394_5186"/>
<feColorMatrix in="SourceAlpha" type="matrix" values="0 0 0 0 0 0 0 0 0 0 0 0 0 0 0 0 0 0 127 0" result="hardAlpha"/>
<feOffset/>
<feColorMatrix type="matrix" values="0 0 0 0 0.164706 0 0 0 0 0.117647 0 0 0 0 0.329412 0 0 0 1 0"/>
<feBlend mode="normal" in2="effect5_dropShadow_394_5186" result="effect6_dropShadow_394_5186"/>
<feBlend mode="normal" in="SourceGraphic" in2="effect6_dropShadow_394_5186" result="shape"/>
</filter>
<filter id="filter1_dddddd_394_5186" x="268.921" y="295.311" width="157.076" height="5.63452" filterUnits="userSpaceOnUse" color-interpolation-filters="sRGB">
<feFlood flood-opacity="0" result="BackgroundImageFix"/>
<feColorMatrix in="SourceAlpha" type="matrix" values="0 0 0 0 0 0 0 0 0 0 0 0 0 0 0 0 0 0 127 0" result="hardAlpha"/>
<feOffset/>
<feColorMatrix type="matrix" values="0 0 0 0 0.164706 0 0 0 0 0.117647 0 0 0 0 0.329412 0 0 0 1 0"/>
<feBlend mode="normal" in2="BackgroundImageFix" result="effect1_dropShadow_394_5186"/>
<feColorMatrix in="SourceAlpha" type="matrix" values="0 0 0 0 0 0 0 0 0 0 0 0 0 0 0 0 0 0 127 0" result="hardAlpha"/>
<feOffset/>
<feColorMatrix type="matrix" values="0 0 0 0 0.164706 0 0 0 0 0.117647 0 0 0 0 0.329412 0 0 0 1 0"/>
<feBlend mode="normal" in2="effect1_dropShadow_394_5186" result="effect2_dropShadow_394_5186"/>
<feColorMatrix in="SourceAlpha" type="matrix" values="0 0 0 0 0 0 0 0 0 0 0 0 0 0 0 0 0 0 127 0" result="hardAlpha"/>
<feOffset/>
<feColorMatrix type="matrix" values="0 0 0 0 0.164706 0 0 0 0 0.117647 0 0 0 0 0.329412 0 0 0 1 0"/>
<feBlend mode="normal" in2="effect2_dropShadow_394_5186" result="effect3_dropShadow_394_5186"/>
<feColorMatrix in="SourceAlpha" type="matrix" values="0 0 0 0 0 0 0 0 0 0 0 0 0 0 0 0 0 0 127 0" result="hardAlpha"/>
<feOffset/>
<feColorMatrix type="matrix" values="0 0 0 0 0.164706 0 0 0 0 0.117647 0 0 0 0 0.329412 0 0 0 1 0"/>
<feBlend mode="normal" in2="effect3_dropShadow_394_5186" result="effect4_dropShadow_394_5186"/>
<feColorMatrix in="SourceAlpha" type="matrix" values="0 0 0 0 0 0 0 0 0 0 0 0 0 0 0 0 0 0 127 0" result="hardAlpha"/>
<feOffset/>
<feColorMatrix type="matrix" values="0 0 0 0 0.164706 0 0 0 0 0.117647 0 0 0 0 0.329412 0 0 0 1 0"/>
<feBlend mode="normal" in2="effect4_dropShadow_394_5186" result="effect5_dropShadow_394_5186"/>
<feColorMatrix in="SourceAlpha" type="matrix" values="0 0 0 0 0 0 0 0 0 0 0 0 0 0 0 0 0 0 127 0" result="hardAlpha"/>
<feOffset/>
<feColorMatrix type="matrix" values="0 0 0 0 0.164706 0 0 0 0 0.117647 0 0 0 0 0.329412 0 0 0 1 0"/>
<feBlend mode="normal" in2="effect5_dropShadow_394_5186" result="effect6_dropShadow_394_5186"/>
<feBlend mode="normal" in="SourceGraphic" in2="effect6_dropShadow_394_5186" result="shape"/>
</filter>
<filter id="filter2_dddddd_394_5186" x="-3.05176e-05" y="44.2993" width="535.069" height="208.641" filterUnits="userSpaceOnUse" color-interpolation-filters="sRGB">
<feFlood flood-opacity="0" result="BackgroundImageFix"/>
<feColorMatrix in="SourceAlpha" type="matrix" values="0 0 0 0 0 0 0 0 0 0 0 0 0 0 0 0 0 0 127 0" result="hardAlpha"/>
<feOffset/>
<feColorMatrix type="matrix" values="0 0 0 0 0.164706 0 0 0 0 0.117647 0 0 0 0 0.329412 0 0 0 1 0"/>
<feBlend mode="normal" in2="BackgroundImageFix" result="effect1_dropShadow_394_5186"/>
<feColorMatrix in="SourceAlpha" type="matrix" values="0 0 0 0 0 0 0 0 0 0 0 0 0 0 0 0 0 0 127 0" result="hardAlpha"/>
<feOffset/>
<feColorMatrix type="matrix" values="0 0 0 0 0.164706 0 0 0 0 0.117647 0 0 0 0 0.329412 0 0 0 1 0"/>
<feBlend mode="normal" in2="effect1_dropShadow_394_5186" result="effect2_dropShadow_394_5186"/>
<feColorMatrix in="SourceAlpha" type="matrix" values="0 0 0 0 0 0 0 0 0 0 0 0 0 0 0 0 0 0 127 0" result="hardAlpha"/>
<feOffset/>
<feColorMatrix type="matrix" values="0 0 0 0 0.164706 0 0 0 0 0.117647 0 0 0 0 0.329412 0 0 0 1 0"/>
<feBlend mode="normal" in2="effect2_dropShadow_394_5186" result="effect3_dropShadow_394_5186"/>
<feColorMatrix in="SourceAlpha" type="matrix" values="0 0 0 0 0 0 0 0 0 0 0 0 0 0 0 0 0 0 127 0" result="hardAlpha"/>
<feOffset/>
<feColorMatrix type="matrix" values="0 0 0 0 0.164706 0 0 0 0 0.117647 0 0 0 0 0.329412 0 0 0 1 0"/>
<feBlend mode="normal" in2="effect3_dropShadow_394_5186" result="effect4_dropShadow_394_5186"/>
<feColorMatrix in="SourceAlpha" type="matrix" values="0 0 0 0 0 0 0 0 0 0 0 0 0 0 0 0 0 0 127 0" result="hardAlpha"/>
<feOffset/>
<feColorMatrix type="matrix" values="0 0 0 0 0.164706 0 0 0 0 0.117647 0 0 0 0 0.329412 0 0 0 1 0"/>
<feBlend mode="normal" in2="effect4_dropShadow_394_5186" result="effect5_dropShadow_394_5186"/>
<feColorMatrix in="SourceAlpha" type="matrix" values="0 0 0 0 0 0 0 0 0 0 0 0 0 0 0 0 0 0 127 0" result="hardAlpha"/>
<feOffset/>
<feColorMatrix type="matrix" values="0 0 0 0 0.164706 0 0 0 0 0.117647 0 0 0 0 0.329412 0 0 0 1 0"/>
<feBlend mode="normal" in2="effect5_dropShadow_394_5186" result="effect6_dropShadow_394_5186"/>
<feBlend mode="normal" in="SourceGraphic" in2="effect6_dropShadow_394_5186" result="shape"/>
</filter>
<filter id="filter3_dddddd_394_5186" x="25.9871" y="69.5405" width="543.849" height="280.999" filterUnits="userSpaceOnUse" color-interpolation-filters="sRGB">
<feFlood flood-opacity="0" result="BackgroundImageFix"/>
<feColorMatrix in="SourceAlpha" type="matrix" values="0 0 0 0 0 0 0 0 0 0 0 0 0 0 0 0 0 0 127 0" result="hardAlpha"/>
<feOffset/>
<feColorMatrix type="matrix" values="0 0 0 0 0.498039 0 0 0 0 0.360784 0 0 0 0 1 0 0 0 1 0"/>
<feBlend mode="normal" in2="BackgroundImageFix" result="effect1_dropShadow_394_5186"/>
<feColorMatrix in="SourceAlpha" type="matrix" values="0 0 0 0 0 0 0 0 0 0 0 0 0 0 0 0 0 0 127 0" result="hardAlpha"/>
<feOffset/>
<feColorMatrix type="matrix" values="0 0 0 0 0.498039 0 0 0 0 0.360784 0 0 0 0 1 0 0 0 1 0"/>
<feBlend mode="normal" in2="effect1_dropShadow_394_5186" result="effect2_dropShadow_394_5186"/>
<feColorMatrix in="SourceAlpha" type="matrix" values="0 0 0 0 0 0 0 0 0 0 0 0 0 0 0 0 0 0 127 0" result="hardAlpha"/>
<feOffset/>
<feColorMatrix type="matrix" values="0 0 0 0 0.498039 0 0 0 0 0.360784 0 0 0 0 1 0 0 0 1 0"/>
<feBlend mode="normal" in2="effect2_dropShadow_394_5186" result="effect3_dropShadow_394_5186"/>
<feColorMatrix in="SourceAlpha" type="matrix" values="0 0 0 0 0 0 0 0 0 0 0 0 0 0 0 0 0 0 127 0" result="hardAlpha"/>
<feOffset/>
<feColorMatrix type="matrix" values="0 0 0 0 0.498039 0 0 0 0 0.360784 0 0 0 0 1 0 0 0 1 0"/>
<feBlend mode="normal" in2="effect3_dropShadow_394_5186" result="effect4_dropShadow_394_5186"/>
<feColorMatrix in="SourceAlpha" type="matrix" values="0 0 0 0 0 0 0 0 0 0 0 0 0 0 0 0 0 0 127 0" result="hardAlpha"/>
<feOffset/>
<feColorMatrix type="matrix" values="0 0 0 0 0.498039 0 0 0 0 0.360784 0 0 0 0 1 0 0 0 1 0"/>
<feBlend mode="normal" in2="effect4_dropShadow_394_5186" result="effect5_dropShadow_394_5186"/>
<feColorMatrix in="SourceAlpha" type="matrix" values="0 0 0 0 0 0 0 0 0 0 0 0 0 0 0 0 0 0 127 0" result="hardAlpha"/>
<feOffset/>
<feColorMatrix type="matrix" values="0 0 0 0 0.498039 0 0 0 0 0.360784 0 0 0 0 1 0 0 0 1 0"/>
<feBlend mode="normal" in2="effect5_dropShadow_394_5186" result="effect6_dropShadow_394_5186"/>
<feBlend mode="normal" in="SourceGraphic" in2="effect6_dropShadow_394_5186" result="shape"/>
</filter>
<filter id="filter4_dddddd_394_5186" x="41.0743" y="0" width="393.818" height="158.159" filterUnits="userSpaceOnUse" color-interpolation-filters="sRGB">
<feFlood flood-opacity="0" result="BackgroundImageFix"/>
<feColorMatrix in="SourceAlpha" type="matrix" values="0 0 0 0 0 0 0 0 0 0 0 0 0 0 0 0 0 0 127 0" result="hardAlpha"/>
<feOffset/>
<feColorMatrix type="matrix" values="0 0 0 0 0.164706 0 0 0 0 0.117647 0 0 0 0 0.329412 0 0 0 1 0"/>
<feBlend mode="normal" in2="BackgroundImageFix" result="effect1_dropShadow_394_5186"/>
<feColorMatrix in="SourceAlpha" type="matrix" values="0 0 0 0 0 0 0 0 0 0 0 0 0 0 0 0 0 0 127 0" result="hardAlpha"/>
<feOffset/>
<feColorMatrix type="matrix" values="0 0 0 0 0.164706 0 0 0 0 0.117647 0 0 0 0 0.329412 0 0 0 1 0"/>
<feBlend mode="normal" in2="effect1_dropShadow_394_5186" result="effect2_dropShadow_394_5186"/>
<feColorMatrix in="SourceAlpha" type="matrix" values="0 0 0 0 0 0 0 0 0 0 0 0 0 0 0 0 0 0 127 0" result="hardAlpha"/>
<feOffset/>
<feColorMatrix type="matrix" values="0 0 0 0 0.164706 0 0 0 0 0.117647 0 0 0 0 0.329412 0 0 0 1 0"/>
<feBlend mode="normal" in2="effect2_dropShadow_394_5186" result="effect3_dropShadow_394_5186"/>
<feColorMatrix in="SourceAlpha" type="matrix" values="0 0 0 0 0 0 0 0 0 0 0 0 0 0 0 0 0 0 127 0" result="hardAlpha"/>
<feOffset/>
<feColorMatrix type="matrix" values="0 0 0 0 0.164706 0 0 0 0 0.117647 0 0 0 0 0.329412 0 0 0 1 0"/>
<feBlend mode="normal" in2="effect3_dropShadow_394_5186" result="effect4_dropShadow_394_5186"/>
<feColorMatrix in="SourceAlpha" type="matrix" values="0 0 0 0 0 0 0 0 0 0 0 0 0 0 0 0 0 0 127 0" result="hardAlpha"/>
<feOffset/>
<feColorMatrix type="matrix" values="0 0 0 0 0.164706 0 0 0 0 0.117647 0 0 0 0 0.329412 0 0 0 1 0"/>
<feBlend mode="normal" in2="effect4_dropShadow_394_5186" result="effect5_dropShadow_394_5186"/>
<feColorMatrix in="SourceAlpha" type="matrix" values="0 0 0 0 0 0 0 0 0 0 0 0 0 0 0 0 0 0 127 0" result="hardAlpha"/>
<feOffset/>
<feColorMatrix type="matrix" values="0 0 0 0 0.164706 0 0 0 0 0.117647 0 0 0 0 0.329412 0 0 0 1 0"/>
<feBlend mode="normal" in2="effect5_dropShadow_394_5186" result="effect6_dropShadow_394_5186"/>
<feBlend mode="normal" in="SourceGraphic" in2="effect6_dropShadow_394_5186" result="shape"/>
</filter>
<filter id="filter5_dddddd_394_5186" x="122.298" y="347.079" width="30.3824" height="27.6423" filterUnits="userSpaceOnUse" color-interpolation-filters="sRGB">
<feFlood flood-opacity="0" result="BackgroundImageFix"/>
<feColorMatrix in="SourceAlpha" type="matrix" values="0 0 0 0 0 0 0 0 0 0 0 0 0 0 0 0 0 0 127 0" result="hardAlpha"/>
<feOffset/>
<feColorMatrix type="matrix" values="0 0 0 0 0.498039 0 0 0 0 0.360784 0 0 0 0 1 0 0 0 1 0"/>
<feBlend mode="normal" in2="BackgroundImageFix" result="effect1_dropShadow_394_5186"/>
<feColorMatrix in="SourceAlpha" type="matrix" values="0 0 0 0 0 0 0 0 0 0 0 0 0 0 0 0 0 0 127 0" result="hardAlpha"/>
<feOffset/>
<feColorMatrix type="matrix" values="0 0 0 0 0.498039 0 0 0 0 0.360784 0 0 0 0 1 0 0 0 1 0"/>
<feBlend mode="normal" in2="effect1_dropShadow_394_5186" result="effect2_dropShadow_394_5186"/>
<feColorMatrix in="SourceAlpha" type="matrix" values="0 0 0 0 0 0 0 0 0 0 0 0 0 0 0 0 0 0 127 0" result="hardAlpha"/>
<feOffset/>
<feColorMatrix type="matrix" values="0 0 0 0 0.498039 0 0 0 0 0.360784 0 0 0 0 1 0 0 0 1 0"/>
<feBlend mode="normal" in2="effect2_dropShadow_394_5186" result="effect3_dropShadow_394_5186"/>
<feColorMatrix in="SourceAlpha" type="matrix" values="0 0 0 0 0 0 0 0 0 0 0 0 0 0 0 0 0 0 127 0" result="hardAlpha"/>
<feOffset/>
<feColorMatrix type="matrix" values="0 0 0 0 0.498039 0 0 0 0 0.360784 0 0 0 0 1 0 0 0 1 0"/>
<feBlend mode="normal" in2="effect3_dropShadow_394_5186" result="effect4_dropShadow_394_5186"/>
<feColorMatrix in="SourceAlpha" type="matrix" values="0 0 0 0 0 0 0 0 0 0 0 0 0 0 0 0 0 0 127 0" result="hardAlpha"/>
<feOffset/>
<feColorMatrix type="matrix" values="0 0 0 0 0.498039 0 0 0 0 0.360784 0 0 0 0 1 0 0 0 1 0"/>
<feBlend mode="normal" in2="effect4_dropShadow_394_5186" result="effect5_dropShadow_394_5186"/>
<feColorMatrix in="SourceAlpha" type="matrix" values="0 0 0 0 0 0 0 0 0 0 0 0 0 0 0 0 0 0 127 0" result="hardAlpha"/>
<feOffset/>
<feColorMatrix type="matrix" values="0 0 0 0 0.498039 0 0 0 0 0.360784 0 0 0 0 1 0 0 0 1 0"/>
<feBlend mode="normal" in2="effect5_dropShadow_394_5186" result="effect6_dropShadow_394_5186"/>
<feBlend mode="normal" in="SourceGraphic" in2="effect6_dropShadow_394_5186" result="shape"/>
</filter>
</defs>
</svg>
