<svg width="65" height="61" viewBox="0 0 65 61" fill="none" xmlns="http://www.w3.org/2000/svg">
<path d="M24.3831 15.2502C24.3831 13.2299 25.2383 11.2924 26.7605 9.86389C28.2827 8.43535 30.3473 7.63281 32.5 7.63281C34.6527 7.63281 36.7173 8.43535 38.2395 9.86389C39.7617 11.2924 40.6169 13.2299 40.6169 15.2502C40.6169 17.2704 39.7617 19.208 38.2395 20.6365C36.7173 22.065 34.6527 22.8676 32.5 22.8676C30.3473 22.8676 28.2827 22.065 26.7605 20.6365C25.2383 19.208 24.3831 17.2704 24.3831 15.2502ZM32.5 11.4453C31.9676 11.4453 31.4404 11.5437 30.9485 11.7349C30.4566 11.9262 30.0096 12.2064 29.6331 12.5597C29.2566 12.9131 28.958 13.3325 28.7542 13.7941C28.5505 14.2558 28.4456 14.7505 28.4456 15.2502C28.4456 15.7499 28.5505 16.2446 28.7542 16.7063C28.958 17.1679 29.2566 17.5873 29.6331 17.9406C30.0096 18.294 30.4566 18.5742 30.9485 18.7654C31.4404 18.9566 31.9676 19.0551 32.5 19.0551C33.5753 19.0551 34.6065 18.6542 35.3669 17.9406C36.1272 17.2271 36.5544 16.2593 36.5544 15.2502C36.5544 14.2411 36.1272 13.2733 35.3669 12.5597C34.6065 11.8462 33.5753 11.4453 32.5 11.4453ZM44.6875 17.1564C44.6875 16.4054 44.8451 15.6618 45.1513 14.968C45.4576 14.2741 45.9065 13.6437 46.4723 13.1127C47.0382 12.5816 47.7099 12.1604 48.4493 11.873C49.1886 11.5856 49.981 11.4377 50.7812 11.4377C51.5815 11.4377 52.3739 11.5856 53.1132 11.873C53.8525 12.1604 54.5243 12.5816 55.0902 13.1127C55.656 13.6437 56.1049 14.2741 56.4111 14.968C56.7174 15.6618 56.875 16.4054 56.875 17.1564C56.875 18.6731 56.233 20.1277 55.0902 21.2002C53.9474 22.2727 52.3974 22.8752 50.7812 22.8752C49.1651 22.8752 47.6151 22.2727 46.4723 21.2002C45.3295 20.1277 44.6875 18.6731 44.6875 17.1564ZM50.7812 15.2502C50.2425 15.2502 49.7259 15.451 49.3449 15.8085C48.964 16.166 48.75 16.6509 48.75 17.1564C48.75 17.662 48.964 18.1469 49.3449 18.5044C49.7259 18.8619 50.2425 19.0627 50.7812 19.0627C51.32 19.0627 51.8366 18.8619 52.2176 18.5044C52.5985 18.1469 52.8125 17.662 52.8125 17.1564C52.8125 16.6509 52.5985 16.166 52.2176 15.8085C51.8366 15.451 51.32 15.2502 50.7812 15.2502ZM14.2187 11.4377C12.6026 11.4377 11.0526 12.0402 9.90982 13.1127C8.76702 14.1851 8.125 15.6397 8.125 17.1564C8.125 18.6731 8.76702 20.1277 9.90982 21.2002C11.0526 22.2727 12.6026 22.8752 14.2187 22.8752C15.8349 22.8752 17.3849 22.2727 18.5277 21.2002C19.6705 20.1277 20.3125 18.6731 20.3125 17.1564C20.3125 15.6397 19.6705 14.1851 18.5277 13.1127C17.3849 12.0402 15.8349 11.4377 14.2187 11.4377ZM12.1875 17.1564C12.1875 16.6509 12.4015 16.166 12.7824 15.8085C13.1634 15.451 13.68 15.2502 14.2187 15.2502C14.7575 15.2502 15.2741 15.451 15.6551 15.8085C16.036 16.166 16.25 16.6509 16.25 17.1564C16.25 17.662 16.036 18.1469 15.6551 18.5044C15.2741 18.8619 14.7575 19.0627 14.2187 19.0627C13.68 19.0627 13.1634 18.8619 12.7824 18.5044C12.4015 18.1469 12.1875 17.662 12.1875 17.1564ZM17.3387 26.6877C16.6256 27.8468 16.2501 29.1617 16.25 30.5002H8.125V40.0314C8.12467 40.9798 8.37564 41.9133 8.8553 42.7479C9.33497 43.5826 10.0283 44.2922 10.8728 44.8129C11.7174 45.3336 12.6866 45.649 13.6934 45.7308C14.7001 45.8125 15.7127 45.658 16.64 45.2813C16.9406 46.5432 17.4119 47.7479 18.0212 48.8726C16.4794 49.4569 14.8083 49.6769 13.1546 49.5134C11.501 49.3499 9.91537 48.8079 8.53711 47.9349C7.15884 47.0619 6.03005 45.8847 5.24986 44.5067C4.46967 43.1287 4.06195 41.5919 4.0625 40.0314V30.5002C4.0625 29.4891 4.49051 28.5193 5.25238 27.8043C6.01425 27.0894 7.04756 26.6877 8.125 26.6877H17.3387ZM46.9787 48.8726C48.5206 49.4569 50.1917 49.6769 51.8454 49.5134C53.499 49.3499 55.0846 48.8079 56.4629 47.9349C57.8411 47.0619 58.9699 45.8847 59.7501 44.5067C60.5303 43.1287 60.938 41.5919 60.9375 40.0314V30.5002C60.9375 29.4891 60.5095 28.5193 59.7476 27.8043C58.9857 27.0894 57.9524 26.6877 56.875 26.6877H47.6612C48.3519 27.8086 48.75 29.1086 48.75 30.5002H56.875V40.0314C56.8753 40.9798 56.6244 41.9133 56.1447 42.7479C55.665 43.5826 54.9717 44.2922 54.1272 44.8129C53.2826 45.3336 52.3134 45.649 51.3066 45.7308C50.2999 45.8125 49.2873 45.658 48.36 45.2813C48.0512 46.547 47.5908 47.7441 46.9787 48.8726ZM24.375 26.6839C23.2976 26.6839 22.2642 27.0855 21.5024 27.8005C20.7405 28.5155 20.3125 29.4852 20.3125 30.4964V41.9377C20.3125 44.9711 21.5965 47.8803 23.8821 50.0252C26.1677 52.1702 29.2677 53.3752 32.5 53.3752C35.7323 53.3752 38.8323 52.1702 41.1179 50.0252C43.4035 47.8803 44.6875 44.9711 44.6875 41.9377V30.5002C44.6875 29.4891 44.2595 28.5193 43.4976 27.8043C42.7357 27.0894 41.7024 26.6877 40.625 26.6877L24.375 26.6839ZM24.375 30.4964H40.625V41.9377C40.625 43.96 39.769 45.8994 38.2452 47.3294C36.7215 48.7593 34.6549 49.5627 32.5 49.5627C30.3451 49.5627 28.2785 48.7593 26.7548 47.3294C25.231 45.8994 24.375 43.96 24.375 41.9377V30.4964Z" fill="white"/>
</svg>
