<svg width="300" height="800" viewBox="0 0 1440 3199" fill="none" xmlns="http://www.w3.org/2000/svg">
<g opacity="0.98" filter="url(#filter0_dddd_0_1)">
<rect x="97" y="1665" width="746" height="512" rx="50" fill="url(#paint0_radial_0_1)" fill-opacity="0.7"/>
<rect x="94.5" y="1662.5" width="751" height="517" rx="52.5" stroke="#D7B4FE" stroke-width="5"/>
</g>
<g filter="url(#filter1_dddddd_0_1)">
<path d="M424.849 1888.12L413.149 1930H403.249L395.389 1900.18L387.169 1930L377.329 1930.06L366.049 1888.12H375.049L382.429 1920.64L390.949 1888.12H400.309L408.349 1920.46L415.789 1888.12H424.849ZM452.773 1930.42C448.853 1930.42 445.253 1929.5 441.973 1927.66C438.693 1925.82 436.093 1923.28 434.173 1920.04C432.253 1916.76 431.293 1913.06 431.293 1908.94C431.293 1904.86 432.253 1901.2 434.173 1897.96C436.093 1894.68 438.693 1892.12 441.973 1890.28C445.253 1888.44 448.853 1887.52 452.773 1887.52C456.733 1887.52 460.333 1888.44 463.573 1890.28C466.853 1892.12 469.433 1894.68 471.313 1897.96C473.233 1901.2 474.193 1904.86 474.193 1908.94C474.193 1913.06 473.233 1916.76 471.313 1920.04C469.433 1923.28 466.853 1925.82 463.573 1927.66C460.293 1929.5 456.693 1930.42 452.773 1930.42ZM452.773 1922.92C455.293 1922.92 457.513 1922.36 459.433 1921.24C461.353 1920.08 462.853 1918.44 463.933 1916.32C465.013 1914.2 465.553 1911.74 465.553 1908.94C465.553 1906.14 465.013 1903.7 463.933 1901.62C462.853 1899.5 461.353 1897.88 459.433 1896.76C457.513 1895.64 455.293 1895.08 452.773 1895.08C450.253 1895.08 448.013 1895.64 446.053 1896.76C444.133 1897.88 442.633 1899.5 441.553 1901.62C440.473 1903.7 439.933 1906.14 439.933 1908.94C439.933 1911.74 440.473 1914.2 441.553 1916.32C442.633 1918.44 444.133 1920.08 446.053 1921.24C448.013 1922.36 450.253 1922.92 452.773 1922.92ZM505.043 1930L495.803 1913.68H491.843V1930H483.443V1888.12H499.163C502.403 1888.12 505.163 1888.7 507.443 1889.86C509.723 1890.98 511.423 1892.52 512.543 1894.48C513.703 1896.4 514.283 1898.56 514.283 1900.96C514.283 1903.72 513.483 1906.22 511.883 1908.46C510.283 1910.66 507.903 1912.18 504.743 1913.02L514.763 1930H505.043ZM491.843 1907.38H498.863C501.143 1907.38 502.843 1906.84 503.963 1905.76C505.083 1904.64 505.643 1903.1 505.643 1901.14C505.643 1899.22 505.083 1897.74 503.963 1896.7C502.843 1895.62 501.143 1895.08 498.863 1895.08H491.843V1907.38ZM548.52 1930L533.28 1911.34V1930H524.88V1888.12H533.28V1906.9L548.52 1888.12H558.66L541.38 1908.88L559.14 1930H548.52ZM582.125 1930.42C579.205 1930.42 576.565 1929.92 574.205 1928.92C571.885 1927.92 570.045 1926.48 568.685 1924.6C567.325 1922.72 566.625 1920.5 566.585 1917.94H575.585C575.705 1919.66 576.305 1921.02 577.385 1922.02C578.505 1923.02 580.025 1923.52 581.945 1923.52C583.905 1923.52 585.445 1923.06 586.565 1922.14C587.685 1921.18 588.245 1919.94 588.245 1918.42C588.245 1917.18 587.865 1916.16 587.105 1915.36C586.345 1914.56 585.385 1913.94 584.225 1913.5C583.105 1913.02 581.545 1912.5 579.545 1911.94C576.825 1911.14 574.605 1910.36 572.885 1909.6C571.205 1908.8 569.745 1907.62 568.505 1906.06C567.305 1904.46 566.705 1902.34 566.705 1899.7C566.705 1897.22 567.325 1895.06 568.565 1893.22C569.805 1891.38 571.545 1889.98 573.785 1889.02C576.025 1888.02 578.585 1887.52 581.465 1887.52C585.785 1887.52 589.285 1888.58 591.965 1890.7C594.685 1892.78 596.185 1895.7 596.465 1899.46H587.225C587.145 1898.02 586.525 1896.84 585.365 1895.92C584.245 1894.96 582.745 1894.48 580.865 1894.48C579.225 1894.48 577.905 1894.9 576.905 1895.74C575.945 1896.58 575.465 1897.8 575.465 1899.4C575.465 1900.52 575.825 1901.46 576.545 1902.22C577.305 1902.94 578.225 1903.54 579.305 1904.02C580.425 1904.46 581.985 1904.98 583.985 1905.58C586.705 1906.38 588.925 1907.18 590.645 1907.98C592.365 1908.78 593.845 1909.98 595.085 1911.58C596.325 1913.18 596.945 1915.28 596.945 1917.88C596.945 1920.12 596.365 1922.2 595.205 1924.12C594.045 1926.04 592.345 1927.58 590.105 1928.74C587.865 1929.86 585.205 1930.42 582.125 1930.42ZM641.968 1888.12V1930H633.568V1912.18H615.628V1930H607.228V1888.12H615.628V1905.34H633.568V1888.12H641.968ZM672.676 1930.42C668.756 1930.42 665.156 1929.5 661.876 1927.66C658.596 1925.82 655.996 1923.28 654.076 1920.04C652.156 1916.76 651.196 1913.06 651.196 1908.94C651.196 1904.86 652.156 1901.2 654.076 1897.96C655.996 1894.68 658.596 1892.12 661.876 1890.28C665.156 1888.44 668.756 1887.52 672.676 1887.52C676.636 1887.52 680.236 1888.44 683.476 1890.28C686.756 1892.12 689.336 1894.68 691.216 1897.96C693.136 1901.2 694.096 1904.86 694.096 1908.94C694.096 1913.06 693.136 1916.76 691.216 1920.04C689.336 1923.28 686.756 1925.82 683.476 1927.66C680.196 1929.5 676.596 1930.42 672.676 1930.42ZM672.676 1922.92C675.196 1922.92 677.416 1922.36 679.336 1921.24C681.256 1920.08 682.756 1918.44 683.836 1916.32C684.916 1914.2 685.456 1911.74 685.456 1908.94C685.456 1906.14 684.916 1903.7 683.836 1901.62C682.756 1899.5 681.256 1897.88 679.336 1896.76C677.416 1895.64 675.196 1895.08 672.676 1895.08C670.156 1895.08 667.916 1895.64 665.956 1896.76C664.036 1897.88 662.536 1899.5 661.456 1901.62C660.376 1903.7 659.836 1906.14 659.836 1908.94C659.836 1911.74 660.376 1914.2 661.456 1916.32C662.536 1918.44 664.036 1920.08 665.956 1921.24C667.916 1922.36 670.156 1922.92 672.676 1922.92ZM733.885 1901.08C733.885 1903.32 733.345 1905.42 732.265 1907.38C731.225 1909.34 729.565 1910.92 727.285 1912.12C725.045 1913.32 722.205 1913.92 718.765 1913.92H711.745V1930H703.345V1888.12H718.765C722.005 1888.12 724.765 1888.68 727.045 1889.8C729.325 1890.92 731.025 1892.46 732.145 1894.42C733.305 1896.38 733.885 1898.6 733.885 1901.08ZM718.405 1907.14C720.725 1907.14 722.445 1906.62 723.565 1905.58C724.685 1904.5 725.245 1903 725.245 1901.08C725.245 1897 722.965 1894.96 718.405 1894.96H711.745V1907.14H718.405ZM757.309 1930.42C754.389 1930.42 751.749 1929.92 749.389 1928.92C747.069 1927.92 745.229 1926.48 743.869 1924.6C742.509 1922.72 741.809 1920.5 741.769 1917.94H750.769C750.889 1919.66 751.489 1921.02 752.569 1922.02C753.689 1923.02 755.209 1923.52 757.129 1923.52C759.089 1923.52 760.629 1923.06 761.749 1922.14C762.869 1921.18 763.429 1919.94 763.429 1918.42C763.429 1917.18 763.049 1916.16 762.289 1915.36C761.529 1914.56 760.569 1913.94 759.409 1913.5C758.289 1913.02 756.729 1912.5 754.729 1911.94C752.009 1911.14 749.789 1910.36 748.069 1909.6C746.389 1908.8 744.929 1907.62 743.689 1906.06C742.489 1904.46 741.889 1902.34 741.889 1899.7C741.889 1897.22 742.509 1895.06 743.749 1893.22C744.989 1891.38 746.729 1889.98 748.969 1889.02C751.209 1888.02 753.769 1887.52 756.649 1887.52C760.969 1887.52 764.469 1888.58 767.149 1890.7C769.869 1892.78 771.369 1895.7 771.649 1899.46H762.409C762.329 1898.02 761.709 1896.84 760.549 1895.92C759.429 1894.96 757.929 1894.48 756.049 1894.48C754.409 1894.48 753.089 1894.9 752.089 1895.74C751.129 1896.58 750.649 1897.8 750.649 1899.4C750.649 1900.52 751.009 1901.46 751.729 1902.22C752.489 1902.94 753.409 1903.54 754.489 1904.02C755.609 1904.46 757.169 1904.98 759.169 1905.58C761.889 1906.38 764.109 1907.18 765.829 1907.98C767.549 1908.78 769.029 1909.98 770.269 1911.58C771.509 1913.18 772.129 1915.28 772.129 1917.88C772.129 1920.12 771.549 1922.2 770.389 1924.12C769.229 1926.04 767.529 1927.58 765.289 1928.74C763.049 1929.86 760.389 1930.42 757.309 1930.42Z" fill="white"/>
</g>
<g filter="url(#filter2_dddddd_0_1)">
<path d="M211.385 1890.36H185.465V1904.04C186.585 1902.65 188.185 1901.53 190.265 1900.68C192.345 1899.77 194.559 1899.32 196.905 1899.32C201.172 1899.32 204.665 1900.25 207.385 1902.12C210.105 1903.99 212.079 1906.39 213.305 1909.32C214.532 1912.2 215.145 1915.29 215.145 1918.6C215.145 1924.73 213.385 1929.67 209.865 1933.4C206.399 1937.13 201.439 1939 194.985 1939C188.905 1939 184.052 1937.48 180.425 1934.44C176.799 1931.4 174.745 1927.43 174.265 1922.52H185.145C185.625 1924.65 186.692 1926.36 188.345 1927.64C190.052 1928.92 192.212 1929.56 194.825 1929.56C197.972 1929.56 200.345 1928.57 201.945 1926.6C203.545 1924.63 204.345 1922.01 204.345 1918.76C204.345 1915.45 203.519 1912.95 201.865 1911.24C200.265 1909.48 197.892 1908.6 194.745 1908.6C192.505 1908.6 190.639 1909.16 189.145 1910.28C187.652 1911.4 186.585 1912.89 185.945 1914.76H175.225V1880.52H211.385V1890.36ZM227.67 1909.08C227.67 1899.85 229.323 1892.63 232.63 1887.4C235.99 1882.17 241.536 1879.56 249.27 1879.56C257.003 1879.56 262.523 1882.17 265.83 1887.4C269.19 1892.63 270.87 1899.85 270.87 1909.08C270.87 1918.36 269.19 1925.64 265.83 1930.92C262.523 1936.2 257.003 1938.84 249.27 1938.84C241.536 1938.84 235.99 1936.2 232.63 1930.92C229.323 1925.64 227.67 1918.36 227.67 1909.08ZM259.83 1909.08C259.83 1905.13 259.563 1901.83 259.03 1899.16C258.55 1896.44 257.536 1894.23 255.99 1892.52C254.496 1890.81 252.256 1889.96 249.27 1889.96C246.283 1889.96 244.016 1890.81 242.47 1892.52C240.976 1894.23 239.963 1896.44 239.43 1899.16C238.95 1901.83 238.71 1905.13 238.71 1909.08C238.71 1913.13 238.95 1916.55 239.43 1919.32C239.91 1922.04 240.923 1924.25 242.47 1925.96C244.016 1927.61 246.283 1928.44 249.27 1928.44C252.256 1928.44 254.523 1927.61 256.07 1925.96C257.616 1924.25 258.63 1922.04 259.11 1919.32C259.59 1916.55 259.83 1913.13 259.83 1909.08ZM326.508 1915.4H311.388V1930.92H300.828V1915.4H285.708V1905.64H300.828V1890.12H311.388V1905.64H326.508V1915.4Z" fill="white"/>
</g>
<defs>
<filter id="filter0_dddd_0_1" x="-9.69913" y="1558.3" width="959.398" height="725.398" filterUnits="userSpaceOnUse" color-interpolation-filters="sRGB">
<feFlood flood-opacity="0" result="BackgroundImageFix"/>
<feColorMatrix in="SourceAlpha" type="matrix" values="0 0 0 0 0 0 0 0 0 0 0 0 0 0 0 0 0 0 127 0" result="hardAlpha"/>
<feOffset/>
<feGaussianBlur stdDeviation="3.63211"/>
<feColorMatrix type="matrix" values="0 0 0 0 0.419608 0 0 0 0 0.129412 0 0 0 0 0.658824 0 0 0 1 0"/>
<feBlend mode="normal" in2="BackgroundImageFix" result="effect1_dropShadow_0_1"/>
<feColorMatrix in="SourceAlpha" type="matrix" values="0 0 0 0 0 0 0 0 0 0 0 0 0 0 0 0 0 0 127 0" result="hardAlpha"/>
<feOffset/>
<feGaussianBlur stdDeviation="7.26422"/>
<feColorMatrix type="matrix" values="0 0 0 0 0.419608 0 0 0 0 0.129412 0 0 0 0 0.658824 0 0 0 1 0"/>
<feBlend mode="normal" in2="effect1_dropShadow_0_1" result="effect2_dropShadow_0_1"/>
<feColorMatrix in="SourceAlpha" type="matrix" values="0 0 0 0 0 0 0 0 0 0 0 0 0 0 0 0 0 0 127 0" result="hardAlpha"/>
<feOffset/>
<feGaussianBlur stdDeviation="25.4248"/>
<feColorMatrix type="matrix" values="0 0 0 0 0.419608 0 0 0 0 0.129412 0 0 0 0 0.658824 0 0 0 1 0"/>
<feBlend mode="normal" in2="effect2_dropShadow_0_1" result="effect3_dropShadow_0_1"/>
<feColorMatrix in="SourceAlpha" type="matrix" values="0 0 0 0 0 0 0 0 0 0 0 0 0 0 0 0 0 0 127 0" result="hardAlpha"/>
<feOffset/>
<feGaussianBlur stdDeviation="50.8496"/>
<feColorMatrix type="matrix" values="0 0 0 0 0.419608 0 0 0 0 0.129412 0 0 0 0 0.658824 0 0 0 1 0"/>
<feBlend mode="normal" in2="effect3_dropShadow_0_1" result="effect4_dropShadow_0_1"/>
<feBlend mode="normal" in="SourceGraphic" in2="effect4_dropShadow_0_1" result="shape"/>
</filter>
<filter id="filter1_dddddd_0_1" x="-1394.11" y="127.361" width="3926.4" height="3563.22" filterUnits="userSpaceOnUse" color-interpolation-filters="sRGB">
<feFlood flood-opacity="0" result="BackgroundImageFix"/>
<feColorMatrix in="SourceAlpha" type="matrix" values="0 0 0 0 0 0 0 0 0 0 0 0 0 0 0 0 0 0 127 0" result="hardAlpha"/>
<feOffset/>
<feGaussianBlur stdDeviation="20.9543"/>
<feColorMatrix type="matrix" values="0 0 0 0 0.419608 0 0 0 0 0.129412 0 0 0 0 0.658824 0 0 0 1 0"/>
<feBlend mode="normal" in2="BackgroundImageFix" result="effect1_dropShadow_0_1"/>
<feColorMatrix in="SourceAlpha" type="matrix" values="0 0 0 0 0 0 0 0 0 0 0 0 0 0 0 0 0 0 127 0" result="hardAlpha"/>
<feOffset/>
<feGaussianBlur stdDeviation="41.9085"/>
<feColorMatrix type="matrix" values="0 0 0 0 0.419608 0 0 0 0 0.129412 0 0 0 0 0.658824 0 0 0 1 0"/>
<feBlend mode="normal" in2="effect1_dropShadow_0_1" result="effect2_dropShadow_0_1"/>
<feColorMatrix in="SourceAlpha" type="matrix" values="0 0 0 0 0 0 0 0 0 0 0 0 0 0 0 0 0 0 127 0" result="hardAlpha"/>
<feOffset/>
<feGaussianBlur stdDeviation="146.68"/>
<feColorMatrix type="matrix" values="0 0 0 0 0.419608 0 0 0 0 0.129412 0 0 0 0 0.658824 0 0 0 1 0"/>
<feBlend mode="normal" in2="effect2_dropShadow_0_1" result="effect3_dropShadow_0_1"/>
<feColorMatrix in="SourceAlpha" type="matrix" values="0 0 0 0 0 0 0 0 0 0 0 0 0 0 0 0 0 0 127 0" result="hardAlpha"/>
<feOffset/>
<feGaussianBlur stdDeviation="293.36"/>
<feColorMatrix type="matrix" values="0 0 0 0 0.419608 0 0 0 0 0.129412 0 0 0 0 0.658824 0 0 0 1 0"/>
<feBlend mode="normal" in2="effect3_dropShadow_0_1" result="effect4_dropShadow_0_1"/>
<feColorMatrix in="SourceAlpha" type="matrix" values="0 0 0 0 0 0 0 0 0 0 0 0 0 0 0 0 0 0 127 0" result="hardAlpha"/>
<feOffset/>
<feGaussianBlur stdDeviation="502.903"/>
<feColorMatrix type="matrix" values="0 0 0 0 0.419608 0 0 0 0 0.129412 0 0 0 0 0.658824 0 0 0 1 0"/>
<feBlend mode="normal" in2="effect4_dropShadow_0_1" result="effect5_dropShadow_0_1"/>
<feColorMatrix in="SourceAlpha" type="matrix" values="0 0 0 0 0 0 0 0 0 0 0 0 0 0 0 0 0 0 127 0" result="hardAlpha"/>
<feOffset/>
<feGaussianBlur stdDeviation="880.079"/>
<feColorMatrix type="matrix" values="0 0 0 0 0.419608 0 0 0 0 0.129412 0 0 0 0 0.658824 0 0 0 1 0"/>
<feBlend mode="normal" in2="effect5_dropShadow_0_1" result="effect6_dropShadow_0_1"/>
<feBlend mode="normal" in="SourceGraphic" in2="effect6_dropShadow_0_1" result="shape"/>
</filter>
<filter id="filter2_dddddd_0_1" x="-1705.22" y="0.074707" width="3911.21" height="3818.41" filterUnits="userSpaceOnUse" color-interpolation-filters="sRGB">
<feFlood flood-opacity="0" result="BackgroundImageFix"/>
<feColorMatrix in="SourceAlpha" type="matrix" values="0 0 0 0 0 0 0 0 0 0 0 0 0 0 0 0 0 0 127 0" result="hardAlpha"/>
<feOffset/>
<feGaussianBlur stdDeviation="22.3748"/>
<feColorMatrix type="matrix" values="0 0 0 0 0.847059 0 0 0 0 0.709804 0 0 0 0 0.996078 0 0 0 1 0"/>
<feBlend mode="normal" in2="BackgroundImageFix" result="effect1_dropShadow_0_1"/>
<feColorMatrix in="SourceAlpha" type="matrix" values="0 0 0 0 0 0 0 0 0 0 0 0 0 0 0 0 0 0 127 0" result="hardAlpha"/>
<feOffset/>
<feGaussianBlur stdDeviation="44.7496"/>
<feColorMatrix type="matrix" values="0 0 0 0 0.847059 0 0 0 0 0.709804 0 0 0 0 0.996078 0 0 0 1 0"/>
<feBlend mode="normal" in2="effect1_dropShadow_0_1" result="effect2_dropShadow_0_1"/>
<feColorMatrix in="SourceAlpha" type="matrix" values="0 0 0 0 0 0 0 0 0 0 0 0 0 0 0 0 0 0 127 0" result="hardAlpha"/>
<feOffset/>
<feGaussianBlur stdDeviation="156.624"/>
<feColorMatrix type="matrix" values="0 0 0 0 0.847059 0 0 0 0 0.709804 0 0 0 0 0.996078 0 0 0 1 0"/>
<feBlend mode="normal" in2="effect2_dropShadow_0_1" result="effect3_dropShadow_0_1"/>
<feColorMatrix in="SourceAlpha" type="matrix" values="0 0 0 0 0 0 0 0 0 0 0 0 0 0 0 0 0 0 127 0" result="hardAlpha"/>
<feOffset/>
<feGaussianBlur stdDeviation="313.248"/>
<feColorMatrix type="matrix" values="0 0 0 0 0.847059 0 0 0 0 0.709804 0 0 0 0 0.996078 0 0 0 1 0"/>
<feBlend mode="normal" in2="effect3_dropShadow_0_1" result="effect4_dropShadow_0_1"/>
<feColorMatrix in="SourceAlpha" type="matrix" values="0 0 0 0 0 0 0 0 0 0 0 0 0 0 0 0 0 0 127 0" result="hardAlpha"/>
<feOffset/>
<feGaussianBlur stdDeviation="536.996"/>
<feColorMatrix type="matrix" values="0 0 0 0 0.847059 0 0 0 0 0.709804 0 0 0 0 0.996078 0 0 0 1 0"/>
<feBlend mode="normal" in2="effect4_dropShadow_0_1" result="effect5_dropShadow_0_1"/>
<feColorMatrix in="SourceAlpha" type="matrix" values="0 0 0 0 0 0 0 0 0 0 0 0 0 0 0 0 0 0 127 0" result="hardAlpha"/>
<feOffset/>
<feGaussianBlur stdDeviation="939.743"/>
<feColorMatrix type="matrix" values="0 0 0 0 0.847059 0 0 0 0 0.709804 0 0 0 0 0.996078 0 0 0 1 0"/>
<feBlend mode="normal" in2="effect5_dropShadow_0_1" result="effect6_dropShadow_0_1"/>
<feBlend mode="normal" in="SourceGraphic" in2="effect6_dropShadow_0_1" result="shape"/>
</filter>
<radialGradient id="paint0_radial_0_1" cx="0" cy="0" r="1" gradientUnits="userSpaceOnUse" gradientTransform="translate(472.215 1712.49) rotate(90.4816) scale(368.917 679.44)">
<stop stop-color="#C084FC" stop-opacity="0"/>
<stop offset="0.0001" stop-color="#B77EF1" stop-opacity="0.045"/>
<stop offset="0.149869" stop-color="#6B4C93" stop-opacity="0.440917"/>
<stop offset="0.286829" stop-color="#433160" stop-opacity="0.650786"/>
<stop offset="0.534025" stop-color="#1C172F" stop-opacity="0.854988"/>
<stop offset="0.869003" stop-color="#00050D"/>
</radialGradient>
</defs>
</svg>
