<svg width="10501" height="2834" viewBox="0 0 10501 2834" fill="none" xmlns="http://www.w3.org/2000/svg">
<g clip-path="url(#clip0_32_311)">
<path d="M1116.38 841.502C1097.85 828.737 1082.26 812.472 1071.91 793.428C1071.14 788.95 1069.96 782.825 1068.72 775.259C1072.68 782.774 1077.93 792.038 1084.88 802.281C1098.42 822.303 1110.26 834.296 1116.38 841.502Z" fill="#DBC049"/>
<path d="M646.206 1683.52C644.919 1683.26 643.375 1684.91 641.831 1687.48C641.985 1687.12 641.985 1686.97 641.934 1686.97C641.831 1686.97 641.162 1688.15 640.698 1689.64C640.698 1689.64 640.681 1689.68 640.647 1689.75C637.301 1696.33 634.471 1706.06 635.191 1708.02C635.294 1708.22 636.169 1710.54 637.044 1710.44C637.404 1710.39 638.588 1709.97 640.698 1694.53C641.985 1695.97 644.867 1694.84 649.037 1693.35C648.728 1687.38 647.853 1683.88 646.206 1683.52Z" fill="#DBC049"/>
<path d="M186.527 1566.11C186.527 1566.11 186.939 1567.45 187.711 1570.13C183.284 1574.19 180.659 1576.66 180.145 1576.2C180.042 1576.15 179.99 1575.94 179.99 1575.74C179.99 1573.68 183.13 1566.63 186.527 1566.11Z" fill="#DBC049"/>
<path d="M312.268 1487.36C329.201 1480.88 338.26 1478.1 342.532 1477.22C329.613 1484.53 316.385 1491.84 303.055 1499.15C233.931 1536.93 102.373 1605.28 99.3881 1600.03C96.7631 1595.45 206.188 1527.77 312.268 1487.36Z" fill="#DBC049"/>
<path d="M588.301 1322.09C588.713 1322.76 579.963 1329.45 564.059 1340.46C564.676 1338.1 565.294 1335.73 565.86 1333.41C584.338 1323.17 588.044 1321.73 588.301 1322.09Z" fill="#DBC049"/>
<path d="M1072.68 802.28C1071.86 802.486 1069.8 798.06 1067.49 791.832C1068.62 791.729 1069.75 791.677 1070.88 791.574C1071.19 792.192 1071.55 792.81 1071.91 793.427C1072.89 799.038 1073.3 802.126 1072.68 802.28Z" fill="#DBC049"/>
<path d="M2053.5 451.608C2062.86 442.704 2061.27 427.829 2050.31 421.292C1988.03 384.027 1914.01 345.012 1825.59 310.989C1724.19 272.18 1631.8 250.717 1557.33 238.569C1582.65 246.496 1618.42 259.261 1659.13 278.923C1705.82 301.519 1744.57 326.225 1775.1 348.82C1811.23 375.277 1847.57 396.534 1891.47 431.483C1927.39 459.895 1956.73 486.145 1978.86 507.197C1981.85 509.925 1986.23 509.719 1993.84 508.535L2053.7 451.763L2053.5 451.557V451.608Z" fill="#DBC049"/>
<path d="M889.349 2397.11L879.158 2396.44L879.982 2397.01L886.57 2401.54L888.732 2403.03L891.923 2398.4L892.643 2397.37L889.349 2397.11Z" fill="#DBC049" stroke="#DBC34C" stroke-width="0.14" stroke-miterlimit="10"/>
<path d="M2605.1 1082.44C2587.6 1034.52 2577.87 1007.7 2565 980.731C2542.25 933.018 2520.43 899.459 2500.67 869.297C2476.58 832.701 2443.74 786.325 2400.09 734.545C2397.31 731.045 2391.5 730.685 2388.15 733.876L2229.78 888.495C2228.85 889.37 2228.29 890.348 2227.93 891.738C2223.81 909.238 2219.33 933.841 2216.71 963.386C2214.85 985.982 2215.42 1001.83 2214.85 1022.37C2212.28 1107.2 2210.58 1171.28 2221.75 1172.77C2224.74 1173.29 2225.87 1169.27 2240.07 1152.23C2249.18 1141.06 2260.92 1126.91 2277.34 1114.09C2283.15 1109.56 2293.96 1101.64 2309.04 1094.23C2328.65 1084.6 2343.58 1077.34 2354.03 1081.25C2373.23 1088.15 2371.37 1130.15 2370.65 1143.95C2359.43 1348.65 2287.22 1550.31 2253.66 1616.76C2215.06 1691.29 2129.41 1830.37 1960.23 1949.42C1873.92 2010.15 1743.03 2051.64 1479.91 2132.71C1415.83 2144.39 1374.3 2142.64 1347.84 2138.52C1347.84 2138.52 1340.38 2137.39 1331.99 2136.1L1303.68 2128.23L1222.72 2419.3L892.643 2397.37L891.922 2398.4L888.731 2403.03L886.569 2401.54L879.981 2397.01L879.158 2396.44L889.349 2397.11L892.643 2397.37L950.289 2313.32L941.642 2307.4L941.333 2307.14C935.929 2302.72 933.201 2300.55 932.275 2299.94C911.223 2285.99 891.613 2269.83 869.944 2256.85C851.93 2246.1 826.607 2229.06 797.475 2202.71C794.695 2205.18 791.967 2207.6 789.188 2210.07C787.232 2213 784.813 2216.09 781.879 2219.23C774.004 2227.62 765.615 2232.66 759.233 2235.75C747.343 2237.45 739.674 2238.48 739.674 2238.48C739.674 2238.48 723.049 2230.91 697.263 2219.13C668.645 2246.87 639.359 2274.72 609.404 2302.72C587.117 2323.56 564.882 2344.05 542.75 2364.17C546.096 2368.39 551.5 2374.98 558.654 2382.5C588.455 2414.05 618.256 2430.88 636.94 2441.22C636.94 2441.22 796.137 2529.45 889.297 2559.81C894.753 2561.56 900.312 2563.31 900.312 2563.31C902.01 2563.88 903.863 2564.45 905.767 2565.01C972.473 2585.7 1160.18 2637.23 1406.78 2629.25C1496.13 2626.37 1647.96 2619.62 1830.42 2556.57C1948.29 2515.81 2067.29 2451.88 2201.63 2348.53C2293.04 2278.22 2508.28 2093.43 2611.28 1782.65C2611.28 1782.65 2730.07 1424.21 2605.1 1082.44ZM1242.69 2499.13L1233.84 2496.66L1244.7 2497.38C1244.03 2497.89 1243.36 2498.46 1242.69 2499.13ZM1320.98 2451.42L1321.28 2446.99C1324.22 2447.3 1327.15 2447.66 1330.09 2447.97C1327.1 2449.05 1324.06 2450.18 1320.98 2451.42ZM1326.02 2139.45C1326.59 2138.99 1328.64 2140.84 1330.09 2142.18C1328.7 2141.15 1327.36 2140.22 1326.02 2139.45Z" fill="#DBC049"/>
<path d="M888.783 2398.04C889.812 2398.14 890.893 2398.25 891.922 2398.4L888.731 2403.03L886.569 2401.54L879.981 2397.01C877.82 2396.8 875.658 2396.55 873.496 2396.29V2396.08L879.158 2396.44L889.349 2397.11C889.194 2397.42 888.988 2397.73 888.783 2398.04Z" fill="#DBC049" stroke="#DBC34C" stroke-width="0.14" stroke-miterlimit="10"/>
<path d="M1244.7 2497.38C1244.03 2497.89 1243.36 2498.46 1242.69 2499.13L1233.84 2496.66L1244.7 2497.38Z" fill="#DBC049" stroke="#DBC34C" stroke-width="0.14" stroke-miterlimit="10"/>
<path d="M1330.09 2142.18C1328.7 2141.15 1327.36 2140.22 1326.02 2139.45C1326.59 2138.99 1328.64 2140.84 1330.09 2142.18Z" fill="#DBC049" stroke="#DBC34C" stroke-width="0.14" stroke-miterlimit="10"/>
<path d="M1321.29 2446.99C1324.22 2447.3 1327.15 2447.66 1330.09 2447.97C1327.1 2449.05 1324.06 2450.18 1320.98 2451.42L1321.29 2446.99Z" fill="#DBC049" stroke="#DBC34C" stroke-width="0.14" stroke-miterlimit="10"/>
<path d="M1141.6 1559.52L1142.12 1560.04V1559.52H1141.6Z" fill="#DBC049"/>
<path d="M701.946 1860.78C700.968 1861.61 700.042 1862.48 699.115 1863.31L702.821 1867.32L706.218 1864.18C704.725 1863 703.336 1861.87 701.946 1860.78Z" fill="#DBC049"/>
<path d="M1065.48 2042.43C1097.96 1993.79 1136.97 1941.65 1183.6 1888.27C1193.33 1877.15 1235.69 1829.08 1298.12 1770.92C1341.72 1730.25 1381.97 1696.95 1415.73 1670.7C1409.76 1659.79 1403.69 1648.77 1397.36 1637.66C1384.9 1615.73 1372.34 1594.68 1359.73 1574.35C1340.28 1551.8 1321.44 1536.57 1307.49 1526.68C1292.77 1516.24 1280.78 1509.91 1258.85 1498.22C1245.32 1491.02 1227.25 1481.49 1202.29 1471.61C1182.06 1463.53 1180.31 1464.41 1169.86 1459.72C1154.52 1452.82 1133.83 1439.96 1112.99 1413.86C1100.22 1428.84 1087.41 1443.82 1074.59 1458.79C1039.23 1498.74 996.355 1541.77 944.834 1584.74C853.783 1660.77 763.865 1713.16 689.44 1749.19C684.808 1763.5 679.609 1779.51 674.925 1793.87C670.087 1808.75 665.3 1823.67 660.462 1838.6C590.772 1785.95 521.082 1733.34 451.391 1680.69L559.169 1475.68L276.6 1635.13L344.077 1846.11L375.782 1817.96C401.517 1838.5 427.509 1859.03 453.759 1879.57C493.7 1910.92 533.537 1941.75 573.118 1972.12C562.515 1991.57 551.861 2011.03 541.258 2030.48C548.206 2038.62 555.206 2046.7 562.155 2054.83C425.862 2193.49 289.518 2332.11 153.226 2470.77C150.292 2471.03 89.2489 2476.94 64.9037 2526.15C42.8745 2570.67 67.3227 2617.26 91.2563 2641.34C119.359 2669.76 173.042 2693.74 221.835 2670.12C259.511 2651.9 282.055 2611.13 278.555 2567.59C422.414 2433.4 566.324 2299.16 710.182 2164.98C712.241 2166.16 714.3 2167.4 716.41 2168.63C730.77 2177.23 744.204 2186.18 756.711 2195.29C768.755 2187.52 780.953 2179.49 793.255 2171.21C801.696 2165.54 809.931 2159.93 818.063 2154.27C838.6 2174.09 861.041 2194.42 885.489 2214.96C919.974 2243.94 953.738 2269.36 985.804 2291.49C979.679 2302.1 973.297 2312.91 966.605 2323.87C959.039 2336.22 951.473 2348.16 943.907 2359.69C1025.44 2365.41 1106.96 2371.12 1188.54 2376.78C1222.36 2270.49 1256.18 2164.15 1289.94 2057.87C1281.86 2065.07 1209.54 2129.51 1201.21 2136.93C1196.11 2141.46 1136.4 2194.68 1131.21 2199.26C1074.54 2156.64 1017.82 2114.02 961.15 2071.4C961.613 2071.25 1000.68 2060.39 1001.14 2060.29C1002.33 2059.93 1064.24 2042.73 1065.48 2042.43ZM1141.65 1617.58L1142.07 1613.57H1142.84H1143.25C1143.15 1613.93 1143.04 1614.24 1142.94 1614.55C1142.58 1615.63 1142.27 1616.76 1141.91 1617.89C1141.81 1618.2 1141.65 1618.56 1141.55 1618.92L1141.65 1617.63V1617.58ZM1138 1613.62V1614.08L1137.54 1613.62H1138ZM1133.68 1701.58C1133.68 1701.58 1134.04 1701.07 1134.19 1700.86L1134.04 1702.3C1134.04 1702.3 1134.29 1702.77 1134.45 1703.03C1134.81 1703.69 1135.22 1704.36 1135.63 1704.98L1134.35 1706.11L1133.68 1706.73L1134.04 1702.3C1133.88 1702.05 1133.78 1701.84 1133.68 1701.58ZM702.822 1867.32L699.116 1863.31C700.043 1862.48 700.969 1861.61 701.947 1860.78C703.337 1861.86 704.726 1863 706.219 1864.18L702.822 1867.32ZM839.166 1970.47C837.519 1971.86 835.872 1973.25 834.225 1974.64C827.173 1967.84 818.887 1960.64 809.365 1953.38C801.387 1947.31 793.615 1942.06 786.306 1937.58C789.034 1934.75 791.711 1931.97 794.439 1929.14C876.482 1843.85 958.628 1758.51 1040.67 1673.22C1069.39 1667.46 1098.06 1661.75 1126.78 1655.98C1124.21 1681.46 1121.63 1706.94 1119.06 1732.42C1025.74 1811.78 932.481 1891.1 839.166 1970.47Z" fill="#DBC049"/>
<path d="M706.218 1864.18L702.821 1867.32L699.115 1863.31C700.042 1862.48 700.968 1861.61 701.946 1860.78C703.336 1861.87 704.725 1863 706.218 1864.18Z" fill="#DBC049"/>
<path d="M1138.1 1655.98L1137.95 1657.58C1137.79 1657.32 1137.69 1657.06 1137.59 1656.8C1137.74 1656.55 1137.95 1656.24 1138.1 1655.98Z" fill="#DBC049"/>
<path d="M1137.54 1662.47L1137.95 1657.58C1138.46 1658.66 1139.03 1659.63 1139.65 1660.51L1137.54 1662.47Z" fill="#DBC049"/>
<path d="M1295.09 1214C1283.35 1260.68 1352.84 1310.71 1367.3 1321.11C1389.48 1337.07 1408.01 1350.4 1435.08 1352.3C1467.05 1354.57 1482.9 1338.82 1500.4 1349.52C1509.3 1354.98 1514.76 1370.73 1525.21 1401.97C1537.2 1437.69 1536.89 1446.18 1545.49 1450.05C1560.67 1456.89 1587.74 1442.12 1597.37 1421.63C1600.56 1414.84 1602.41 1406.14 1599.63 1386.68C1594.69 1352.3 1581.46 1327.13 1577.09 1318.95C1544.92 1258.88 1528.81 1228.82 1527.47 1227.12C1497.21 1189.09 1428.19 1126.81 1371.83 1144.05C1348.77 1151.1 1327.05 1171.69 1322.67 1175.96C1309.65 1188.62 1298.79 1199.17 1295.09 1213.95V1214Z" fill="#DBC049"/>
<path d="M1676.94 953.245C1702.83 1006.11 1734.69 1063.45 1774.01 1123.05C1798.46 1160.11 1823.12 1194.03 1847.36 1224.91L2541.95 520.27L2567.84 210.414L2261.54 259.209L1664.02 910.833L1676.94 953.297V953.245Z" fill="#DBC049"/>
<path d="M1072.68 802.281C1070.11 802.95 1055.13 756.986 1057.96 755.802C1059.15 755.339 1062.18 762.957 1068.72 775.258C1071.55 792.295 1073.82 801.972 1072.68 802.281Z" fill="#DBC049"/>
<path d="M706.218 1864.18L702.821 1867.32L699.115 1863.31C700.042 1862.48 700.968 1861.61 701.946 1860.78C703.336 1861.87 704.725 1863 706.218 1864.18Z" fill="#DBC049"/>
<path d="M1138.1 1655.98L1137.95 1657.58C1137.79 1657.32 1137.69 1657.06 1137.59 1656.8C1137.74 1656.55 1137.95 1656.24 1138.1 1655.98Z" fill="#DBC049"/>
<path d="M1142.12 1559.52V1560.04L1141.6 1559.52H1142.12Z" fill="#DBC049"/>
<path d="M1147.63 1559.42C1147.52 1559.78 1147.42 1560.14 1147.32 1560.5C1146.96 1561.69 1146.6 1562.92 1146.24 1564.16L1145.98 1563.9L1146.39 1559.47H1147.21L1147.63 1559.42Z" fill="#DBC049"/>
<path d="M1138.1 1655.98L1137.95 1657.58C1137.79 1657.32 1137.69 1657.06 1137.59 1656.8C1137.74 1656.55 1137.95 1656.24 1138.1 1655.98Z" fill="#DBC049"/>
<path d="M1147.32 1560.5C1146.85 1562.05 1146.39 1563.64 1145.88 1565.29L1146.39 1559.47H1147.21L1147.32 1560.5Z" fill="#DBC049"/>
<path d="M1138.1 1655.98L1137.95 1657.58C1137.79 1657.32 1137.69 1657.06 1137.59 1656.8C1137.74 1656.55 1137.95 1656.24 1138.1 1655.98Z" fill="#DBC049"/>
<path d="M1137.54 1662.47L1137.95 1657.58C1138.46 1658.66 1139.03 1659.63 1139.65 1660.51L1137.54 1662.47Z" fill="#DBC049"/>
<path d="M1138.1 1655.98L1137.95 1657.58C1137.79 1657.32 1137.69 1657.06 1137.59 1656.8C1137.74 1656.55 1137.95 1656.24 1138.1 1655.98Z" fill="#DBC049"/>
<path d="M1138.36 1658.35L1138.26 1661.8L1137.54 1662.47L1137.95 1657.58C1137.95 1657.58 1138.21 1658.09 1138.36 1658.35Z" fill="#DBC049"/>
<path d="M1142.12 1559.52V1560.04L1141.6 1559.52H1142.12Z" fill="#DBC049"/>
<path d="M839.166 1970.47C837.519 1971.86 835.872 1973.25 834.225 1974.64C827.174 1967.84 818.887 1960.64 809.365 1953.38C801.387 1947.31 793.615 1942.06 786.307 1937.58C789.035 1934.75 791.711 1931.97 794.439 1929.14L839.166 1970.47Z" fill="#DBC049"/>
<path d="M1178.51 886.642C1182.26 886.642 1185.3 883.6 1185.3 879.848C1185.3 876.096 1182.26 873.054 1178.51 873.054C1174.75 873.054 1171.71 876.096 1171.71 879.848C1171.71 883.6 1174.75 886.642 1178.51 886.642Z" fill="#DBC049"/>
<path d="M892.643 2397.37L891.923 2398.4L888.732 2403.03L886.57 2401.54L879.982 2397.01L879.158 2396.44L889.349 2397.11L892.643 2397.37Z" fill="#DBC049" stroke="#DBC34C" stroke-width="0.14" stroke-miterlimit="10"/>
<path d="M1244.7 2497.38C1244.03 2497.89 1243.36 2498.46 1242.69 2499.13L1233.84 2496.66L1244.7 2497.38Z" fill="#DBC049" stroke="#DBC34C" stroke-width="0.14" stroke-miterlimit="10"/>
<path d="M1330.09 2142.18C1328.7 2141.15 1327.36 2140.22 1326.02 2139.45C1326.59 2138.99 1328.64 2140.84 1330.09 2142.18Z" fill="#DBC049" stroke="#DBC34C" stroke-width="0.14" stroke-miterlimit="10"/>
<path d="M1202.6 2110.68C1179.64 2128.33 1156.74 2145.93 1133.78 2163.59C1089.93 2134.77 1046.08 2105.94 1002.22 2077.12C1010.1 2076.29 1017.97 2075.42 1025.8 2074.54C1026.36 2074.85 1026.93 2075.21 1027.49 2075.52C1027.13 2075.06 1027.03 2074.7 1027.19 2074.39C1027.85 2074.24 1028.58 2074.08 1029.24 2073.88C1049.01 2069.09 1068.77 2064.3 1088.54 2059.51C1118.39 2072.85 1148.24 2086.18 1178.1 2099.51H1178.15C1181.85 2100.74 1185.1 2102.13 1187.93 2103.88H1187.98C1192.87 2106.15 1197.71 2108.41 1202.6 2110.68Z" fill="#DBC049"/>
<path d="M1029.24 2073.88C1028.58 2074.08 1027.85 2074.24 1027.19 2074.39C1027.39 2073.93 1028.06 2073.82 1029.24 2073.88Z" fill="#DBC049"/>
<path d="M1902.95 1324.87C1847.56 1285.23 1813.59 1242.1 1794.6 1213.59C1730.99 1142.25 1693.67 1076.67 1671.64 1030.14C1639.93 963.385 1623.52 901.465 1611.42 856.789C1593.2 788.898 1594.44 771.604 1578.58 716.478C1572.97 694.757 1566.08 673.603 1559.23 652.5C1546.47 613.227 1525.26 547.807 1493.81 514.917C1433.08 407.703 1361.17 333.636 1320.56 295.341C1287.57 264.15 1228.64 209.024 1135.74 157.09C1000.32 81.0156 857.386 48.4858 846.783 66.7066C838.96 80.3465 913.179 109.685 953.274 193.171C968.561 225.032 974.737 273.569 976.59 290.297C976.796 292.974 974.017 294.827 971.392 293.643C945.245 282.525 836.489 236.819 759.078 217.414C686.145 199.039 564.162 178.656 564.162 185.399C564.162 192.142 625.514 261.937 646.256 327.511C655.572 357.055 660.771 402.401 662.263 415.887C662.469 417.74 660.616 419.078 658.557 418.563C638.793 413.365 551.294 390.254 491.023 383.357C441.046 377.592 364.767 378.313 342.172 378.467C339.547 378.467 338.26 381.144 339.959 382.842C353.186 396.842 394.414 441.88 414.95 481.667H415.311C430.803 511.623 439.759 539.469 445.009 562.477C356.995 621.411 293.996 706.647 257.452 768.464C181.637 860.031 36.6977 1062.78 5.35253 1353.33C4.58048 1360.23 3.44814 1370.68 2.3158 1384.16C-1.4415 1428.38 -25.2206 1788.16 223.637 2112.84C243.35 2138.52 273.768 2175.74 315.407 2217.43C315.562 2217.27 315.768 2217.12 315.922 2216.91L323.128 2224.69L495.964 2064.97L486.854 2055.09C485.052 2052 482.324 2046.34 481.913 2038.82C481.81 2036.92 481.552 2029.4 485.567 2021.12C489.53 2012.93 494.729 2009.95 503.942 2001.82C509.089 1997.29 516.192 1990.54 524.067 1981.33C490.251 1951.63 454.994 1921.83 418.296 1892.08C406.046 1882.09 393.796 1872.31 381.598 1862.69C371.458 1876.74 358.642 1892.28 342.481 1907.98C338.569 1911.74 334.709 1915.29 330.9 1918.69L227.909 1605.95L618.257 1406.19C608.58 1435.38 592.367 1474.8 571.213 1526.38C545.89 1587.99 520.824 1637.19 502.707 1670.7C548.772 1708.17 594.838 1745.69 640.903 1783.22C646.05 1744.87 649.808 1709.77 649.036 1693.35C644.866 1694.84 641.984 1695.97 640.697 1694.53C638.587 1709.97 637.403 1710.39 637.043 1710.44C636.168 1710.54 635.293 1708.22 635.19 1708.02C634.47 1706.06 637.3 1696.33 640.646 1689.75C640.646 1689.75 640.663 1689.71 640.697 1689.64C641.161 1688.15 641.83 1686.97 641.933 1686.97C641.984 1686.97 641.984 1687.12 641.83 1687.48C643.374 1684.91 644.918 1683.26 646.205 1683.52C647.852 1683.88 648.727 1687.38 649.036 1693.35C652.175 1692.16 656.036 1690.83 660.462 1690.26C668.337 1689.23 675.182 1690.93 680.02 1692.68C675.543 1681.3 669.932 1664.58 666.587 1643.78C663.55 1624.69 658.197 1576.25 682.491 1510.47C729.329 1383.54 829.077 1347.05 815.798 1266.34C814.46 1258.21 812.298 1251.78 810.857 1247.87C799.173 1222.23 771.225 1214.77 741.012 1143.95C725.88 1108.89 703.697 1055.11 717.491 990.51C728.505 938.267 760.211 892.561 772.152 893.745C785.585 895.083 736.534 1019.85 776.835 1111.57C805.916 1177.51 854.246 1215.8 913.54 1261.81C956.826 1295.37 979.936 1306.34 1193.54 1416.43C1292.05 1467.18 1372.45 1509.49 1416.66 1577.13C1442.03 1615.88 1452.64 1657.37 1452.64 1657.37C1463.29 1698.7 1452.64 1756.35 1458.25 1756.35C1463.86 1756.35 1755.23 1608.83 1750.18 1603.58C1745.14 1598.38 1696.86 1604.25 1658.05 1591.13C1617.19 1577.28 1590.32 1556.02 1576.52 1543.41C1560.1 1525.19 1541.47 1501.26 1524.64 1471.56C1502.1 1431.41 1497.05 1372.73 1485.11 1366.35C1473.17 1359.97 1443.53 1373.1 1411.82 1368.05C1375.79 1362.29 1350.26 1348.13 1336.83 1339.54C1314.08 1311.54 1289.63 1277.31 1266.88 1236.7C1239.09 1186.92 1206.97 1108.53 1209.03 1101.95C1211.09 1095.41 1240.17 1088.97 1264.26 1085.63C1318.56 1077.86 1361.79 1094.74 1402.45 1111.42C1438.69 1126.09 1495 1154.09 1552.44 1206.33C1567.21 1233.66 1582.29 1265.37 1595.72 1301.45C1609.36 1337.84 1617.39 1398.37 1625.21 1401.92C1633.24 1405.32 1671.64 1383.54 1716.78 1391.99C1760.43 1400.22 1786.57 1424.51 1794.76 1432.8C1806.9 1449.63 1821.26 1473.77 1831.51 1504.76C1845.15 1546.24 1837.48 1601.06 1843.09 1605.44C1867.23 1624.38 1942.53 1578.67 1988.8 1522.98C2027.61 1476.19 2042.69 1426.27 2049.22 1394.87C2040.27 1389.46 1959.1 1365.01 1902.95 1324.87ZM97.9984 1601.88C97.844 1601.63 97.844 1601.27 97.8955 1600.85L98.3587 1602.24C98.3587 1602.24 98.0499 1602.04 97.9984 1601.88ZM1331.94 754.773C1332.4 789.258 1321.44 823.075 1296.42 846.031C1284.28 761.773 1259.06 668.919 1229.46 607.256C1264.15 620.69 1292.98 648.279 1309.03 674.014C1313.1 680.757 1316.86 688.015 1319.84 695.426C1320.15 695.426 1320.46 695.272 1320.77 695.221C1327.98 722.912 1331.84 738.662 1332.97 747.876C1333.23 750.089 1333.48 752.251 1333.69 754.361C1333.12 754.515 1332.5 754.67 1331.94 754.773Z" fill="#DBC049"/>
<path d="M10491.8 302.393C10473.6 311.503 10455.3 320.665 10437.1 311.503H10199.6C10117.4 311.503 10126.6 311.503 10126.6 375.431V1242.92C10126.6 1297.69 10099.2 1325.12 10044.4 1325.12H9852.63C9803.94 1325.12 9779.6 1300.78 9779.6 1252.09V402.813C9779.6 335.849 9746.14 302.393 9679.18 302.393H9460.02C9423.48 302.393 9405.26 293.283 9405.26 256.738V55.8463C9405.26 37.5741 9405.26 19.3018 9423.53 10.1914C9432.64 1.08105 9450.91 1.08105 9469.18 1.08105H10437.1C10464.5 1.08105 10491.8 1.08105 10501 28.4637V46.7359C10491.9 101.501 10491.9 165.428 10491.9 220.245V302.444L10491.8 302.393Z" fill="#DBC049"/>
<path d="M6583.78 1.0293C6592.89 19.3015 6592.89 46.6842 6592.89 74.0668V1251.98C6592.89 1325.02 6592.89 1334.18 6510.69 1325.02C6428.49 1315.91 6346.35 1325.02 6273.26 1325.02C6227.61 1325.02 6209.33 1315.91 6209.33 1270.26V55.846C6209.33 37.5738 6209.33 19.3015 6218.44 1.08077H6583.67L6583.78 1.0293Z" fill="#DBC049"/>
<path d="M10501 37.5738C10482.7 10.1912 10455.3 19.3015 10428 19.3015H9432.69V1.0293H10473.6C10491.9 1.0293 10501 10.1397 10501 37.5738Z" fill="#DBC049"/>
<path d="M4721.03 10.1912V1.0293H5086.26V10.1397C5077.15 19.2501 5058.88 28.4119 5040.61 28.4119H4775.79C4757.52 37.5223 4739.25 28.4119 4721.03 10.1397V10.1912Z" fill="#DBC049"/>
<path d="M4218.84 1.0293V10.1397C4209.73 19.2501 4200.56 19.2501 4200.56 19.2501C4109.26 28.3605 4008.79 28.3605 3917.48 19.2501C3908.37 19.2501 3899.21 10.1397 3890.1 10.1397V1.0293H4218.84Z" fill="#DBC049"/>
<path d="M5771.12 10.1914L6090.7 1.08105V10.1914C6081.59 19.3018 6063.31 28.4637 6045.04 28.4637H5816.77C5798.5 28.4637 5789.39 28.4637 5771.12 10.1914Z" fill="#DBC049"/>
<path d="M8400.82 1.0293V10.1397C8391.71 19.2501 8373.44 28.4119 8355.17 28.4119H8126.9C8108.63 28.4119 8090.35 19.3015 8081.24 10.1397V1.0293H8400.82Z" fill="#DBC049"/>
<path d="M8976.1 10.1914L9286.57 1.08105V10.1914C9286.57 19.3018 9277.46 19.3018 9268.3 28.4637C9176.99 37.5741 9085.68 37.5741 8985.21 28.4637C8985.21 19.3533 8976.1 19.3533 8976.1 10.1914Z" fill="#DBC049"/>
<path d="M10491.8 302.393C10491.8 220.194 10491.8 138.046 10500.9 64.957V302.393H10491.8Z" fill="#DBC049"/>
<path d="M3890.1 19.3015H4218.84C4237.11 28.4119 4227.95 55.846 4227.95 74.0668V621.925C4227.95 640.198 4227.95 658.47 4237.06 676.691C4255.33 667.58 4264.44 649.308 4273.6 631.036C4401.45 439.254 4538.41 256.635 4666.21 64.9049C4675.32 46.6327 4693.6 19.25 4720.98 10.1396H5086.21C5113.59 28.4119 5086.21 46.6842 5077.1 55.7945C4940.14 256.686 4803.18 466.689 4666.21 667.58C4638.83 694.963 4638.83 749.78 4666.21 777.162C5031.44 1297.64 5396.68 1818.11 5761.96 2338.59C5862.38 2484.67 5971.96 2639.9 6072.42 2786.03C6081.53 2795.14 6090.7 2813.41 6081.53 2822.57H5725.41C5698.03 2822.57 5670.65 2813.46 5652.38 2786.03L4848.83 1644.61C4711.87 1452.82 4574.91 1261.09 4437.94 1060.2C4419.67 1032.82 4401.4 1032.82 4383.18 1060.2L4246.22 1279.37C4237.11 1297.64 4227.95 1315.91 4237.11 1334.13V2776.87H4255.38L4657.16 1553.3C4684.54 1571.57 4702.81 1598.95 4721.08 1626.33C4794.12 1735.92 4867.15 1845.5 4949.35 1945.92C4967.62 1964.19 4967.62 2000.68 4958.46 2028.12C4921.92 2119.43 4885.42 2210.74 4839.77 2302.05C4821.5 2338.59 4830.66 2347.7 4867.15 2347.7H5177.62C5205 2347.7 5223.27 2347.7 5241.54 2365.97C5305.47 2457.28 5369.4 2539.48 5433.32 2630.79C5415.05 2649.06 5396.78 2639.9 5387.67 2639.9H4775.9C4702.86 2639.9 4702.86 2649.01 4666.32 2712.94C4602.39 2849.91 4648.04 2822.52 4501.97 2822.52H3944.97C3899.31 2822.52 3890.2 2813.41 3890.2 2767.76V2347.7C3890.2 2302.05 3881.09 2292.94 3835.44 2292.94H3406.28C3360.63 2292.94 3342.36 2302.05 3342.36 2356.86V2758.65C3342.36 2801.26 3321.05 2822.57 3278.43 2822.57H3050.16C3013.62 2822.57 2995.4 2813.46 2995.4 2767.81V1544.24C2995.4 1507.69 3004.51 1498.58 3041.05 1498.58H3296.7C3333.25 1498.58 3342.36 1516.85 3342.36 1553.35V1927.75C3342.36 1973.4 3351.47 1982.51 3397.12 1982.51H3826.28C3871.93 1982.51 3881.04 1973.4 3881.04 1927.75V74.1183C3890.15 65.0079 3890.15 37.5738 3890.15 19.353L3890.1 19.3015Z" fill="#DBC049"/>
<path d="M5771.12 10.1914H6090.7C6099.81 28.4637 6108.97 46.7359 6099.81 64.9567V1252.04C6099.81 1294.65 6075.46 1315.96 6026.77 1315.96H5825.88C5789.34 1325.07 5752.85 1306.85 5734.58 1270.31C5579.34 1051.14 5415 832.031 5259.77 612.867C5250.66 603.756 5250.66 585.484 5223.22 585.484V1389.05C5204.95 1379.94 5186.68 1361.67 5177.57 1343.4L4912.76 968.995C4894.48 941.613 4885.37 914.23 4885.37 877.686V548.94C4885.37 521.557 4894.48 494.174 4912.76 466.74L5195.84 46.6844C5223.22 1.02954 5232.38 1.02954 5268.88 46.6844L5725.41 649.36C5734.52 667.632 5752.8 685.904 5780.18 695.015V74.1185C5752.8 55.8463 5761.91 28.4637 5771.07 10.1914H5771.12Z" fill="#DBC049"/>
<path d="M8976.1 10.1914H9286.57C9304.84 28.4637 9304.84 46.7359 9304.84 64.9567V1270.31C9304.84 1315.96 9286.57 1334.23 9240.91 1334.23H9012.64C8966.99 1334.23 8948.72 1315.96 8948.72 1279.47V886.848C8948.72 813.81 8948.72 804.648 8875.68 804.648H8473.91C8431.29 804.648 8409.98 828.994 8409.98 877.686V1270.31C8409.98 1319 8385.64 1343.34 8336.95 1343.34H8126.95C8084.33 1343.34 8063.02 1322.04 8063.02 1279.42V74.1185C8063.02 55.8463 8053.91 28.4637 8072.13 10.1914H8391.71C8409.98 28.4637 8400.82 46.7359 8400.82 64.9567V430.196C8400.82 475.851 8409.93 494.123 8455.58 494.123H8884.74C8930.39 494.123 8939.51 475.851 8939.51 439.358V74.1185C8957.78 55.8463 8948.62 28.4637 8976.05 10.1914H8976.1Z" fill="#DBC049"/>
<path d="M7652.09 567.212H7907.74C7944.28 567.212 7962.5 576.322 7962.5 612.867V1032.92C7962.5 1060.31 7944.23 1096.85 7916.85 1115.12C7706.85 1316.01 7396.39 1379.94 7122.46 1279.47C6839.38 1188.16 6665.92 923.341 6693.31 585.484C6720.69 293.283 6948.96 65.0083 7232.04 19.3534C7451.2 -35.4119 7679.47 28.4638 7834.7 183.701C7944.28 293.283 7944.28 302.393 7807.32 375.482C7770.78 393.754 7725.12 412.027 7688.63 439.409C7652.14 466.792 7642.98 457.681 7624.71 430.299C7542.51 311.606 7396.44 265.952 7259.48 320.717C7076.86 402.916 6985.55 612.918 7067.7 795.538C7149.9 978.157 7359.89 1069.47 7542.51 987.319C7551.62 987.319 7551.62 978.209 7560.78 978.209L7588.16 969.099C7615.54 950.826 7624.71 914.333 7615.54 886.899C7606.43 850.355 7579 859.517 7560.78 859.517H7378.16C7341.62 859.517 7332.51 850.406 7332.51 813.862V612.97C7332.51 576.425 7350.78 558.205 7387.28 558.205L7652.09 567.315V567.212Z" fill="#DBC049"/>
<path d="M7378.16 2019.06C7396.44 2019.06 7405.55 2000.79 7414.71 1982.51C7524.29 1845.55 7624.71 1699.42 7734.29 1562.46C7752.56 1525.91 7798.21 1507.69 7834.7 1507.69H8181.66C8190.77 1525.96 8181.66 1535.07 8172.55 1544.24C8026.48 1717.75 7880.36 1900.37 7725.12 2073.87C7697.74 2101.26 7697.74 2137.8 7716.01 2165.18C7716.01 2165.18 7716.01 2174.29 7725.12 2174.29C7871.2 2366.08 8026.43 2557.81 8172.55 2758.7L8218.21 2813.46C8199.93 2831.74 8172.55 2822.57 8154.28 2822.57H7862.09C7825.54 2831.68 7789.05 2804.3 7770.78 2776.92C7679.47 2649.06 7588.16 2521.26 7505.96 2393.41C7496.85 2375.14 7487.69 2356.86 7460.31 2347.75C7396.38 2384.3 7359.89 2457.33 7369 2539.53C7378.11 2621.73 7369 2703.88 7369 2776.97C7369 2813.51 7359.89 2831.74 7323.35 2831.74H7095.08C7022.04 2831.74 7031.15 2831.74 7031.15 2767.81V1580.73C7031.15 1535.07 7040.26 1516.8 7085.92 1525.96H7323.35C7369 1525.96 7378.11 1535.07 7378.11 1580.73V1982.51C7369 1991.62 7359.84 2000.79 7378.11 2019.06H7378.16Z" fill="#DBC049"/>
<path d="M8775.21 2831.74C8592.6 2840.85 8419.09 2786.08 8273.02 2685.66C8218.26 2649.12 8218.26 2640.01 8254.75 2585.24C8291.29 2530.47 8327.78 2475.66 8364.33 2420.89C8382.6 2393.51 8400.87 2384.35 8428.25 2411.78C8519.56 2493.98 8638.25 2548.75 8756.99 2548.75C8811.76 2557.86 8866.57 2548.75 8921.34 2521.36C8957.88 2512.25 8976.1 2484.82 8976.1 2448.33C8976.1 2411.83 8948.72 2393.56 8921.34 2375.29C8839.14 2347.91 8747.83 2320.52 8665.68 2311.36C8556.11 2293.09 8455.69 2247.44 8373.49 2183.51C8227.42 2037.43 8227.42 1800 8373.49 1653.87C8391.76 1635.6 8419.14 1617.33 8437.42 1599.1C8656.57 1471.25 8884.84 1489.52 9113.11 1580.83C9158.77 1599.1 9213.53 1626.49 9250.07 1653.87C9277.46 1672.14 9286.62 1690.41 9259.18 1726.91C9213.53 1781.67 9176.99 1836.49 9140.49 1891.25C9122.22 1918.64 9094.84 1918.64 9067.46 1900.37C8967.04 1836.44 8848.3 1799.95 8729.61 1799.95C8702.23 1799.95 8665.68 1809.06 8638.3 1818.22C8601.76 1836.49 8592.65 1872.98 8601.76 1909.53C8610.87 1927.8 8620.03 1936.91 8638.3 1946.07C8693.07 1973.45 8756.99 1991.73 8820.92 2000.84C8912.23 2019.11 8994.42 2046.49 9085.73 2073.87C9213.58 2119.53 9304.89 2238.22 9314 2375.19C9332.27 2530.42 9259.24 2685.66 9122.22 2767.81C9021.81 2822.57 8893.95 2840.85 8775.26 2831.74H8775.21Z" fill="#DBC049"/>
<path d="M6355.46 2831.74H6282.42C6227.66 2831.74 6182 2804.35 6154.57 2758.7C6008.5 2548.7 5862.38 2338.64 5716.3 2137.75C5688.92 2101.21 5679.76 2055.55 5698.03 2019.06C5771.07 1726.86 5962.84 1580.78 6245.88 1525.96C6492.42 1471.2 6748.07 1580.73 6885.03 1799.89C6921.58 1854.66 6921.58 1863.82 6857.65 1891.2C6793.72 1918.59 6738.96 1945.97 6675.03 1982.51C6656.76 2000.79 6629.38 1991.62 6620.27 1973.4C6620.27 1973.4 6620.27 1964.29 6611.16 1964.29C6538.12 1836.44 6382.89 1772.51 6245.93 1827.33C6108.97 1872.98 6008.5 2000.84 6008.5 2146.91C5990.23 2338.69 6127.19 2512.15 6318.96 2530.42H6364.62C6465.04 2530.42 6556.4 2475.66 6602.05 2393.46C6629.43 2356.91 6647.7 2347.8 6693.36 2366.08C6739.01 2384.35 6802.94 2420.84 6857.7 2448.28C6912.47 2475.66 6921.63 2484.82 6885.08 2539.59C6775.5 2740.48 6565.51 2840.9 6355.46 2831.79V2831.74Z" fill="#DBC049"/>
</g>
<defs>
<clipPath id="clip0_32_311">
<rect width="10501" height="2834" fill="white"/>
</clipPath>
</defs>
</svg>
