<svg width="2663" height="2618" viewBox="0 0 2663 2618" fill="none" xmlns="http://www.w3.org/2000/svg">
<g clip-path="url(#clip0_32_309)">
<path d="M1116.68 779.744C1098.15 766.979 1082.55 750.713 1072.2 731.669C1071.43 727.191 1070.25 721.066 1069.01 713.5C1072.97 721.014 1078.23 730.279 1085.18 740.522C1098.72 760.545 1110.56 772.537 1116.68 779.744Z" fill="#DBC049"/>
<path d="M646.379 1621.77C645.092 1621.51 643.547 1623.16 642.003 1625.73C642.157 1625.37 642.157 1625.22 642.105 1625.22C642.003 1625.22 641.333 1626.4 640.87 1627.89C640.87 1627.89 640.853 1627.93 640.818 1628C637.472 1634.58 634.64 1644.31 635.361 1646.27C635.464 1646.47 636.339 1648.79 637.215 1648.69C637.575 1648.64 638.759 1648.22 640.87 1632.78C642.157 1634.22 645.04 1633.09 649.21 1631.6C648.901 1625.63 648.026 1622.13 646.379 1621.77Z" fill="#DBC049"/>
<path d="M186.578 1504.36C186.578 1504.36 186.989 1505.7 187.762 1508.38C183.334 1512.44 180.708 1514.91 180.194 1514.45C180.091 1514.4 180.039 1514.19 180.039 1513.99C180.039 1511.93 183.18 1504.88 186.578 1504.36Z" fill="#DBC049"/>
<path d="M312.352 1425.61C329.291 1419.12 338.352 1416.34 342.625 1415.47C329.703 1422.78 316.471 1430.09 303.137 1437.4C233.994 1475.18 102.402 1543.53 99.4155 1538.28C96.7898 1533.7 206.244 1466.01 312.352 1425.61Z" fill="#DBC049"/>
<path d="M588.46 1260.33C588.872 1261 580.119 1267.69 564.211 1278.71C564.829 1276.34 565.447 1273.97 566.013 1271.66C584.496 1261.41 588.202 1259.97 588.46 1260.33Z" fill="#DBC049"/>
<path d="M1072.97 740.522C1072.15 740.728 1070.09 736.301 1067.77 730.073C1068.91 729.97 1070.04 729.919 1071.17 729.816C1071.48 730.434 1071.84 731.051 1072.2 731.669C1073.18 737.279 1073.59 740.368 1072.97 740.522Z" fill="#DBC049"/>
<path d="M2054.05 389.846C2063.42 380.942 2061.82 366.066 2050.86 359.529C1988.56 322.264 1914.53 283.248 1826.08 249.226C1724.66 210.416 1632.24 188.952 1557.75 176.805C1583.08 184.732 1618.86 197.497 1659.58 217.159C1706.28 239.755 1745.04 264.461 1775.57 287.057C1811.72 313.514 1848.06 334.772 1891.98 369.721C1927.91 398.133 1957.26 424.384 1979.4 445.435C1982.38 448.163 1986.76 447.958 1994.38 446.774L2054.26 390.001L2054.05 389.795V389.846Z" fill="#DBC049"/>
<path d="M889.588 2335.37L879.395 2334.7L880.218 2335.27L886.808 2339.8L888.971 2341.29L892.162 2336.66L892.883 2335.63L889.588 2335.37Z" fill="#DBC049" stroke="#DBC34C" stroke-width="0.14" stroke-miterlimit="10"/>
<path d="M2605.8 1020.68C2588.3 972.762 2578.57 945.945 2565.7 918.974C2542.94 871.26 2521.11 837.7 2501.34 807.538C2477.25 770.942 2444.4 724.566 2400.74 672.785C2397.96 669.285 2392.14 668.925 2388.8 672.116L2230.38 826.737C2229.45 827.612 2228.89 828.59 2228.53 829.98C2224.41 847.48 2219.93 872.083 2217.3 901.628C2215.45 924.224 2216.02 940.077 2215.45 960.615C2212.88 1045.44 2211.18 1109.52 2222.35 1111.01C2225.34 1111.53 2226.47 1107.51 2240.68 1090.48C2249.79 1079.31 2261.53 1065.15 2277.95 1052.34C2283.77 1047.81 2294.58 1039.88 2309.67 1032.47C2329.28 1022.84 2344.21 1015.59 2354.66 1019.5C2373.87 1026.4 2372.01 1068.4 2371.29 1082.19C2360.07 1286.89 2287.84 1488.56 2254.27 1555.01C2215.66 1629.54 2129.99 1768.62 1960.76 1887.67C1874.42 1948.41 1743.5 1989.89 1480.31 2070.96C1416.22 2082.64 1374.67 2080.89 1348.21 2076.78C1348.21 2076.78 1340.74 2075.64 1332.35 2074.36L1304.03 2066.48L1223.05 2357.55L892.883 2335.63L892.163 2336.66L888.971 2341.29L886.808 2339.8L880.218 2335.27L879.395 2334.7L889.588 2335.37L892.883 2335.63L950.545 2251.57L941.896 2245.65L941.587 2245.4C936.181 2240.97 933.453 2238.81 932.526 2238.19C911.469 2224.24 891.854 2208.08 870.179 2195.11C852.16 2184.35 826.83 2167.31 797.69 2140.96C794.91 2143.43 792.181 2145.85 789.401 2148.32C787.445 2151.26 785.025 2154.34 782.09 2157.48C774.213 2165.87 765.821 2170.92 759.437 2174.01C747.545 2175.7 739.874 2176.73 739.874 2176.73C739.874 2176.73 723.244 2169.17 697.451 2157.38C668.826 2185.12 639.532 2212.97 609.568 2240.97C587.276 2261.82 565.035 2282.3 542.896 2302.43C546.243 2306.65 551.649 2313.24 558.805 2320.75C588.614 2352.3 618.423 2369.13 637.112 2379.48C637.112 2379.48 796.351 2467.7 889.537 2498.07C894.994 2499.82 900.555 2501.57 900.555 2501.57C902.254 2502.14 904.107 2502.7 906.012 2503.27C972.735 2523.96 1160.5 2575.48 1407.16 2567.51C1496.53 2564.62 1648.41 2557.88 1830.92 2494.83C1948.82 2454.06 2067.85 2390.14 2202.22 2286.78C2293.65 2216.47 2508.96 2031.69 2611.98 1720.9C2611.98 1720.9 2730.8 1362.45 2605.8 1020.68ZM1243.02 2437.39L1234.17 2434.92L1245.03 2435.64C1244.36 2436.15 1243.69 2436.72 1243.02 2437.39ZM1321.33 2389.67L1321.64 2385.25C1324.58 2385.55 1327.51 2385.91 1330.44 2386.22C1327.46 2387.3 1324.42 2388.44 1321.33 2389.67ZM1326.38 2077.7C1326.94 2077.24 1329 2079.09 1330.44 2080.43C1329.05 2079.4 1327.72 2078.47 1326.38 2077.7Z" fill="#DBC049"/>
<path d="M889.021 2336.3C890.051 2336.4 891.132 2336.5 892.162 2336.66L888.97 2341.29L886.807 2339.8L880.217 2335.27C878.055 2335.06 875.893 2334.8 873.73 2334.55V2334.34L879.394 2334.7L889.587 2335.37C889.433 2335.68 889.227 2335.99 889.021 2336.3Z" fill="#DBC049" stroke="#DBC34C" stroke-width="0.14" stroke-miterlimit="10"/>
<path d="M1245.03 2435.64C1244.36 2436.15 1243.69 2436.72 1243.03 2437.39L1234.17 2434.92L1245.03 2435.64Z" fill="#DBC049" stroke="#DBC34C" stroke-width="0.14" stroke-miterlimit="10"/>
<path d="M1330.44 2080.43C1329.05 2079.4 1327.72 2078.47 1326.38 2077.7C1326.94 2077.24 1329 2079.09 1330.44 2080.43Z" fill="#DBC049" stroke="#DBC34C" stroke-width="0.14" stroke-miterlimit="10"/>
<path d="M1321.64 2385.25C1324.58 2385.55 1327.51 2385.91 1330.44 2386.22C1327.46 2387.3 1324.42 2388.44 1321.33 2389.67L1321.64 2385.25Z" fill="#DBC049" stroke="#DBC34C" stroke-width="0.14" stroke-miterlimit="10"/>
<path d="M1141.91 1497.77L1142.42 1498.29V1497.77H1141.91Z" fill="#DBC049"/>
<path d="M702.136 1799.04C701.158 1799.86 700.231 1800.73 699.305 1801.56L703.012 1805.57L706.409 1802.43C704.916 1801.25 703.526 1800.12 702.136 1799.04Z" fill="#DBC049"/>
<path d="M1065.77 1980.68C1098.25 1932.04 1137.28 1879.9 1183.92 1826.52C1193.65 1815.4 1236.02 1767.33 1298.47 1709.17C1342.08 1668.5 1382.34 1635.2 1416.11 1608.95C1410.14 1598.04 1404.07 1587.02 1397.73 1575.91C1385.28 1553.98 1372.71 1532.93 1360.1 1512.6C1340.64 1490.05 1321.8 1474.82 1307.84 1464.93C1293.12 1454.48 1281.12 1448.15 1259.19 1436.47C1245.65 1429.26 1227.58 1419.74 1202.61 1409.86C1182.38 1401.78 1180.63 1402.65 1170.18 1397.97C1154.83 1391.07 1134.14 1378.2 1113.29 1352.11C1100.52 1367.09 1087.7 1382.06 1074.88 1397.04C1039.51 1436.98 996.624 1480.01 945.089 1522.99C854.014 1599.02 764.072 1651.41 689.626 1687.44C684.993 1701.75 679.793 1717.76 675.108 1732.12C670.268 1747 665.48 1761.92 660.641 1776.85C590.932 1724.2 521.223 1671.59 451.513 1618.94L559.321 1413.92L276.674 1573.38L344.17 1784.37L375.884 1756.21C401.626 1776.75 427.625 1797.29 453.882 1817.82C493.833 1849.17 533.682 1880 573.273 1910.37C562.667 1929.82 552.01 1949.28 541.404 1968.74C548.355 1976.87 555.356 1984.95 562.307 1993.08C425.978 2131.75 289.597 2270.36 153.268 2409.03C150.333 2409.28 89.2734 2415.2 64.9216 2464.41C42.8865 2508.93 67.3413 2555.51 91.2813 2579.6C119.391 2608.01 173.089 2632 221.896 2608.37C259.582 2590.15 282.132 2549.39 278.631 2505.84C422.528 2371.66 566.477 2237.42 710.374 2103.23C712.433 2104.42 714.493 2105.65 716.604 2106.89C730.968 2115.48 744.405 2124.44 756.915 2133.55C768.963 2125.78 781.164 2117.75 793.469 2109.46C801.912 2103.8 810.15 2098.19 818.284 2092.53C838.826 2112.34 861.273 2132.67 885.728 2153.21C920.222 2182.19 953.995 2207.62 986.07 2229.75C979.943 2240.35 973.559 2251.16 966.866 2262.13C959.298 2274.48 951.73 2286.42 944.162 2297.95C1025.71 2303.66 1107.26 2309.38 1188.86 2315.04C1222.69 2208.75 1256.51 2102.41 1290.29 1996.12C1282.2 2003.33 1209.87 2067.77 1201.53 2075.18C1196.43 2079.71 1136.71 2132.93 1131.51 2137.51C1074.83 2094.89 1018.09 2052.28 961.409 2009.66C961.872 2009.5 1000.95 1998.64 1001.41 1998.54C1002.6 1998.18 1064.53 1980.99 1065.77 1980.68ZM1141.96 1555.83L1142.37 1551.82H1143.15H1143.56C1143.46 1552.18 1143.35 1552.49 1143.25 1552.8C1142.89 1553.88 1142.58 1555.01 1142.22 1556.14C1142.12 1556.45 1141.96 1556.81 1141.86 1557.17L1141.96 1555.88V1555.83ZM1138.31 1551.87V1552.33L1137.84 1551.87H1138.31ZM1133.98 1639.83C1133.98 1639.83 1134.34 1639.32 1134.5 1639.11L1134.34 1640.55C1134.34 1640.55 1134.6 1641.02 1134.76 1641.27C1135.12 1641.94 1135.53 1642.61 1135.94 1643.23L1134.65 1644.36L1133.98 1644.98L1134.34 1640.55C1134.19 1640.3 1134.09 1640.09 1133.98 1639.83ZM703.012 1805.57L699.305 1801.56C700.232 1800.73 701.159 1799.86 702.137 1799.04C703.527 1800.12 704.917 1801.25 706.41 1802.43L703.012 1805.57ZM839.392 1908.72C837.745 1910.11 836.098 1911.5 834.45 1912.89C827.397 1906.1 819.108 1898.89 809.583 1891.63C801.603 1885.56 793.829 1880.31 786.519 1875.83C789.247 1873 791.924 1870.22 794.653 1867.39C876.718 1782.1 958.886 1696.76 1040.95 1611.47C1069.68 1605.71 1098.36 1599.99 1127.08 1594.23C1124.51 1619.71 1121.94 1645.19 1119.36 1670.67C1026.02 1750.03 932.733 1829.35 839.392 1908.72Z" fill="#DBC049"/>
<path d="M706.409 1802.43L703.012 1805.57L699.305 1801.56C700.231 1800.73 701.158 1799.86 702.136 1799.04C703.526 1800.12 704.916 1801.25 706.409 1802.43Z" fill="#DBC049"/>
<path d="M1138.41 1594.23L1138.25 1595.83C1138.1 1595.57 1138 1595.31 1137.89 1595.05C1138.05 1594.8 1138.25 1594.49 1138.41 1594.23Z" fill="#DBC049"/>
<path d="M1137.84 1600.72L1138.26 1595.83C1138.77 1596.91 1139.34 1597.88 1139.95 1598.76L1137.84 1600.72Z" fill="#DBC049"/>
<path d="M1295.44 1152.24C1283.7 1198.93 1353.2 1248.96 1367.67 1259.36C1389.86 1275.31 1408.39 1288.64 1435.47 1290.55C1467.44 1292.81 1483.3 1277.06 1500.81 1287.77C1509.71 1293.22 1515.17 1308.97 1525.62 1340.22C1537.62 1375.94 1537.31 1384.43 1545.9 1388.29C1561.09 1395.14 1588.17 1380.37 1597.8 1359.88C1600.99 1353.09 1602.85 1344.39 1600.07 1324.93C1595.12 1290.55 1581.89 1265.38 1577.52 1257.19C1545.34 1197.13 1529.22 1167.07 1527.89 1165.37C1497.61 1127.33 1428.57 1065.05 1372.2 1082.29C1349.13 1089.35 1327.41 1109.93 1323.03 1114.21C1310.01 1126.87 1299.14 1137.42 1295.44 1152.19V1152.24Z" fill="#DBC049"/>
<path d="M1677.39 891.437C1703.29 944.298 1735.16 1001.64 1774.49 1061.24C1798.95 1098.3 1823.61 1132.22 1847.86 1163.1L2542.63 458.458L2568.53 148.599L2262.15 197.394L1664.47 849.024L1677.39 891.488V891.437Z" fill="#DBC049"/>
<path d="M1072.97 740.522C1070.4 741.191 1055.42 695.227 1058.25 694.043C1059.43 693.58 1062.47 701.198 1069.01 713.499C1071.84 730.537 1074.11 740.213 1072.97 740.522Z" fill="#DBC049"/>
<path d="M706.409 1802.43L703.012 1805.57L699.305 1801.56C700.231 1800.73 701.158 1799.86 702.136 1799.04C703.526 1800.12 704.916 1801.25 706.409 1802.43Z" fill="#DBC049"/>
<path d="M1138.41 1594.23L1138.25 1595.83C1138.1 1595.57 1138 1595.31 1137.89 1595.05C1138.05 1594.8 1138.25 1594.49 1138.41 1594.23Z" fill="#DBC049"/>
<path d="M1142.42 1497.77V1498.29L1141.91 1497.77H1142.42Z" fill="#DBC049"/>
<path d="M1147.93 1497.67C1147.83 1498.03 1147.73 1498.39 1147.63 1498.75C1147.27 1499.93 1146.9 1501.17 1146.54 1502.4L1146.29 1502.15L1146.7 1497.72H1147.52L1147.93 1497.67Z" fill="#DBC049"/>
<path d="M1138.41 1594.23L1138.25 1595.83C1138.1 1595.57 1138 1595.31 1137.89 1595.05C1138.05 1594.8 1138.25 1594.49 1138.41 1594.23Z" fill="#DBC049"/>
<path d="M1147.63 1498.75C1147.16 1500.29 1146.7 1501.89 1146.18 1503.54L1146.7 1497.72H1147.52L1147.63 1498.75Z" fill="#DBC049"/>
<path d="M1138.41 1594.23L1138.25 1595.83C1138.1 1595.57 1138 1595.31 1137.89 1595.05C1138.05 1594.8 1138.25 1594.49 1138.41 1594.23Z" fill="#DBC049"/>
<path d="M1137.84 1600.72L1138.26 1595.83C1138.77 1596.91 1139.34 1597.88 1139.95 1598.76L1137.84 1600.72Z" fill="#DBC049"/>
<path d="M1138.41 1594.23L1138.25 1595.83C1138.1 1595.57 1138 1595.31 1137.89 1595.05C1138.05 1594.8 1138.25 1594.49 1138.41 1594.23Z" fill="#DBC049"/>
<path d="M1138.67 1596.6L1138.56 1600.05L1137.84 1600.72L1138.26 1595.83C1138.26 1595.83 1138.51 1596.34 1138.67 1596.6Z" fill="#DBC049"/>
<path d="M1142.42 1497.77V1498.29L1141.91 1497.77H1142.42Z" fill="#DBC049"/>
<path d="M839.391 1908.72C837.744 1910.11 836.096 1911.5 834.449 1912.89C827.396 1906.1 819.107 1898.89 809.582 1891.63C801.602 1885.56 793.828 1880.31 786.518 1875.83C789.246 1873 791.923 1870.22 794.652 1867.39L839.391 1908.72Z" fill="#DBC049"/>
<path d="M1178.83 824.884C1182.58 824.884 1185.62 821.842 1185.62 818.09C1185.62 814.337 1182.58 811.295 1178.83 811.295C1175.07 811.295 1172.03 814.337 1172.03 818.09C1172.03 821.842 1175.07 824.884 1178.83 824.884Z" fill="#DBC049"/>
<path d="M892.883 2335.63L892.162 2336.66L888.971 2341.29L886.808 2339.8L880.218 2335.27L879.395 2334.7L889.588 2335.37L892.883 2335.63Z" fill="#DBC049" stroke="#DBC34C" stroke-width="0.14" stroke-miterlimit="10"/>
<path d="M1245.03 2435.64C1244.36 2436.15 1243.69 2436.72 1243.03 2437.39L1234.17 2434.92L1245.03 2435.64Z" fill="#DBC049" stroke="#DBC34C" stroke-width="0.14" stroke-miterlimit="10"/>
<path d="M1330.44 2080.43C1329.05 2079.4 1327.72 2078.47 1326.38 2077.7C1326.94 2077.24 1329 2079.09 1330.44 2080.43Z" fill="#DBC049" stroke="#DBC34C" stroke-width="0.14" stroke-miterlimit="10"/>
<path d="M1202.92 2048.93C1179.96 2066.58 1157.05 2084.19 1134.08 2101.84C1090.22 2073.02 1046.36 2044.19 1002.49 2015.37C1010.37 2014.55 1018.25 2013.67 1026.07 2012.8C1026.64 2013.11 1027.2 2013.47 1027.77 2013.77C1027.41 2013.31 1027.31 2012.95 1027.46 2012.64C1028.13 2012.49 1028.85 2012.33 1029.52 2012.13C1049.29 2007.34 1069.06 2002.55 1088.83 1997.77C1118.69 2011.1 1148.55 2024.43 1178.41 2037.76H1178.46C1182.17 2039 1185.41 2040.39 1188.25 2042.14H1188.3C1193.19 2044.4 1198.03 2046.67 1202.92 2048.93Z" fill="#DBC049"/>
<path d="M1029.52 2012.13C1028.85 2012.33 1028.13 2012.49 1027.46 2012.64C1027.67 2012.18 1028.34 2012.08 1029.52 2012.13Z" fill="#DBC049"/>
<path d="M1903.46 1263.11C1848.06 1223.48 1814.08 1180.35 1795.09 1151.83C1731.45 1080.49 1694.13 1014.92 1672.09 968.387C1640.38 901.628 1623.95 839.708 1611.85 795.031C1593.63 727.14 1594.87 709.845 1579.01 654.719C1573.4 632.998 1566.5 611.843 1559.65 590.74C1546.88 551.467 1525.67 486.047 1494.21 453.156C1433.46 345.941 1361.54 271.873 1320.92 233.578C1287.92 202.387 1228.97 147.26 1136.04 95.3257C1000.59 19.2506 857.617 -13.2794 847.011 4.94153C839.186 18.5815 913.425 47.9203 953.531 131.407C968.822 163.268 975 211.806 976.853 228.534C977.059 231.211 974.279 233.064 971.654 231.88C945.5 220.762 836.714 175.055 759.283 155.65C686.33 137.275 564.314 116.892 564.314 123.635C564.314 130.378 625.682 200.173 646.43 265.748C655.749 295.293 660.949 340.639 662.442 354.125C662.648 355.978 660.794 357.316 658.735 356.801C638.965 351.603 551.443 328.492 491.155 321.595C441.164 315.83 364.865 316.551 342.264 316.705C339.638 316.705 338.351 319.382 340.05 321.08C353.282 335.08 394.52 380.118 415.062 419.906H415.423C430.919 449.862 439.877 477.708 445.129 500.716C357.091 559.651 294.075 644.888 257.522 706.705C181.686 798.273 36.7076 1001.02 5.35397 1291.58C4.58172 1298.47 3.44907 1308.92 2.31643 1322.41C-1.44189 1366.62 -25.2274 1726.41 223.697 2051.09C243.415 2076.78 273.842 2113.99 315.492 2155.68C315.647 2155.53 315.853 2155.37 316.007 2155.17L323.215 2162.94L496.098 2003.22L486.985 1993.34C485.183 1990.25 482.454 1984.59 482.043 1977.08C481.94 1975.17 481.682 1967.66 485.698 1959.37C489.662 1951.19 494.862 1948.2 504.078 1940.07C509.226 1935.54 516.331 1928.8 524.208 1919.58C490.383 1889.88 455.116 1860.08 418.409 1830.33C406.155 1820.34 393.902 1810.57 381.701 1800.94C371.558 1814.99 358.739 1830.54 342.573 1846.23C338.66 1849.99 334.799 1853.54 330.989 1856.94L227.97 1544.2L618.423 1344.44C608.744 1373.62 592.527 1413.05 571.367 1464.62C546.037 1526.24 520.964 1575.44 502.842 1608.95C548.92 1646.42 594.998 1683.94 641.076 1721.47C646.224 1683.12 649.983 1648.02 649.21 1631.6C645.04 1633.09 642.157 1634.22 640.87 1632.78C638.759 1648.22 637.575 1648.64 637.215 1648.69C636.339 1648.79 635.464 1646.47 635.361 1646.27C634.641 1644.31 637.472 1634.58 640.819 1628C640.819 1628 640.836 1627.96 640.87 1627.89C641.333 1626.4 642.003 1625.22 642.106 1625.22C642.157 1625.22 642.157 1625.37 642.003 1625.73C643.547 1623.16 645.092 1621.51 646.379 1621.77C648.026 1622.13 648.902 1625.63 649.21 1631.6C652.351 1630.41 656.212 1629.08 660.64 1628.51C668.517 1627.48 675.364 1629.18 680.204 1630.93C675.725 1619.55 670.113 1602.83 666.766 1582.03C663.729 1562.94 658.375 1514.5 682.675 1448.72C729.525 1321.79 829.301 1285.3 816.018 1204.59C814.679 1196.46 812.517 1190.02 811.076 1186.11C799.389 1160.48 771.433 1153.02 741.212 1082.19C726.076 1047.14 703.886 993.351 717.684 928.754C728.701 876.51 760.416 830.803 772.36 831.987C785.797 833.325 736.733 958.093 777.045 1049.81C806.133 1115.75 854.476 1154.04 913.786 1200.06C957.084 1233.62 980.2 1244.58 1193.86 1354.68C1292.4 1405.43 1372.82 1447.74 1417.04 1515.38C1442.42 1554.13 1453.03 1595.62 1453.03 1595.62C1463.68 1636.95 1453.03 1694.6 1458.64 1694.6C1464.25 1694.6 1755.7 1547.08 1750.66 1541.83C1745.61 1536.63 1697.32 1542.5 1658.5 1529.38C1617.62 1515.53 1590.75 1494.27 1576.95 1481.66C1560.53 1463.44 1541.89 1439.51 1525.05 1409.81C1502.5 1369.66 1497.46 1310.98 1485.51 1304.6C1473.57 1298.22 1443.91 1311.34 1412.2 1306.3C1376.16 1300.53 1350.63 1286.38 1337.19 1277.78C1314.43 1249.78 1289.98 1215.55 1267.22 1174.94C1239.42 1125.17 1207.29 1046.78 1209.35 1040.19C1211.41 1033.65 1240.5 1027.22 1264.6 1023.87C1318.91 1016.1 1362.16 1032.98 1402.83 1049.66C1439.08 1064.33 1495.4 1092.33 1552.85 1144.57C1567.63 1171.91 1582.71 1203.61 1596.15 1239.69C1609.8 1276.08 1617.83 1336.61 1625.65 1340.17C1633.68 1343.56 1672.09 1321.79 1717.24 1330.23C1760.9 1338.47 1787.05 1362.76 1795.24 1371.05C1807.39 1387.88 1821.75 1412.02 1832 1443.01C1845.64 1484.49 1837.97 1539.31 1843.58 1543.68C1867.73 1562.63 1943.05 1516.92 1989.33 1461.23C2028.15 1414.44 2043.24 1364.51 2049.78 1333.11C2040.82 1327.71 1959.63 1303.26 1903.46 1263.11ZM98.0248 1540.13C97.8704 1539.88 97.8704 1539.52 97.9219 1539.1L98.3852 1540.49C98.3852 1540.49 98.0763 1540.29 98.0248 1540.13ZM1332.3 693.014C1332.76 727.5 1321.8 761.317 1296.77 784.273C1284.62 700.014 1259.4 607.159 1229.79 545.496C1264.49 558.93 1293.32 586.519 1309.39 612.255C1313.45 618.998 1317.21 626.255 1320.2 633.667C1320.51 633.667 1320.82 633.513 1321.13 633.461C1328.33 661.153 1332.19 676.903 1333.33 686.117C1333.58 688.33 1333.84 690.492 1334.05 692.602C1333.48 692.756 1332.86 692.911 1332.3 693.014Z" fill="#DBC049"/>
</g>
<defs>
<clipPath id="clip0_32_309">
<rect width="2663" height="2618" fill="white"/>
</clipPath>
</defs>
</svg>
