<?xml version="1.0" encoding="UTF-8"?>
<svg xmlns="http://www.w3.org/2000/svg" xmlns:xlink="http://www.w3.org/1999/xlink" viewBox="0 0 234 234">
  <defs>
    <style>
      .cls-1, .cls-2, .cls-3, .cls-4, .cls-5, .cls-6 {
        stroke-linecap: round;
        stroke-linejoin: round;
      }

      .cls-1, .cls-2, .cls-3, .cls-6 {
        stroke: #000;
      }

      .cls-1, .cls-7, .cls-4, .cls-5 {
        fill: none;
      }

      .cls-8 {
        fill: url(#linear-gradient-2);
      }

      .cls-8, .cls-9, .cls-10 {
        mix-blend-mode: multiply;
      }

      .cls-8, .cls-9, .cls-10, .cls-7, .cls-11, .cls-12, .cls-13, .cls-14, .cls-15, .cls-16, .cls-17, .cls-18, .cls-19, .cls-20, .cls-21, .cls-22, .cls-23, .cls-24, .cls-25, .cls-26, .cls-27, .cls-28, .cls-29 {
        stroke-width: 0px;
      }

      .cls-9 {
        fill: url(#linear-gradient-4);
      }

      .cls-10 {
        fill: url(#linear-gradient-3);
      }

      .cls-2 {
        fill: url(#radial-gradient-6);
      }

      .cls-3 {
        fill: url(#radial-gradient-5);
      }

      .cls-30 {
        clip-path: url(#clippath);
      }

      .cls-31 {
        opacity: .6;
      }

      .cls-31, .cls-32 {
        mix-blend-mode: overlay;
      }

      .cls-32 {
        opacity: .3;
      }

      .cls-11 {
        fill: url(#linear-gradient);
      }

      .cls-12 {
        fill: url(#radial-gradient);
      }

      .cls-33 {
        clip-path: url(#clippath-1);
      }

      .cls-4 {
        stroke: #b8bbbf;
      }

      .cls-4, .cls-5 {
        stroke-width: 2px;
      }

      .cls-13 {
        fill: url(#radial-gradient-2);
      }

      .cls-14 {
        fill: url(#radial-gradient-3);
      }

      .cls-15 {
        fill: url(#radial-gradient-4);
      }

      .cls-16 {
        fill: url(#radial-gradient-7);
      }

      .cls-5 {
        stroke: #5ef4fb;
      }

      .cls-17 {
        fill: url(#linear-gradient-5);
      }

      .cls-18 {
        fill: url(#linear-gradient-6);
      }

      .cls-34 {
        isolation: isolate;
      }

      .cls-19 {
        fill: #5ef4fb;
      }

      .cls-20 {
        fill: #626566;
      }

      .cls-21 {
        fill: #0c6fe1;
      }

      .cls-22 {
        fill: #dae1e9;
      }

      .cls-23 {
        fill: #a9adaf;
      }

      .cls-24 {
        fill: #b8bbbf;
      }

      .cls-25 {
        fill: #8f9498;
      }

      .cls-26 {
        fill: #90959b;
      }

      .cls-27 {
        fill: #b9bcc0;
      }

      .cls-28 {
        fill: #fff;
      }

      .cls-29 {
        fill: #003773;
      }
    </style>
    <clipPath id="clippath">
      <circle class="cls-7" cx="117" cy="117" r="117"/>
    </clipPath>
    <clipPath id="clippath-1">
      <rect id="Clip_mask" data-name="Clip mask" class="cls-7" x="-4705.7" y="-268.45" width="6415.34" height="1090.33"/>
    </clipPath>
    <linearGradient id="linear-gradient" x1="58.76" y1="-420.35" x2="68.15" y2="1687.67" gradientUnits="userSpaceOnUse">
      <stop offset=".26" stop-color="#375674"/>
      <stop offset=".31" stop-color="#40617e"/>
      <stop offset=".47" stop-color="#577f99"/>
      <stop offset=".55" stop-color="#618ba4"/>
      <stop offset=".58" stop-color="#6d9ab2"/>
      <stop offset=".65" stop-color="#84b7cd"/>
      <stop offset=".72" stop-color="#96cee2"/>
      <stop offset=".8" stop-color="#a3dff1"/>
      <stop offset=".89" stop-color="#aae8fa"/>
      <stop offset="1" stop-color="#adecfd"/>
    </linearGradient>
    <linearGradient id="linear-gradient-2" x1="266.43" y1="-8.08" x2="278.15" y2="185.3" gradientUnits="userSpaceOnUse">
      <stop offset="0" stop-color="#8d8dc4"/>
      <stop offset="1" stop-color="#fff" stop-opacity="0"/>
    </linearGradient>
    <linearGradient id="linear-gradient-3" x1="-1874.56" y1="-126.78" x2="-1859.3" y2="124.98" gradientTransform="translate(-1770.67 -31.34) rotate(-178.06) scale(1 -1)" xlink:href="#linear-gradient-2"/>
    <linearGradient id="linear-gradient-4" x1="-1709.9" y1="151.89" x2="-1694.65" y2="403.64" gradientTransform="translate(-1770.67 -31.34) rotate(-178.06) scale(1 -1)" xlink:href="#linear-gradient-2"/>
    <linearGradient id="linear-gradient-5" x1="130.36" y1="142.83" x2="130.36" y2="748.25" gradientUnits="userSpaceOnUse">
      <stop offset="0" stop-color="#1f2f9c"/>
      <stop offset=".19" stop-color="#20329d"/>
      <stop offset=".33" stop-color="#243ca2"/>
      <stop offset=".47" stop-color="#2a4cab"/>
      <stop offset=".6" stop-color="#3464b8"/>
      <stop offset=".72" stop-color="#4083c8"/>
      <stop offset=".83" stop-color="#4fa8db"/>
      <stop offset=".95" stop-color="#60d4f2"/>
      <stop offset="1" stop-color="#6aecff"/>
    </linearGradient>
    <radialGradient id="radial-gradient" cx="536.59" cy="218.11" fx="536.59" fy="218.11" r="50.58" gradientTransform="translate(497.96 -3.73) rotate(-179.42) scale(.94 -.71) skewX(-.02)" gradientUnits="userSpaceOnUse">
      <stop offset="0" stop-color="#fff"/>
      <stop offset="1" stop-color="#8df4fa"/>
    </radialGradient>
    <radialGradient id="radial-gradient-2" cx="125.34" cy="577.41" fx="125.34" fy="577.41" r="131.22" gradientTransform="translate(0 16.22) scale(1 .38)" gradientUnits="userSpaceOnUse">
      <stop offset="0" stop-color="#fff"/>
      <stop offset=".66" stop-color="#b0f7fb"/>
      <stop offset="1" stop-color="#8df4fa"/>
    </radialGradient>
    <radialGradient id="radial-gradient-3" cx="217.68" cy="14.08" fx="217.68" fy="14.08" r="6.5" gradientTransform="translate(0 115.98) scale(1 5.84)" xlink:href="#radial-gradient-2"/>
    <linearGradient id="linear-gradient-6" x1="120.33" y1="126.03" x2="123.97" y2="192.21" gradientUnits="userSpaceOnUse">
      <stop offset="0" stop-color="#5ef4fb"/>
      <stop offset=".33" stop-color="#97f7fc"/>
      <stop offset=".79" stop-color="#e1fdfe"/>
      <stop offset="1" stop-color="#fff"/>
    </linearGradient>
    <radialGradient id="radial-gradient-4" cx="277.97" cy="198.17" fx="277.97" fy="198.17" r="50.69" gradientTransform="translate(0 -16.39) scale(1 .77)" xlink:href="#radial-gradient"/>
    <radialGradient id="radial-gradient-5" cx="73.44" cy="-89.35" fx="73.44" fy="-89.35" r="4.68" gradientTransform="translate(0 617.85) scale(1 5.66)" gradientUnits="userSpaceOnUse">
      <stop offset="0" stop-color="#fff"/>
      <stop offset=".12" stop-color="#f7fefe"/>
      <stop offset=".3" stop-color="#e3fdfe"/>
      <stop offset=".51" stop-color="#c2fafd"/>
      <stop offset=".75" stop-color="#94f7fc"/>
      <stop offset="1" stop-color="#5ef4fb"/>
    </radialGradient>
    <radialGradient id="radial-gradient-6" cx="162.23" cy="-98.28" fx="162.23" fy="-98.28" r="3.7" gradientTransform="translate(0 681.37) scale(1 5.86)" gradientUnits="userSpaceOnUse">
      <stop offset="0" stop-color="#fff"/>
      <stop offset=".27" stop-color="#fcfefe"/>
      <stop offset=".43" stop-color="#f4fefe"/>
      <stop offset=".56" stop-color="#e6fdfe"/>
      <stop offset=".67" stop-color="#d2fbfd"/>
      <stop offset=".77" stop-color="#b8fafd"/>
      <stop offset=".87" stop-color="#98f7fc"/>
      <stop offset=".96" stop-color="#73f5fb"/>
      <stop offset="1" stop-color="#5ef4fb"/>
    </radialGradient>
    <radialGradient id="radial-gradient-7" cx="111.95" cy="38.56" fx="111.95" fy="38.56" r="13.08" gradientTransform="translate(0 30.49) scale(1 1.17)" gradientUnits="userSpaceOnUse">
      <stop offset="0" stop-color="#fff"/>
      <stop offset="1" stop-color="#5ef4fb"/>
    </radialGradient>
  </defs>
  <g class="cls-34">
    <g id="Layer_2" data-name="Layer 2">
      <g id="Layer_30" data-name="Layer 30">
        <g class="cls-30">
          <g class="cls-33">
            <rect class="cls-11" x="-918" y="-284.01" width="1961" height="1406.01"/>
          </g>
          <g class="cls-32">
            <path class="cls-28" d="m596.73,126.93c-3.2.75-7.01,1.15-10.11,1.19-3.21.04-7.99-1.44-11.39-.6-4.35,1.07-4.08,4.58-8.19,5.63-9.48,2.44-16.59-4.36-24.88-2.33-.48.12-.77.6-.7,1.08.23,1.41,1.59,2.72,2.88,3.9,2.81,2.57,5.31,4.57-4.83,5.85-10.24,1.29-21.84-3.15-31.45-5.02-7.69-1.5-6.95-.6-12.91.43-5.44.95-14.65.1-21.89,1.1-9.4,1.31-13.35,6.46-24.64,7.25-19.21,1.34-37.36-2.35-55.56,1.79-10.5,2.37-16.82,3.69-27.91,1-7.46-1.81-13.47-4.59-22.55-4.48-10.29.12-17.82,1.74-28.03.69-9.04-.93-18.79-1.74-28.42-1.79-21.89-.14-39.28,3.45-58.66,7.96-19.79,4.6-41.6-.72-61.02-2.97-8.83-1.02-16.36-2.43-23.57-4.2-7.83-1.92-15.26-4.28-23.59-7.07-17.1-5.73-29.23-12.38-49.65-10.06-17.57,2-39.25,3.25-53.34-4.99-5.94-3.47-9.67-8.61-15.43-12.18-4.7-2.92-9.43-5.13-14.69-7.41-1.56-.67-3.16-1.35-4.83-2.05-10.27-4.33-41.62-10.7-35.47-17.42,2.75-3.01,13.56-4.81,14.56-8.02,1.21-3.87-12.23-5.77-7.25-10.98,1.38-1.44,6.09-2.46,10.9-3.17,4.24-.61,8.55-.98,10.75-1.17,10.03-.86,15.75.35,23.76-3.32,7.4-3.39,5.01-4.96,8.95-9.61,3.14-3.73,9.31-7.12,12.66-11.04,5.21-6.11,6.38-4.34,17.5-6.14,5.8-.94,5.81-1.3,10.45-3.44,7.32-3.38,7.28-2.8,14.26-3.94,9.53-1.55,13.9-.06,22.66,1.25.32.05,1.6-.19,2.37-.36.34-.07.68.07.91.33,4.82,5.61,16.24-6.54,25.32-4.87,5.75,1.05,5.16,5.99,12.88,4.37,2.4-.5,11.15-9.82,14.04-4.12.19.37.61.57,1.02.49,4.32-.82,8.02-.05,7.71,2.59-.06.51.34.98.85,1.02,5.24.43,10.01-.48,13.96-2.39,1.79-.86,1.73-2.51,3.36-3.19,1.43-.6,4.32-1.11,6.15-1.81,2.94-1.13,4.64.07,7-1.54,1.54-1.06.18-3.42,1.21-4.49,3.01-3.14,6.28-2.36,10.37-4.44,4.42-2.25,4.31-4.7,9.01-6.89,4.02-1.87,9.8-1.27,14.42-2.85,1.26-.42,3.45-2.75,5.16-3.61.13-.06.25-.09.39-.09,1.1-.03,6.76-.43,7.1-.51,3.87-.88,4.77-3.36,12.47-2.76.37.03.68.27.81.62.43,1.21,1.57,2.43,2.07,3.7.14.36.48.59.87.59,3.25,0,8.87-.53,11.51.17,3.9,1.04,2.66,4.8,7.38,4.97,6.27.24,5.65-7.33,17.41-6.19.42.04.72.38.82.79.82,3.25,11.67,2.78,16.42,4.23,1.39.42,1.82,2.65,3.22,3.39,1.65.87,5.1-.31,7.31,1.06,1.27.79-.9,3.36.15,4.38,1.27,1.22,5.41,1.68,6.25,2.76,1.67,2.14,2.8,3.41,1.14,4.82-.66.56-.3,1.64.56,1.67,6.18.17,7.48-3.22,16.77-.79,8.23,2.16,8.14,6.39,15.8,7.89.2.04.39.15.53.31,3.93,4.34,15.9-1.76,22.59-.92,8.31,1.03,8.48,6.97,14.11,9.64,3.92,1.85,8.48,1.08,12.67,2.19,6.04,1.61,5.56,3.3,9.24,5.47,8.59,5.07,12.68,2.47,24.1,2.32.3,0,.59.14.77.38,2.25,3.04,5.24,6.44,8.12,8.99,9.3,8.23,9.32,2.06,19.56-.95,6.46-1.9,19.86-2.13,27.13-1.16,11.09,1.48,10.12,6.32,20.19,8.28,3.86.75,8.95-.12,12.41.97,7.12,2.23,1.9,3.54,4.07,6.29.09.12.2.23.29.34,4.67,5.24,15.12,2.54,23.48,5.22,4.26,1.37,6.51,2.2,7.2,5.04.78,3.19-3.43,3.42-3.93,5.13-.74,2.54,2.61,4.36-.94,6.63-2.3,1.46-8.63,1.17-11.62,1.64-3.44.55-9.24-1.08-8.09,2.22,1.21,3.53,9.39,1.06,11.98,2.9,1.58,1.12.35,4.49,1.51,5.89.18.22.36.41.56.59,2.29,2.18,5.19,1.89,6.39,5.72,1.3,4.17-4.15,10.37,5.15,11.13,10.03.83,10.42-5.19,21.85-1.7,3.49,1.07,4.73,3.06,9.05,3.96,4.78,1,8.15-.79,12.34,1.5.58.31,1.07.62,1.47.91,4.21,3,.59,5.18-4.74,6.42Z"/>
            <path class="cls-8" d="m601.01,121.29c-1.12,1.81-2.52,3.64-4.07,5.4-.14.15-.31.26-.51.31-3.14.7-6.8,1.08-9.81,1.12-3.21.04-7.99-1.44-11.39-.6-4.35,1.07-4.08,4.58-8.19,5.63-9.48,2.44-16.59-4.36-24.88-2.33-.48.12-.77.6-.7,1.08.03.2.09.4.16.6.31.82-.49,1.61-1.28,1.22-5.58-2.81-11.82-5.41-19.39-6.59-17.24-2.69-34.23-.13-48.69,3.39-13.87,3.38-38.61,7.47-57.96,4.46-17.51-2.73-37.38-13.08-55.09-17.65-20.98-5.42-39.24-7.26-62.01-3.66-17.95,2.84-60.76,7.98-58.56,21.18.09.57-.32,1.09-.9,1.11-16.03.5-29.08,3.23-43.82,4.35-14.12,1.07-28.54-6.7-41.31-4.29-5.46,1.04-5.93,5.02-9.38,7.2-.22.14-.49.17-.74.11-7.68-1.9-15.01-4.23-23.2-6.98-17.1-5.73-29.23-12.38-49.65-10.06-17.57,2-39.25,3.25-53.34-4.99-5.94-3.47-9.67-8.61-15.43-12.18-6.09-3.78-12.22-6.38-19.52-9.46-10.27-4.33-41.62-10.7-35.47-17.42,2.75-3.01,13.56-4.81,14.56-8.02,1.21-3.87-12.23-5.77-7.25-10.98,1.35-1.41,5.89-2.42,10.59-3.12.2-.03.4,0,.57.09,14.6,7.37,31.54,23.74,53.83,12.56,16.95-8.5,12-26.55,46.07-24.86,17.56.86,19.13,10.29,38.62,3.08,17.28-6.38,14.28-14.93,39.08-14.5,8.79.15,29.07,1.48,29.63,8.2.04.47.38.86.85.9,16.74,1.44,17.86-12.54,23.6-18.42.18-.18.44-.28.69-.28,17.42.17,4.89-8.82,9.96-14.46C211.35,7.27,237.72-.84,249.52-.1c29.99,1.86,19.72,18.35,20.81,29.17.05.47.46.83.93.83,14.75-.09,36.6-14.97,54.62-7.49,12.53,5.21,2.17,17.84,7.49,24.61,10.54,13.4,26.56,3.31,42.41,7.5,5.21,1.37,1.46,8.63,9.64,9.17,7.2.47,8.11-7.46,17.56-7.81.44-.02.85.29.95.72.95,4.25-.74,14.74,4.62,16.74,8.39,3.14,26.61-3.54,33.45-5.6,12.49-3.76,41.38-14.91,48.93-4.33.48.68,1.54.44,1.69-.38,0-.01,0-.03,0-.04.13-.71.97-1.02,1.53-.56,2.07,1.7,5.15,3.79,6.71,6.01.2.29.54.45.89.42,6.83-.69,7.7.61,10.98-3.7.21-.28.56-.42.9-.36,4.15.63,7.61.03,10.9-.9.33-.09.68,0,.92.25,4.84,4.69,14.95,2.21,23.09,4.81,4.26,1.37,6.51,2.2,7.2,5.04.78,3.19-3.43,3.42-3.93,5.13-.74,2.54,2.61,4.36-.94,6.63-2.3,1.46-8.63,1.17-11.62,1.64-3.44.55-9.24-1.08-8.09,2.22,1.21,3.53,9.39,1.06,11.98,2.9,1.58,1.12.35,4.49,1.51,5.89,2.36,2.84,5.64,2.16,6.94,6.31,1.3,4.17-4.15,10.37,5.15,11.13,10.03.83,10.42-5.19,21.85-1.7,3.49,1.07,4.73,3.06,9.05,3.96,4.78,1,8.15-.79,12.34,1.5.25.13.48.27.7.4.44.27.58.85.31,1.29Z"/>
          </g>
          <g class="cls-31">
            <path class="cls-28" d="m-328.58,66.55c4.14,1.11,9.07,1.81,13.11,2,4.18.19,10.46-1.52,14.85-.28,5.61,1.59,5.1,6.14,10.41,7.69,12.32,3.62,21.92-5.07,32.72-1.87.41.12.7.52.67.94-.13,2-2.11,3.78-3.98,5.37-3.77,3.22-7.12,5.72,6.02,7.82,13.26,2.13,28.56-3.13,41.15-5.14,10.08-1.61,9.07-.48,16.78,1.13,7.03,1.47,19.05.77,28.44,2.4,12.18,2.12,17.09,9,31.75,10.53,24.94,2.6,48.72-1.4,72.21,4.77,13.56,3.55,21.73,5.54,36.27,2.54,9.79-2.02,17.73-5.37,29.54-4.83,13.38.61,23.11,3.06,36.45,2.14,11.8-.81,24.53-1.44,37.06-1.08,28.48.79,50.95,6.22,75.97,12.94,25.54,6.86,54.16.89,79.53-1.17,11.54-.94,21.4-2.44,30.85-4.42,10.27-2.15,20.05-4.89,31.01-8.16,22.51-6.7,38.58-14.82,65.05-10.9,22.77,3.38,50.93,5.96,69.63-4.14,7.88-4.25,12.97-10.77,20.61-15.17,6.24-3.59,12.49-6.26,19.44-8.99,2.05-.8,4.18-1.62,6.38-2.45,13.56-5.18,54.62-12.09,46.92-21.1-3.45-4.04-17.43-6.86-18.6-11.08-1.41-5.09,16.16-6.97,9.92-13.97-1.73-1.93-7.81-3.47-14.04-4.6-5.49-.98-11.08-1.66-13.94-2-13.01-1.56-20.51-.24-30.76-5.37-9.48-4.74-6.31-6.67-11.22-12.9-3.92-4.99-11.8-9.67-15.98-14.92-6.51-8.18-8.11-5.92-22.51-8.76-7.51-1.47-7.5-1.94-13.45-4.94-9.38-4.72-9.35-3.97-18.39-5.76-12.34-2.43-18.08-.69-29.53.62-.44.05-2.22-.35-3.19-.6-.36-.09-.72.05-.97.32-6.47,7.35-20.88-9.12-32.83-7.35-7.53,1.11-6.98,7.56-16.95,5.12-3.12-.76-14.24-13.46-18.17-5.8-.2.38-.64.57-1.05.47-5.8-1.35-10.87-.47-10.33,3.22.08.53-.35,1-.88,1.03-6.95.38-13.22-1.02-18.36-3.72-2.3-1.2-2.14-3.34-4.23-4.3-1.84-.85-5.57-1.63-7.92-2.63-3.77-1.6-6.05-.11-9.05-2.31-1.96-1.44-.09-4.45-1.38-5.89-3.77-4.22-8.07-3.35-13.3-6.23-5.65-3.12-5.4-6.31-11.42-9.36-5.15-2.61-12.69-2.08-18.63-4.34-1.63-.61-4.41-3.78-6.61-4.95-.12-.07-.25-.1-.39-.1-1.29-.07-8.82-.86-9.27-.99-5.02-1.33-6.08-4.62-16.29-4.14-.37.02-.71.26-.84.61-.59,1.66-2.3,3.3-2.99,5.05-.14.35-.5.57-.87.56-4.2-.11-11.68-1.09-15.19-.29-5.12,1.18-3.67,6.12-9.83,6.15-8.2.04-7.02-9.88-22.6-8.81-.43.03-.75.38-.84.81-.87,4.4-15.27,3.25-21.59,4.95-1.83.48-2.49,3.37-4.34,4.26-2.19,1.06-6.62-.63-9.56,1.06-1.68.97,1.03,4.41-.39,5.69-1.7,1.53-7.11,1.95-8.26,3.32-2.44,2.9-4.01,4.54-1.18,6.64.73.54.38,1.69-.52,1.72-8.75.25-9.99-4.59-22.58-1.76-10.84,2.45-10.87,7.99-21,9.58-.21.03-.4.14-.54.3-5.24,5.6-20.64-2.92-29.42-2.13-10.85.97-11.35,8.7-18.78,11.92-5.19,2.24-11.09,1.03-16.58,2.29-7.94,1.82-7.38,4.04-12.26,6.7-11.44,6.23-16.64,2.63-31.61,1.95-.3-.01-.59.12-.78.35-3.07,3.88-7.15,8.23-11.05,11.45-12.47,10.3-12.22,2.27-25.4-2.1-8.32-2.75-25.74-3.65-35.25-2.71-14.49,1.44-13.45,7.78-26.63,9.88-5.06.8-11.64-.55-16.19.71-9.37,2.59-2.63,4.52-5.57,8-.12.15-.26.29-.39.43-6.31,6.61-19.78,2.64-30.78,5.75-5.61,1.59-8.57,2.58-9.59,6.24-1.16,4.12,4.31,4.6,4.88,6.85.85,3.33-3.59,5.56.93,8.67,2.92,2,11.18,1.9,15.04,2.64,4.45.86,12.07-.99,10.43,3.25-1.73,4.54-12.26.97-15.72,3.25-2.1,1.39-.65,5.83-2.22,7.59-.24.28-.49.52-.75.74-3.08,2.73-6.84,2.23-8.56,7.15-1.88,5.37,4.94,13.67-7.19,14.26-13.08.64-13.33-7.22-28.36-3.18-4.59,1.23-6.29,3.77-11.96,4.76-6.26,1.09-10.57-1.39-16.13,1.4-.77.38-1.42.76-1.96,1.12-5.61,3.72-.99,6.72,5.88,8.56Z"/>
            <path class="cls-10" d="m-334.03,58.77c1.41,2.51,3.23,5.06,5.25,7.54.13.16.3.27.5.32,4.07,1.07,8.87,1.73,12.81,1.92,4.18.19,10.46-1.52,14.85-.28,5.61,1.59,5.1,6.14,10.41,7.69,12.32,3.62,21.92-5.07,32.72-1.87.41.12.7.52.67.94-.04.63-.27,1.24-.62,1.83-.48.81.35,1.74,1.19,1.35,7.58-3.55,16.03-6.82,26.26-8.06,22.55-2.74,44.55,1.34,63.2,6.56,17.9,5.01,49.91,11.43,75.22,8.36,22.91-2.78,49.22-15.38,72.46-20.54,27.54-6.12,51.37-7.72,80.84-2.02,23.37,4.52,79.37,13.16,75.19,30.45-.14.57.27,1.12.85,1.16,20.99,1.34,37.93,5.5,57.16,7.61,18.33,2.01,37.43-7.46,53.94-3.76,7.12,1.6,7.5,6.88,11.99,9.85.21.14.48.19.73.13,10.13-2.14,19.79-4.85,30.62-8.08,22.51-6.7,38.58-14.82,65.05-10.9,22.77,3.38,50.93,5.96,69.63-4.14,7.88-4.25,12.97-10.77,20.61-15.17,8.09-4.65,16.18-7.77,25.81-11.45,13.56-5.18,54.62-12.09,46.92-21.1-3.45-4.04-17.43-6.86-18.6-11.08-1.41-5.09,16.16-6.97,9.92-13.97-1.7-1.9-7.62-3.42-13.74-4.55-.2-.04-.4-.01-.58.07-19.34,8.92-42.13,29.56-70.68,14.01-21.68-11.81-14.45-35.07-58.85-34.38-22.88.35-25.35,12.55-50.38,2.31-22.21-9.07-17.92-20.05-50.21-20.59-11.55-.19-38.39.67-38.94,9.61-.03.47-.41.85-.87.88-22.17,1.29-22.92-17.2-30.22-25.08-.17-.19-.43-.29-.68-.3-22.86-.51-6.09-11.68-12.45-19.26-5.83-6.94-39.78-18.65-55.16-18.21-39.35,1.11-26.31,23.27-28.4,37.29-.07.46-.49.81-.96.79-19.19-.6-47.11-21.14-71-12.16-16.54,6.22-3.62,23.12-10.83,31.69-14.3,16.97-34.7,3.14-55.51,7.89-6.84,1.56-2.28,11.17-12.95,11.51-9.45.3-10.23-10.19-22.73-10.96-.44-.03-.84.26-.97.68-1.54,5.32.35,19.41-6.82,21.82-11.05,3.72-34.47-5.78-43.27-8.76-16.29-5.52-54.13-21.63-63.85-7.27-.47.7-1.57.43-1.7-.41-.06-.41-.12-.82-.18-1.23-.11-.72-.94-1.06-1.51-.61-2.8,2.2-7.28,4.95-9.48,7.96-.21.29-.55.44-.9.39-9.08-1.25-10.21.5-14.39-5.46-.2-.29-.55-.44-.89-.4-5.57.68-10.13-.28-14.47-1.68-.33-.11-.68-.01-.94.22-6.47,6.05-19.61,2.31-30.37,5.36-5.61,1.59-8.57,2.58-9.59,6.24-1.16,4.12,4.31,4.6,4.88,6.85.85,3.33-3.59,5.56.93,8.67,2.92,2,11.18,1.9,15.04,2.64,4.45.86,12.07-.99,10.43,3.25-1.73,4.54-12.26.97-15.72,3.25-2.1,1.39-.65,5.83-2.22,7.59-3.2,3.59-7.44,2.57-9.31,7.9-1.88,5.37,4.94,13.67-7.19,14.26-13.08.64-13.33-7.22-28.36-3.18-4.59,1.23-6.29,3.77-11.96,4.76-6.26,1.09-10.57-1.39-16.13,1.4-.43.21-.83.43-1.19.64-.44.26-.59.82-.34,1.26Z"/>
          </g>
          <g class="cls-31">
            <path class="cls-28" d="m-502.58,339.48c4.14,1.11,9.07,1.81,13.11,2,4.18.19,10.46-1.52,14.85-.28,5.61,1.59,5.1,6.14,10.41,7.69,12.32,3.62,21.92-5.07,32.72-1.87.41.12.7.52.67.94-.13,2-2.11,3.78-3.98,5.37-3.77,3.22-7.12,5.72,6.02,7.82,13.26,2.13,28.56-3.13,41.15-5.14,10.08-1.61,9.07-.48,16.78,1.13,7.03,1.47,19.05.77,28.44,2.4,12.18,2.12,17.09,9,31.75,10.53,24.94,2.6,48.72-1.4,72.21,4.77,13.56,3.55,21.73,5.54,36.27,2.54,9.79-2.02,17.73-5.37,29.54-4.83,13.38.61,23.11,3.06,36.45,2.14,11.8-.81,24.53-1.44,37.06-1.08,28.48.79,50.95,6.22,75.97,12.94,25.54,6.86,54.16.89,79.53-1.17,11.54-.94,21.4-2.44,30.85-4.42,10.27-2.15,20.05-4.89,31.01-8.16,22.51-6.7,38.58-14.82,65.05-10.9,22.77,3.38,50.93,5.96,69.63-4.14,7.88-4.25,12.97-10.77,20.61-15.17,6.24-3.59,12.49-6.26,19.44-8.99,2.05-.8,4.18-1.62,6.38-2.45,13.56-5.18,54.62-12.09,46.92-21.1-3.45-4.04-17.43-6.86-18.6-11.08-1.41-5.09,16.16-6.97,9.92-13.97-1.73-1.93-7.81-3.47-14.04-4.6-5.49-.98-11.08-1.66-13.94-2-13.01-1.56-20.51-.24-30.76-5.37-9.48-4.74-6.31-6.67-11.22-12.9-3.92-4.99-11.8-9.67-15.98-14.92-6.51-8.18-8.11-5.92-22.51-8.76-7.51-1.47-7.5-1.94-13.45-4.94-9.38-4.72-9.35-3.97-18.39-5.76-12.34-2.43-18.08-.69-29.53.62-.44.05-2.22-.35-3.19-.6-.36-.09-.72.05-.97.32-6.47,7.35-20.88-9.12-32.83-7.35-7.53,1.11-6.98,7.56-16.95,5.12-3.12-.76-14.24-13.46-18.17-5.8-.2.38-.64.57-1.05.47-5.8-1.35-10.87-.47-10.33,3.22.08.53-.35,1-.88,1.03-6.95.38-13.22-1.02-18.36-3.72-2.3-1.2-2.14-3.34-4.23-4.3-1.84-.85-5.57-1.63-7.92-2.63-3.77-1.6-6.05-.11-9.05-2.31-1.96-1.44-.09-4.45-1.38-5.89-3.77-4.22-8.07-3.35-13.3-6.23-5.65-3.12-5.4-6.31-11.42-9.36-5.15-2.61-12.69-2.08-18.63-4.34-1.63-.61-4.41-3.78-6.61-4.95-.12-.07-.25-.1-.39-.1-1.29-.07-8.82-.86-9.27-.99-5.02-1.33-6.08-4.62-16.29-4.14-.37.02-.71.26-.84.61-.59,1.66-2.3,3.3-2.99,5.05-.14.35-.5.57-.87.56-4.2-.11-11.68-1.09-15.19-.29-5.12,1.18-3.67,6.12-9.83,6.15-8.2.04-7.02-9.88-22.6-8.81-.43.03-.75.38-.84.81-.87,4.4-15.27,3.25-21.59,4.95-1.83.48-2.49,3.37-4.34,4.26-2.19,1.06-6.62-.63-9.56,1.06-1.68.97,1.03,4.41-.39,5.69-1.7,1.53-7.11,1.95-8.26,3.32-2.44,2.9-4.01,4.54-1.18,6.64.73.54.38,1.69-.52,1.72-8.75.25-9.99-4.59-22.58-1.76-10.84,2.45-10.87,7.99-21,9.58-.21.03-.4.14-.54.3-5.24,5.6-20.64-2.92-29.42-2.13-10.85.97-11.35,8.7-18.78,11.92-5.19,2.24-11.09,1.03-16.58,2.29-7.94,1.82-7.38,4.04-12.26,6.7-11.44,6.23-16.64,2.63-31.61,1.95-.3-.01-.59.12-.78.35-3.07,3.88-7.15,8.23-11.05,11.45-12.47,10.3-12.22,2.27-25.4-2.1-8.32-2.75-25.74-3.65-35.25-2.71-14.49,1.44-13.45,7.78-26.63,9.88-5.06.8-11.64-.55-16.19.71-9.37,2.59-2.63,4.52-5.57,8-.12.15-.26.29-.39.43-6.31,6.61-19.78,2.64-30.78,5.75-5.61,1.59-8.57,2.58-9.59,6.24-1.16,4.12,4.31,4.6,4.88,6.85.85,3.33-3.59,5.56.93,8.67,2.92,2,11.18,1.9,15.04,2.64,4.45.86,12.07-.99,10.43,3.25-1.73,4.54-12.26.97-15.72,3.25-2.1,1.39-.65,5.83-2.22,7.59-.24.28-.49.52-.75.74-3.08,2.73-6.84,2.23-8.56,7.15-1.88,5.37,4.94,13.67-7.19,14.26-13.08.64-13.33-7.22-28.36-3.18-4.59,1.23-6.29,3.77-11.96,4.76-6.26,1.09-10.57-1.39-16.13,1.4-.77.38-1.42.76-1.96,1.12-5.61,3.72-.99,6.72,5.88,8.56Z"/>
            <path class="cls-9" d="m-508.03,331.7c1.41,2.51,3.23,5.06,5.25,7.54.13.16.3.27.5.32,4.07,1.07,8.87,1.73,12.81,1.92,4.18.19,10.46-1.52,14.85-.28,5.61,1.59,5.1,6.14,10.41,7.69,12.32,3.62,21.92-5.07,32.72-1.87.41.12.7.52.67.94-.04.63-.27,1.24-.62,1.83-.48.81.35,1.74,1.19,1.35,7.58-3.55,16.03-6.82,26.26-8.06,22.55-2.74,44.55,1.34,63.2,6.56,17.9,5.01,49.91,11.43,75.22,8.36,22.91-2.78,49.22-15.38,72.46-20.54,27.54-6.12,51.37-7.72,80.84-2.02,23.37,4.52,79.37,13.16,75.19,30.45-.14.57.27,1.12.85,1.16,20.99,1.34,37.93,5.5,57.16,7.61,18.33,2.01,37.43-7.46,53.94-3.76,7.12,1.6,7.5,6.88,11.99,9.85.21.14.48.19.73.13,10.13-2.14,19.79-4.85,30.62-8.08,22.51-6.7,38.58-14.82,65.05-10.9,22.77,3.38,50.93,5.96,69.63-4.14,7.88-4.25,12.97-10.77,20.61-15.17,8.09-4.65,16.18-7.77,25.81-11.45,13.56-5.18,54.62-12.09,46.92-21.1-3.45-4.04-17.43-6.86-18.6-11.08-1.41-5.09,16.16-6.97,9.92-13.97-1.7-1.9-7.62-3.42-13.74-4.55-.2-.04-.4-.01-.58.07-19.34,8.92-42.13,29.56-70.68,14.01-21.68-11.81-14.45-35.07-58.85-34.38-22.88.35-25.35,12.55-50.38,2.31-22.21-9.07-17.92-20.05-50.21-20.59-11.55-.19-38.39.67-38.94,9.61-.03.47-.41.85-.87.88-22.17,1.29-22.92-17.2-30.22-25.08-.17-.19-.43-.29-.68-.3-22.86-.51-6.09-11.68-12.45-19.26-5.83-6.94-39.78-18.65-55.16-18.21-39.35,1.11-26.31,23.27-28.4,37.29-.07.46-.49.81-.96.79-19.19-.6-47.11-21.14-71-12.16-16.54,6.22-3.62,23.12-10.83,31.69-14.3,16.97-34.7,3.14-55.51,7.89-6.84,1.56-2.28,11.17-12.95,11.51-9.45.3-10.23-10.19-22.73-10.96-.44-.03-.84.26-.97.68-1.54,5.32.35,19.41-6.82,21.82-11.05,3.72-34.47-5.78-43.27-8.76-16.29-5.52-54.13-21.63-63.85-7.27-.47.7-1.57.43-1.7-.41-.06-.41-.12-.82-.18-1.23-.11-.72-.94-1.06-1.51-.61-2.8,2.2-7.28,4.95-9.48,7.96-.21.29-.55.44-.9.39-9.08-1.25-10.21.5-14.39-5.46-.2-.29-.55-.44-.89-.4-5.57.68-10.13-.28-14.47-1.68-.33-.11-.68-.01-.94.22-6.47,6.05-19.61,2.31-30.37,5.36-5.61,1.59-8.57,2.58-9.59,6.24-1.16,4.12,4.31,4.6,4.88,6.85.85,3.33-3.59,5.56.93,8.67,2.92,2,11.18,1.9,15.04,2.64,4.45.86,12.07-.99,10.43,3.25-1.73,4.54-12.26.97-15.72,3.25-2.1,1.39-.65,5.83-2.22,7.59-3.2,3.59-7.44,2.57-9.31,7.9-1.88,5.37,4.94,13.67-7.19,14.26-13.08.64-13.33-7.22-28.36-3.18-4.59,1.23-6.29,3.77-11.96,4.76-6.26,1.09-10.57-1.39-16.13,1.4-.43.21-.83.43-1.19.64-.44.26-.59.82-.34,1.26Z"/>
          </g>
          <path class="cls-17" d="m-111,672.26c25.31-34.42,46.78-63.48,89.37-60.1,18.35,1.46,53.69,8.85,72.06,7.83,11.59-.64,23.14-4.63,34.57-2.65,11.55,1.99,21.58,9.88,33.24,11.08,20.08,2.07,37.59-16.01,57.78-15.89,8.72.05,17.02,3.53,25.61,5,19.06,3.26,38.19-3.42,57-7.87,18.81-4.45,53.06-1.43,68.67,9.98,12.49,9.13,10.49,13.95,11.14,29.41.65,15.45-1.72,33.88-5.66,48.83,28.21-16.93,36.14-47.68,38.45-80.5,2.31-32.82-3.87-65.4-10.34-97.66-8.94-44.54-7.79-50.26-18.69-98.03-3.11-13.61-12.35-50.13-14.81-63.88-4.91-27.41-12.76-63.34-22.17-89.55-7.07-19.71-17.33-42.6-24.4-62.31-2.76-7.7-13.62-15.61-19.03-21.75-12.19-13.82-44.08-24.33-62.43-26.06-28.67-2.7-29.68-1.79-58.34-4.66-28.66-2.87-58.84-1.2-84.21,12.44C15.32,188.22-4.09,236.74-15.32,282.48c-10.74,43.74-17,89-13.1,133.88,1.84,21.17,5.8,43.29-1.98,63.06-6.7,17.02-21.13,29.63-31.29,44.84-10.98,16.41-15.24,37.22-20.95,56.12-9.25,30.61-20.1,59.62-28.35,91.89Z"/>
          <path class="cls-1" d="m-111,672.26c25.31-34.42,46.78-63.48,89.37-60.1,18.35,1.46,53.69,8.85,72.06,7.83,11.59-.64,23.14-4.63,34.57-2.65,11.55,1.99,21.58,9.88,33.24,11.08,20.08,2.07,37.59-16.01,57.78-15.89,8.72.05,17.02,3.53,25.61,5,19.06,3.26,38.19-3.42,57-7.87,18.81-4.45,53.06-1.43,68.67,9.98,12.49,9.13,10.49,13.95,11.14,29.41.65,15.45-1.72,33.88-5.66,48.83,28.21-16.93,36.14-47.68,38.45-80.5,2.31-32.82-3.87-65.4-10.34-97.66-8.94-44.54-7.79-50.26-18.69-98.03-3.11-13.61-12.35-50.13-14.81-63.88-4.91-27.41-12.76-63.34-22.17-89.55-7.07-19.71-17.33-42.6-24.4-62.31-2.76-7.7-13.62-15.61-19.03-21.75-12.19-13.82-44.08-24.33-62.43-26.06-28.67-2.7-29.68-1.79-58.34-4.66-28.66-2.87-58.84-1.2-84.21,12.44C15.32,188.22-4.09,236.74-15.32,282.48c-10.74,43.74-17,89-13.1,133.88,1.84,21.17,5.8,43.29-1.98,63.06-6.7,17.02-21.13,29.63-31.29,44.84-10.98,16.41-15.24,37.22-20.95,56.12-9.25,30.61-20.1,59.62-28.35,91.89Z"/>
          <path class="cls-22" d="m44.41,165.07s-1.53,4.08-2.17,9.88c-.5,4.5.18,9.96-1.53,15.84-3.31,11.38-5.2,24.55-5.61,32.3,0,0-12.95-19.81-34-24.24,0,0-15.14-3.31-29.46,3.18,0,0,.57-13.49,2.53-20.36,0,0,6.24-14.88,22.94-18.89,0,0,2.93-4.17,41.83,1.99l5.47.3Z"/>
          <path class="cls-22" d="m9.85,200.08s-1.71,3.13,10.81,4.13c6.45.52,16.93,17.51,16.93,17.51,0,0-4.19,9.47-7.16,10.53,0,0,1.96-16.82-22.76-22.2,0,0-14.89-3.84-30.42-.04l1.33-7.72s18.34-7.92,31.52-2.32"/>
          <path class="cls-22" d="m27.01,225.21l-3.37,12.03-10.74,31.32s-14.8-15.22-28.33-15.25c0,0-15.65-2.95-21.8,3.18l18.81-45.55s26.46-5.47,45.43,14.06"/>
          <path class="cls-20" d="m44.93,164.78l2.56-8.01s-2.11,1.41-6.67.11l-11.45-.73-14.37-1.65.13.34-5.29.11-5.35.47-5.31,1.32-4.83,2.17-1.9,1.41-1.91,1.62s-15.31,12.4-16.43,17.96l-2.06,6.53-.48,3.22-.44,3.18-.27,3.1-.48,3.22-.71,2.42-.56,3.49-1.08,2.26-1.29,3.05-1.44,1.97-1.23,1.34,13.43-3.48,1.5-11.99-.1-6.48.6-3.65.81-4.41s2.18-10,19.32-19.13c0,0,7.33-3.39,11.07-2.7l9.93-.15,12.26,1.75,7.04,1.14,4.98.21Z"/>
          <path class="cls-25" d="m24.98,231.66l-1.41,1.95s6.8.41,6.81-1.29c0,0,1.3-4.21-.09-6.74l-3.2-5.03-3.37-3.06-3.3-2.38-3.84-2.01-3.5-1.55-4.44-1.25s-22.21-7.26-48.35,5.42l4.95.59,6.27,1.28,5.85,2.41.46-2.3-8.55-2.89,6.04-1.45,3.72-1.1,1.86-.96,9.66-1.03,6.61.29,6.23,1.19,6.07,1.8,5.54,2.25,2.03,1.12,1.72,1.09,1.87,1.33,1.9,1.56,2.11,1.65,1.83,2.01,1.17,1.79-2.65,5.29Z"/>
          <path class="cls-20" d="m49.58,151.37s-9.63,19.24-7.99,38.64c0,0,8.28-20.21,12.63-26.88l-2.95-5.68-1.68-6.08Z"/>
          <path class="cls-4" d="m43.92,165.7c-3.8-.5-11.52-1.6-15.4-2.04-6.51-.73-16.96-1.35-23.35.09-5.53,1.25-10.73,3.92-14.95,7.66-2.59,2.29-3.26,3.52-5.45,6.19-1.51,1.85-3.19,6.92-4.11,9.12-1.41,3.39-.6,11.84-1.45,15.33"/>
          <path class="cls-27" d="m-36.82,214.28l3.2-1.12s2.9-5.06,3.76-7.88c.65-2.13,1.65-10.91,1.65-10.91,0,0,2.11-18.38,16.94-29.13,9.05-6.56,13.11-8.73,28.97-8.49,3.93.06,11.8,1.57,18.67,1.86,5.68.24,7.24-.65,10.62.1l.32-1.76s-9.53.51-10.54.5c-3.31-.02-15.95-2.85-16.01-2.43s-9.09-.26-9.09-.26l-9.3,1.11-9.08,4.14-4.52,3.14-5.33,4.84-6.84,7.61-3.7,4.54-3.11,13.25.07,2.95s-.95,4.37-.85,4.99-1.65,6.01-1.65,6.01l-1.95,4.45-2.22,2.51Z"/>
          <path class="cls-25" d="m8.71,213.47c-1.29,4.21-2.18,6.63-3.46,10.84-.54,1.78-1.97,5.63-2.68,7.35-3.5,8.43-6,15.66-9.62,23.51,1.48-.2,2.29.69,3.62,1.36,6.08,3.09,11.7,7.11,16.59,11.78.56-2.06,1.16-4.1,1.81-6.13.39-1.22.8-2.43,1.21-3.65,3.71-10.99,7.42-21.98,10.92-32.81-2.13-3.34-5.38-5.82-8.79-7.84-2.99-1.78-6.15-3.27-9.6-4.41Z"/>
          <polygon class="cls-27" points="49.36 152.04 48.49 153.77 53.41 164.04 54.25 163.34 51.66 158.22 49.36 152.04"/>
          <path class="cls-28" d="m-17.38,193.76s-.3-37.39,53.67-26.53c0,0-10.28-.11-12.91,0-1.97.08-11.28,1.6-12.02,1.72-2.01.33-9.1,2.73-10.07,3.15-5.99,2.65-12.84,9.18-14.57,12.41-.7,1.3-3.89,7.66-4.49,11"/>
          <path class="cls-25" d="m20.38,203.82c1.63.7,3.1,1.72,4.54,2.74,2.24,1.59,4.49,3.22,6.23,5.35.91,1.12,1.67,2.35,2.42,3.58.49.8.98,1.6,1.3,2.47.72,1.91.61,4.01.49,6.05-.12,1.99-.3,4.15-1.66,5.61-.36.38-.78.7-1.2,1.01-.71.52-1.42,1.05-2.13,1.57.67-1.69.64-3.61.15-5.36s-1.42-3.36-2.49-4.83c-2.29-3.15-5.27-5.79-8.68-7.68.9-1.1,1.44-2.14,1.86-3.24-3.65-2.86-7.82-4.86-12.21-6.08.05-1.05.22-2,.39-2.94.13-.7.25-1.4.31-2.16,3.74,1.08,7.37,2.49,10.67,3.91Z"/>
          <path class="cls-25" d="m43.92,167.67c-1.44,4.01-2.16,8.28-2.13,12.54.54,4.56-.3,9.27-1.51,13.79s-2.79,8.94-3.66,13.53c-.51,2.68-.77,5.4-1.04,8.12-.04.44-.07.93.2,1.29-.29-.73-.63-1.4-.98-2.02-2.47-4.35-6.02-8.05-10.17-10.85s-9.73-4.67-14.55-5.73c.58-4.17,1.18-8.37,2.68-12.3s4.03-7.6,7.68-9.7c3.34-1.92,7.33-2.36,11.18-2.25,1.06.03,4,.33,4.98-.1,2.2-.96,3.04-2,4.79-3.68,1.05-1.01,1.55-2.21,2.52-2.64Z"/>
          <path class="cls-12" d="m49.29,151.55l-2.07,5.3s-9.69,1.3-18.14-.8l-9.83-.98-7.08-.15-4.36.43s-5.5-.41-14.89,4.25c-.43.21-.69,1.25-1.32,1.61-4.44,2.54-9.79,7.63-13.25,11.94-3.11,3.87-4.15,6.93-4.15,6.93l-1.56,4.7s-.78,3.44-.81,3.66-.52,3.73-.53,3.99-.91,6.68-.91,6.68l-1.25,5.42-.89,2.91-1.49,2.9-1.53,2.03-1.02,1.77-4.28,1.48,6.64-11.29,2.15-6.18-.2-4.57,1.32-8.2,1.47-4.51,2.82-5.06,1.41-2.49,6.06-7.44,4.8-4.26,3.9-2.79,3.9-2.4,5.73-2.32,3.85-1.05,2.7-.74,9.15-.89,5.11.16,4.12.48,4.06,1.14,4.37.46,7.25,1.05,3.59-.47,2.87-1.41,1.42-.85.9-.42Z"/>
          <path class="cls-6" d="m49.2,159.45s.01.14.04.39c.16,1.23.78,5.15,2.53,7.71l-6.23,12.52s.11-5.03,2.04-10.65c1.2-3.48,1.65-9.79,1.63-9.73"/>
          <path class="cls-1" d="m49.59,151.05c-10.56,27.68-6.58,24.97-8.31,38.01-1.58,11.93-6.49,17.35-6.15,35.94.05,2.56-1.66,5.15-3.72,6.7-1.03.77-2.2,1.41-3.43,1.81s-1.92.6-3.71.54c.35-.83.5-1.3.84-2.1,2.15.58,3.43-.52,3.7-2.27.28-1.75-.8-3.39-1.98-4.72-7.16-8.06-17.76-12.77-28.58-14.11-10.82-1.34-21.86.46-32.39,4.26,2.03.15,5.05.84,6,1.15,1.09.35,3.99.52,5.87,1.78-.18.59-.76,1.95-.69,1.84-5.57-2.59-11.12-3.85-17.28-4.03,11.28-5.18,23.82-7.71,36.28-7.33,11.21.34,23.01,3.41,30.52,11.58,2.47,2.69,4.46,6.09,4.33,9.54-.03.85-.7,2.6-1.55,3.3"/>
          <path class="cls-1" d="m49.75,150.95c-8.12,5-9.31,4.04-15.98,2.98-3.82-.61-7.56-1.64-11.39-2.19-16.41-2.35-33.68,4.89-43.93,17.65"/>
          <path class="cls-1" d="m47.5,156.77c-9.36.92-14.86-.39-25.03-1.4-10.18-1.01-21.18-.87-29.67,4.7"/>
          <path class="cls-1" d="m44.49,164.94c-8.5-.44-12.15-1.91-21.65-2.93-9.5-1.01-19.73-.47-27.61,4.81-5.81,3.89-12.02,9.62-14.44,16.1-2.42,6.48-1.2,13.75-2.21,20.58-.35,2.36-.65,3.93-1,6.29"/>
          <path class="cls-1" d="m35.49,218.94c-5.43-10.1-11.52-14.47-22.55-18.18-11.03-3.71-23.49-3.14-34.11,1.57"/>
          <path class="cls-6" d="m27.25,225.79c-.62,1.84-1.56,4.46-2.13,6.16,1.3.13,2.81-.38,3.34-1.51.53-1.14-.23-3.17-1.22-4.65Z"/>
          <path class="cls-6" d="m24.09,206.62c-.78.64-1.51,1.33-2.2,2.06-3.69-2.58-7.9-4.46-12.31-5.49.16-.98.31-1.97.47-2.95,1.5.08,2.92.65,4.28,1.26,3.32,1.46,6.55,3.13,9.76,5.13Z"/>
          <path class="cls-6" d="m24.27,234.04c-3.83,11.75-7.66,23.5-11.48,35.25"/>
          <path class="cls-1" d="m54.25,163.26s-5.08-9.1-4.5-12.31"/>
          <path class="cls-13" d="m205.93,156.57l5.62,2.64s-4.39,5.26-6.13,23.11l-80.15,32.67-3.27,22.73s52.03,7.39,82.62,28.31l-2.61,2.86s-29.69-14.86-36.21-13.1l-2.04,18.06-1.96,10.09-2.45,7.3-4.67,4.63-6.95,7.07-6.89,6.73-6.24,4.28-4.73,2.22.02,6.61-7.71.43-.75-6.77-11.48-6.64-9.48-6.32s-7.46-5.63-8.22-8.28l-2.26-4.79-2.2-8.4-1.32-10.54-.35-4.95-.57-7.03s-13.72,9.5-16.46,13.27l-3.19-2.96s27.4-26.55,49.1-31.07l-2.42-23.35s-34.59-6.94-69.43-28.89c0,0,7.41-19.29,10.58-23.07l7.47-4.42s-3.16,2.98-6.62,10.83c-1.06,2.4-1.89,5.31-2.94,8.66-.51,1.63-.98,3.2-1.37,5.16l68.42,22.85,78.14-27.19s-2.36-8.81,9.21-22.78"/>
          <path class="cls-20" d="m88.1,151.03c-6.98,1.34-21.8,3.81-27.14,8.51-4.86,4.28-10.8,23.53-10.8,23.53l69.16,23.64,77.9-27.33s-.56-.82-.3-3.13c.47-4.29,3.34-12.46,10.21-19.72,0,0-33.06-22.04-119.03-5.5Z"/>
          <path class="cls-22" d="m205.39,182.04l-80.27,32.8-3,22.93s34.09,5.31,49.52,12.09c0,0,22.07-2.25,42.92-17.35,0,0-14.38-12.5-9.03-50.23"/>
          <path class="cls-22" d="m43.11,186.33s-12.17,34.56-5.69,45.96c.55.96,2.92,3.91,5.74,5.93,4.1,2.94,9.6,5.25,15.49,7.71,3.25,1.36,7.54,3.32,10.64,4.31,4.65,1.48,8.24,2.74,11.06,3.24s4.88.23,4.88.23c0,0,20.18-13.16,31.03-15.06l-3.24-23.13s-61.06-18.39-69.92-29.21"/>
          <path class="cls-25" d="m214.78,232.72c-22.86,16.04-43.16,17.24-43.16,17.24,0,0,29.88,12.19,33.97,16.07,0,0,17.55-13.08,19.35-27.4,0,0-8.3-.98-10.22-5.78"/>
          <path class="cls-25" d="m35.94,228.47s.27.79,1.07,2.18c3.32,5.85,7.61,9.21,21.58,15.2,6.8,2.91,15.44,6.14,26.88,8.47,0,0-15.93,11.15-18.79,15.57l-19.93-16.99s-9.62-12.32-9.62-17.24l-1.19-7.19Z"/>
          <path class="cls-26" d="m211.97,159.31s-9.17,13.4-7.3,44.34c0,0,2.83,33.89,20.09,35.25,0,0,8.17-23.58,6.31-38.45,0,0,.29-25.33-18.98-41.17"/>
          <path class="cls-14" d="m215.76,170.03s-4.93-2.15-5.32,17.08c0,0,.42,19.81,3.35,26.07,0,0,3.46,13.17,7.16,13.37,0,0,4.23.06,3.94-14.86,0,0-.24-13.43-3.1-26.44,0,0-1.84-15.49-5.73-15.16"/>
          <path class="cls-18" d="m102.49,165.92c11.35-.77,22.69-1.66,34.02-2.65,1.18-.83,2.22-1.82,3.26-2.82,2.64-2.52,5.29-5.04,7.85-7.64,2.54-2.57,4.99-5.22,7.37-7.95-2.21-.05-4.44-.07-6.67-.06-.37,0-.75,0-1.07.19-.28.16-.47.43-.67.68-1.27,1.68-2.94,3.02-4.46,4.48-2.59,2.5-4.79,5.41-7.67,7.78l-17.34,1.16c-.8.05-1.59.11-2.39.16-2.05.14-4.1.2-6.14.46-1.26.16-1.84.14-3.33.24-1.94-1.89-3.88-3.78-5.81-5.68-1.55-1.52-3.1-3.03-4.64-4.5-2.29.11-4.55.54-6.73,1.16,4.43,5.4,9.31,10.44,14.41,14.97Z"/>
          <path class="cls-24" d="m199.64,168.17s4.1-9.27,7.15-11.89c0,0-28.41-12.21-51.7-11.69l-18.38,18.78,19.1-13.68s40.44,4.66,45.55,10.23l-1.73,8.24Z"/>
          <path class="cls-28" d="m141.99,158.06l11.9-11.83.6-.6.92-.91s32.41,1.8,50.85,11.74l-1.02,1.88s-33.75-12.32-49.63-10.81l-13.61,10.53Z"/>
          <path class="cls-24" d="m99.95,163.33l-11.97-12.12s-18.79,3.53-26.52,8.04c0,0-4.77,1.14-11.21,24.04l3.37,1.52s5.28-14.34,10.34-19.62c0,0,17.34-8.82,23.66-9.12l12.33,7.27Z"/>
          <path class="cls-28" d="m95.13,158.43l-6.99-7.48s-17.75,3.27-26.49,8.09c0,0-5.83,2.95-11.25,24.48l10.48-19.14s19.71-9.82,26.9-10.53l7.36,4.58Z"/>
          <polygon class="cls-28" points="152.06 206.14 129.88 215.51 129.44 215.69 126.41 216.97 122.87 237.42 148.19 241.43 127.71 233.5 130.24 219.24 152.06 206.14"/>
          <polygon class="cls-28" points="91.39 211.15 111.11 217.05 113.38 237.75 94.57 247.02 109.74 235.21 108.65 220.12 91.39 211.15"/>
          <path class="cls-28" d="m51.44,192.35c.4-1.44-5.4-3.56-5.4-3.56,0,0-7.37,16.91-2.82,45.95l17.63,10.05s-10.02-8.66-12-12.14c0,0-3.97-16.74,2.58-40.29Z"/>
          <path class="cls-1" d="m214.51,233.05c-13.65,7.75-27.23,15.73-42.88,16.91"/>
          <path class="cls-1" d="m35.81,227.76c.76,3.91,3.38,7.25,6.52,9.69s6.69,4.31,10.33,5.94c2.93,1.31,9.27,4.21,12.31,5.25,8.09,2.76,12.4,4.21,20.49,5.04"/>
          <path class="cls-1" d="m204.79,182.27l-79.7,32.66-2.96,23.04s39.96,3.01,83.05,27.83l-2.57,3.01s-34.13-16.31-36.51-12.82c0,0-2.29,28.42-6.9,35.36,0,0-18.15,21-29.2,24.72l.03,6.72-7.38.68-.68-7.19s-27.58-14.77-29.03-21.47c0,0-5.88-5.52-6.65-35.45,0,0-14.82,10.01-17.27,13.6l-2.86-3.03s26.26-26.08,49.92-31.14l-2.94-23.56s-43.85-11.23-69.8-28.35"/>
          <path class="cls-1" d="m211.77,159.32c-2.56,3.16-5.3,13.01-6.55,24.77-2.32,21.83.5,50.26,19.22,54.73"/>
          <path class="cls-1" d="m197.09,328.69c4.14,1.2,5.7-59.88,5.7-59.88,0,0,12.86-12.17,16.35-16.68,5.68-7.33,14.1-41.51,11.86-51.74,0,0,.54-25.24-19.35-41.45,0,0-25.23-14.8-63.99-14.4,0,0-67.07.88-93.53,18.75,0,0-36.48,58.43-7.61,89.59l21.95,18.89,7.02,57.22s73.89-14.19,121.6-.31Z"/>
          <path class="cls-1" d="m214.48,165.92c-2.42.65-3.49,2.57-4.45,5.03-.96,2.46-1.65,6.55-1.9,9.3-1.44,15.88.59,32.04,7.96,45.9,1.24,2.33,2.77,4.69,5.07,5.75.56.26,1.17.43,1.78.35,1.53-.19,2.48-1.85,3.06-3.37,2.34-6.11,2.48-12.9,2.15-19.49-.6-12.08-2.67-24.08-6.14-35.6-.6-2.01-1.29-4.06-2.64-5.6-1.35-1.53-3.36-2.69-4.89-2.28Z"/>
          <path class="cls-1" d="m213.75,170.7c-2.19,2.4-2.67,5.87-2.9,9.11-.73,10.44.08,20.99,2.4,31.2,1.14,5.01,2.68,10.03,5.6,14.25.37.54.82,1.1,1.45,1.28,1.45.41,2.52-1.34,2.94-2.78,2.84-9.81,1.37-20.29-.13-30.39-.97-6.54-1.94-13.12-3.87-19.45-.41-1.34-.93-2.77-2.1-3.54s-2.88-.25-3.39.31Z"/>
          <polygon class="cls-1" points="94.91 149.73 105.18 159.67 134.27 158.03 147.32 144.99 155.34 144.71 136.85 163.34 102.46 165.92 87.92 151.24 94.91 149.73"/>
          <path class="cls-1" d="m206.34,156.79s-10.95,14.35-9.07,22.47l-78.28,27.35-68.64-23s4.71-19.99,11.27-24.28"/>
          <path class="cls-22" d="m214.62,156.41s-4.52,41.43,12.66,61.39c0,0,10.53-19.81,32.87-24.37,0,0,16.07-3.42,31.18,3.77,0,0-.46-14.6-2.47-22.05,0,0-6.46-16.17-24.11-20.69,0,0-3.07-4.54-44.34,1.69l-5.8.27Z"/>
          <path class="cls-22" d="m258.06,193.87s1.78,3.4-11.5,4.35c-6.84.49-19.39,19.39-19.39,19.39,0,0,5.61,9.66,8.75,10.84,0,0-1.9-18.21,24.34-23.77,0,0,15.81-3.99,32.23.29l-1.33-8.37s-19.35-8.77-33.37-2.85"/>
          <path class="cls-20" d="m214.71,156.1l-1.77-10.41s7.91,2.47,12.75,1.12l12.13-.66,15.24-1.63-.14.37,5.61.17,5.66.57,5.61,1.49,5.09,2.4,2,1.54,2,1.77s16.09,13.58,17.22,19.6l2.12,7.09.47,3.48.43,3.44.26,3.35.47,3.48.73,2.62.56,3.78,1.12,2.45,1.33,3.31,1.51,2.15,1.29,1.46-14.19-3.91-1.46-12.99.17-7.01-.6-3.96-.82-4.77s-2.21-10.84-20.27-20.91c0,0-7.73-3.74-11.7-3.04l-10.51-.28-13,1.76-7.47,1.16-11.84.97Z"/>
          <path class="cls-25" d="m216.06,155.73s.07,8.81,4.1,10.38c0,0,24.47,5.23,29.97,11.02,3.42,3.6,3.46,4.14,7.74,16.35,0,0,19.56-4.98,33.33,3.47l-1.03-17.27-2.15-6.75-2.99-4.49-3.49-4.01-2.57-2.31-3.05-2.66s-9.05-12.08-45-5.09l-7.99,1.24-6.87.12Z"/>
          <path class="cls-4" d="m230.4,155.09c4.05-.54,6.12-1.09,10.26-1.56,6.94-.79,14.04-1.25,20.85.32,5.9,1.36,11.44,4.23,15.94,8.28,2.76,2.48,4.11,3.38,6.44,6.27,1.61,2,4.04,6.83,5.02,9.21,1.51,3.66,1.37,14.08,1.54,18.3"/>
          <path class="cls-28" d="m240.01,204.6l-10.39,10.66s2.14,4.6,4.69,4.68l2.27-4.7s-1.84-1.35-1.84-2.04l5.28-8.61Z"/>
          <path class="cls-28" d="m238.43,201.44l-8.14,7.89-.32-5.21s1.74.92,2.46.69l6-3.37Z"/>
          <path class="cls-27" d="m306.26,209.33l-2.77-1s-3.73-6.55-4.64-9.6c-.69-2.3-1.76-11.8-1.76-11.8,0,0-2.25-19.87-18.06-31.5-9.64-7.09-13.97-9.43-30.88-9.18-4.19.06-12.58,1.7-19.9,2.01-6.06.26-11.33-.49-14.94.32l-.35-2.12s13.77.55,14.85.54c3.52-.02,17.01-2.22,17.06-1.77s9.9-.29,9.9-.29l9.7.98,10.1,3.61,4.4,3.4,6.1,4.8,7.29,8.44,3.52,5.34,3.32,14.32-.07,3.19s1.02,4.72.91,5.4,1.76,6.5,1.76,6.5l2.08,4.81,2.36,3.58Z"/>
          <path class="cls-15" d="m211.7,142.84l1.1,3.37s16.38,2,25.35-.17l10.42-.95,7.5-.08,4.62.51s5.83-.38,15.73,4.76c.46.24.72,1.36,1.39,1.76,4.67,2.8,10.29,8.36,13.92,13.06,3.25,4.22,4.32,7.54,4.32,7.54l1.61,5.11s.79,3.73.82,3.97.51,4.04.52,4.32.89,7.23.89,7.23l1.27,5.88.92,3.15,1.55,3.15,1.6,2.21,1.06,1.93,4.52,1.65-6.92-12.28-2.21-6.71.26-4.94-1.31-8.89-1.51-4.9-2.93-5.51-1.47-2.71-6.34-8.12-5.04-4.66-4.1-3.06-4.1-2.64-6.05-2.57-4.07-1.18-2.85-.83-9.69-1.06-5.41.12-4.37.48-4.31,1.19-4.64.45-7.69,1.06-6.13-.57-3.88-.28-2.13-.3-2.21-.48Z"/>
          <path class="cls-1" d="m211.59,142.72c5.11,13.27,1.63,28.97,3.32,43.09,1.06,8.83,3.84,17.51,7.98,25.41,1.92,3.66,4.32,6.98,6.64,10.39,1.55,2.27,3.2,4.53,5.36,6.23,1.08.85,2.72,1.87,4.06,2.19.67.16,1.01.21,1.33.21.43,0,.72-.08,1.73-.34-.31-.91-.3-1.1-.62-2.02-1.65.43-3.54-.3-3.81-2.19s.96-3.66,2.23-5.09c7.67-8.65,18.95-13.62,30.43-14.95,11.48-1.34,23.15.74,34.27,4.96-4.42.18-8.32.69-12.24,3.31.18.64.62,1.72.57,1.72,5.92-2.75,11.58-4.03,18.11-4.16-11.9-5.72-25.16-8.6-38.36-8.33-11.88.24-24.42,3.44-32.45,12.19-2.47,2.69-4.78,5.9-4.95,9.42-.06,1.17.21,3.17,1.1,4.05"/>
          <path class="cls-1" d="m211.89,142.74c6.95,1.7,14.24,2.03,21.31.94,4.05-.62,8.02-1.69,12.08-2.25,17.41-2.37,35.63,5.65,46.35,19.57"/>
          <path class="cls-1" d="m212.81,145.96c10.57,2.38,21.56.39,32.35-.59,10.79-.98,22.44-.71,31.38,5.41"/>
          <path class="cls-1" d="m214.55,155.84c10.12.19,20.08-2.29,30.15-3.28,10.07-.99,20.91-.29,29.2,5.51,6.12,4.27,12.64,10.54,15.14,17.58,2.5,7.03,1.13,14.89,2.13,22.29.35,2.55.67,4.5,1.02,7.05"/>
          <path class="cls-1" d="m227.09,217.83c5.86-10.87,15.98-19.37,27.7-23.26,11.72-3.89,24.92-3.13,36.11,2.07"/>
          <polygon class="cls-20" points="139.21 124.31 146.84 144.83 134.48 157.99 129.48 135.36 139.21 124.31"/>
          <polygon class="cls-20" points="105.12 159.96 107.5 136.87 129.43 135.33 134.52 157.9 105.12 159.96"/>
          <polygon class="cls-20" points="94.95 149.71 98.56 127.85 107.58 137.16 105.04 159.57 94.95 149.71"/>
          <polygon class="cls-20" points="138.97 124.44 127.13 120.07 109.96 120.87 99.08 127.86 107.55 137.07 129.21 135.37 138.97 124.44"/>
          <polyline class="cls-23" points="105.26 159.62 134.44 158.03 131.34 143.45 117.68 153.35 97.56 133.36 94.91 149.47 105.26 159.37"/>
          <path class="cls-28" d="m104.74,158.92l-7.44-9.25,1.81-13.59s-.67-1.58-1.51-2.36-2.76,15.42-2.76,15.42l9.9,9.77Z"/>
          <polygon class="cls-1" points="139.21 124.31 147.2 145.11 134.48 157.99 129.48 135.36 139.21 124.31"/>
          <polygon class="cls-1" points="105.12 159.96 107.5 136.87 129.43 135.33 134.52 157.9 105.12 159.96"/>
          <polygon class="cls-1" points="94.95 149.71 98.56 127.85 107.58 137.16 105.12 159.96 94.95 149.71"/>
          <polygon class="cls-1" points="138.97 124.44 127.13 120.07 109.96 120.87 99.08 127.86 107.55 137.07 129.21 135.37 138.97 124.44"/>
          <path class="cls-29" d="m104.29,71.2s-3.34-5.67-2.31-8.99c0,0,2.69-9.98,8.15-13.07l3.91-.34,2.9,2.02,1.93,2.77,1.05,2.82.76,2.35-.17,2.69.04,2.14-.38,2.1-.55,1.81-.34.92-8.66-8.95-6.35,11.73Z"/>
          <path class="cls-29" d="m111.74,109.27l4.86.44,5.07-1.09,4.85-23.13,16.18-10.69s-8.14-13.97-22.15-15.02c0,0-30.38-3.07-32.94,23.3l14.28,5.52,9.86,20.68Z"/>
          <polyline class="cls-3" points="84.63 109.74 46.57 116 84.48 115.72"/>
          <polyline class="cls-2" points="150.48 104.53 186.7 105.43 149.99 110.88"/>
          <path class="cls-16" d="m120.72,60.05l2.04.25s1.8,8.54-4.24,17.39l-4.87,7.38-6.55-5.41-5.48-5.16s-2.54-4.59-2.54-6.38l.71-4.45,2.32-1.06s0,7.2,1.28,7.82c0,0,5.01,6.59,7.45,7.03l2.55,2.06s2.38-4.52,4.09-7.37l2.33-5.03.87-4.56.03-2.53Z"/>
          <path class="cls-20" d="m86.75,107.94c-1.53.32-2.55,1.85-2.87,3.38-.33,1.55-.11,3.25.78,4.57s2.47,2.19,4.05,2.05"/>
          <path class="cls-20" d="m147.41,102.61c1.86.08,3.32,1.44,3.98,2.91.67,1.48.71,3.2-.09,4.64s-2.5,2.54-4.39,2.65"/>
          <polygon class="cls-20" points="147.82 101.72 146.21 123.91 120.22 150.4 90.75 130.39 87.13 108.01 90.75 108.01 95.78 126.28 118.55 144.05 119.13 144.08 119.78 143.98 139.86 123.31 142.66 102.95 147.82 101.72"/>
          <path class="cls-20" d="m115.72,109.94l-4.33-.36-24.86-2.05-21.97-23.79s7.07-22.64,18.37-29.14c0,0-6.97,19.18.45,26.52l3.6,1.45c3.63,1.46,14.54,5.86,14.54,5.86l9.78,20.52"/>
          <path class="cls-20" d="m116.68,109.52l4.54-.9,3.01-.79,23.04-5.98.55-.13,14.03-28.64s-8.42-21.76-20.6-25.56c0,0,9.29,18.46,1.4,27.11l-15.98,10.44-5.34,23.08-4.65,1.36Z"/>
          <path class="cls-1" d="m101.98,63.91c.13,3.57,1.59,7.08,4.04,9.75,2.06,2.23,4.88,4.05,7.37,5.88.95-3.76,3.82-6.75,5.54-10.24,2.22-4.53,2.38-9.97.43-14.62-.71-1.69-1.72-3.32-3.19-4.45-1.48-1.14-3.48-1.73-5.3-1.26-1.98.52-3.42,2.15-4.55,3.8-2.46,3.59-4.46,7.71-4.33,11.14Z"/>
          <polyline class="cls-1" points="104.56 71.21 110.82 59.62 119.04 68.59"/>
          <line class="cls-1" x1="113.8" y1="85.61" x2="115.91" y2="109.26"/>
          <path class="cls-20" d="m104.58,71.31c.33-2.41,6.06-11.83,6.06-11.83l8.38,9.48s-1.24,3.06-2.98,6.05c-1.2,2.06-1,1.93-2.62,4.7,0,0-9.17-5.95-8.84-8.4Z"/>
          <polygon class="cls-23" points="96.57 126.79 93.24 130.65 117.8 147.6 117.92 146.93 118.59 143.73 96.57 126.79"/>
          <polygon class="cls-23" points="87.04 108.07 90.77 107.86 95.72 126.24 89.96 125.23 87.04 108.07"/>
          <polyline class="cls-28" points="86.84 108.07 88.95 107.97 90.22 125.18"/>
          <path class="cls-23" d="m87.13,109.38l-.09-1.23s-2.9-.14-3.16,5.23c0,.13-.01.26-.01.39,0,0,1.47,4.25,4.51,4.28l.07-.78s-3.71-.8-3.75-3.74c-.01-1.11-.29-4.11,2.35-5.02"/>
          <path class="cls-28" d="m86.82,107.98l-.74.17s-2.02-.14-2.2,5.23c0,.13,0,.26,0,.39,0,0,1.03,4.25,3.14,4.28l.49-.58s-3.22-1.56-3.25-4.5c0-1.11.28-3.51,2.12-4.43"/>
          <path class="cls-23" d="m147.55,104.38v-1.84s3.91,2.05,3.73,4.39c0,0-1.89-2.91-3.25-3.09"/>
          <polygon class="cls-23" points="83.77 81.28 82.28 81.82 100.83 89.66 106.67 99.45 101.44 88.3 83.77 81.28"/>
          <polygon class="cls-23" points="142.35 75.2 145.48 74.89 127.84 86.77 123.92 97.89 126.51 85.48 142.35 75.2"/>
          <polygon class="cls-28" points="142.45 75.06 144.38 74.89 127.44 86.38 124.62 95.25 126.42 85.92 142.45 75.06"/>
          <polygon class="cls-23" points="65.23 81.81 67.78 81.79 89.67 107.71 86.5 107.39 64.59 84.21 65.23 81.81"/>
          <path class="cls-23" d="m83.29,80.83c3.95,0-17.71.74-17.71.74,0,0,8.33-23.65,17.26-27.24,0,0-13.44,23.25-9.48,24.74,0,0,8.81,1.76,9.92,1.76Z"/>
          <path class="cls-28" d="m65.55,81.65l1.2-.17s8.41-20.39,15.72-26.37c0,0-5.54,2.25-12.22,14.86-2.51,4.63-4.7,11.68-4.7,11.68Z"/>
          <polygon class="cls-28" points="66.47 81.46 65 81.7 64.21 83.6 86.64 107.92 88.25 107.52 66.47 81.46"/>
          <path class="cls-23" d="m162.08,72.76s-.8-.01-2-.08c-3.11-.18-7.89.24-10.34-1.33-.62-.4-.81-3.06-.84-3.8-.11-2.36-.59-6.05-1.11-8.18,0,0-1.91-6.5-3.36-8.5,0,0-1.62-2.44-3.2-3.63s2.8,7.54,2.8,7.54l1.02,3.95.54,3.2.29,2.44-.07,2.1-.96,4.26-1.04,1.97-.4,1.26-.18.74,18.85-1.95"/>
          <path class="cls-28" d="m154.83,73.55l2.06-.6-11.8.58s1.85-2.69,2.02-4c.27-2.11.1-5.89-.49-8.58,0,0-1.15-6.13-2.17-8.07,0,0-2.2-4.19-3.06-5.39-.87-1.21,2.72,8.06,2.72,8.06l.99,3.79.53,3.16.16,2.44-.04,2.1-.92,3.87-.56,1.57-.62,1.06-.7.94,10.68-1.16"/>
          <path class="cls-21" d="m87.6,82.44l1.91.64s3.41-14.75,8.24-15.72c0,0,1.38,11.95,15.76,19.4.31.16-.37-.68-.05-.52l-.22-1.5s-16.3-8.89-13.28-20.43l-.77-.37s-8.11,3.5-11.52,18.44"/>
          <path class="cls-19" d="m87.47,82.12l.91.24s2.37-12.55,10.63-17.72c0,0-4.75,8.89,14.37,21.19.29.19.03-.08.35.08l-.62-1.5s-16.3-8.89-13.28-20.43l-.77-.37s-8.11,3.5-11.52,18.44"/>
          <path class="cls-21" d="m141.84,75.05l-.97.6s-4.06-10.22-15.69-12.55c0,0,.44,11.59-10.88,23.27-.05.05-.5.61-.51.58-.02-.15-.08-.53-.08-.83l.07-1.14s1.34-2.27,3.26-5.09c3.49-5.11,8.29-12.93,6.3-18.69l.02-.87s10.99,1.18,18.98,14.47l-.52.24Z"/>
          <path class="cls-19" d="m141.83,74.97l-.41.4s-2.4-4.83-7.56-8.79c-2.53-1.94-5.13-3.74-9.17-4.31,0,0-.13.71-.16,2.14-.07,2.68-.89,7.91-6.15,15.81-1.09,1.63-3.06,3.85-4.55,5.7-.22.27-.21-.48-.3-1.11l.27.19s1.52-2.29,3.58-5.5c1.59-2.5,3.65-5.5,4.66-8.72,1.06-3.41,2.15-6.76,1.19-9.56l.03-.87s10.97,1.47,18.9,14.58"/>
          <polygon class="cls-23" points="104.36 71.06 105.14 72.33 111.43 60.53 110.72 59.48 104.36 71.06"/>
          <polygon class="cls-28" points="104.36 70.87 104.74 71.54 111.23 59.94 110.72 59.29 104.36 70.87"/>
          <path class="cls-21" d="m110.71,59.63l-.07-10.61s-3.9,1.72-3.9,3.12l-2.21,3.78-1.11,2.58-1.03,2.43-.41,2.55.34,2.58.48,1.64.77,2.26.87,1.13,6.28-11.46Z"/>
          <path class="cls-19" d="m110.66,49.03s-3.72,1.41-6.59,8.92c0,0-2.73,6.53.32,12.14l-.42.36s-1.59-2.73-1.59-3.75c0,0-.85-4.87-.04-5.96l1.04-3.08s4.23-8.66,7.32-8.65"/>
          <path class="cls-1" d="m116.25,109.96l4.69-1.27,26.88-6.98,14.03-28.64s-8.8-21.89-20.97-25.69c0,0,9.67,18.58,1.77,27.24l-16.1,10.98-5.33,23.01"/>
          <path class="cls-1" d="m115.72,109.94l-4.33-.36-24.86-2.05-21.97-23.79s7.88-23.83,19.17-30.34c0,0-7.77,20.38-.36,27.72l3.6,1.45c3.63,1.46,14.54,5.86,14.54,5.86l9.78,20.52"/>
          <line class="cls-1" x1="142.57" y1="74.76" x2="161.78" y2="72.88"/>
          <path class="cls-1" d="m83.83,81.39l-18.36.29s17.41-.47,18.36-.29Z"/>
          <path class="cls-1" d="m87.08,82.27s3.21-15.2,11.99-18.56c.59-.22,2.17-.77,2.78-.97"/>
          <path class="cls-1" d="m120.72,60.05s14.2,1.03,21.46,14.86"/>
          <path class="cls-1" d="m100.2,63.5c-.95,2.96-.16,7.72,1.51,10.37,1.67,2.65,4.08,4.77,6.45,6.86,1.7,1.49,3.67,3.27,5.37,4.76"/>
          <path class="cls-1" d="m123.32,60.58c.36,5.18-.92,10.97-3.69,15.42-2.01,3.24-4.54,6.01-5.84,9.58"/>
          <path class="cls-1" d="m101.86,62.73c-.27,3.56,1.71,8.25,4.17,10.92,2.06,2.23,4.88,4.05,7.37,5.88,1.62-2.67,1.65-3.16,2.51-4.57,1.17-1.92,2.04-3.66,3.03-5.67,1.36-2.77,1.95-5.88,1.75-8.95-.12-1.94-.58-3.43-1.34-5.23-.71-1.69-1.94-3.86-3.09-4.78-1.45-1.17-2.86-1.71-5.02-1.54-2.04.16-4.83,2.94-5.52,3.97-1.21,1.79-3.57,6.15-3.86,9.97Z"/>
          <polyline class="cls-1" points="104.36 70.77 110.62 59.18 118.84 68.16"/>
          <line class="cls-1" x1="113.8" y1="85.61" x2="115.91" y2="109.26"/>
          <polygon class="cls-1" points="147.82 101.72 146.21 123.91 120.22 150.4 90.75 130.39 86.84 107.57 90.59 107.87 95.78 126.28 118.59 144.17 119.13 144.08 119.73 144.08 139.86 123.31 142.66 102.95 147.82 101.72"/>
          <path class="cls-1" d="m139.65,123.87l3.69,2.74-3.69-2.74Z"/>
          <line class="cls-1" x1="140.76" y1="122.7" x2="146.17" y2="122.87"/>
          <path class="cls-1" d="m119.52,143.92l2.85,4.08-2.85-4.08Z"/>
          <path class="cls-1" d="m118.59,144.08l-1.26,4.17,1.26-4.17Z"/>
          <path class="cls-1" d="m95.95,127.15l-3.34,4.26,3.34-4.26Z"/>
          <line class="cls-1" x1="95.35" y1="126.38" x2="90.29" y2="126.93"/>
          <polygon class="cls-6" points="90.96 107.88 96.33 126.77 118.59 144.08 119.13 144.08 119.81 143.95 140.05 123.01 142.57 103.57 116.25 109.8 90.96 107.88"/>
          <path class="cls-1" d="m147.97,102.61c1.56.08,2.8,1.44,3.35,2.91.56,1.48.6,3.2-.08,4.64s-2.51,2.54-4.09,2.65"/>
          <path class="cls-1" d="m86.75,107.94c-1.53.32-2.55,1.85-2.87,3.38-.33,1.55-.11,3.25.78,4.57s2.47,2.19,4.05,2.05"/>
          <polyline class="cls-1" points="150.79 104.53 187.6 105.43 150.89 110.88"/>
          <polyline class="cls-1" points="84.23 109.74 46.57 116 84.48 115.72"/>
          <polyline class="cls-5" points="98.8 116.56 102.98 110.86 108.51 114.91"/>
          <polyline class="cls-5" points="124.87 112.97 129.05 107.27 134.58 111.32"/>
          <circle class="cls-7" cx="117" cy="104" r="179"/>
        </g>
      </g>
    </g>
  </g>
</svg>