<?xml version="1.0" encoding="utf-8"?>
<svg fill="#4E16B2" width="800px" height="800px" viewBox="0 0 32 32" version="1.1" xmlns="http://www.w3.org/2000/svg">
<title>ibm</title>
<path d="M1.004 21.583h5.438v-0.78h-5.438zM1.004 20.094h5.438v-0.779h-5.438zM2.558 18.605h2.331v-0.78h-2.331zM2.558 17.116h2.331v-0.779h-2.331zM2.558 15.629h2.331v-0.78h-2.331zM2.558 14.141h2.331v-0.78h-2.331zM1.004 12.652h5.438v-0.78h-5.438zM1.004 11.164h5.438v-0.78h-5.438zM7.218 20.095h8.29c0.131-0.224 0.239-0.484 0.308-0.759l0.004-0.021h-8.601zM14.858 16.339h-6.086v0.78h6.734c-0.176-0.303-0.392-0.56-0.645-0.776l-0.004-0.003zM8.772 14.85v0.78h6.086c0.256-0.22 0.472-0.477 0.641-0.766l0.008-0.014zM15.508 11.874h-8.289v0.78h8.603c-0.073-0.295-0.181-0.555-0.32-0.794l0.008 0.014zM12.938 10.385h-5.72v0.78h7.723c-0.524-0.483-1.226-0.78-1.998-0.78-0.001 0-0.003 0-0.004 0h0zM8.773 14.141h2.331v-0.78h-2.331zM13.293 14.141h2.509c0.065-0.234 0.103-0.502 0.104-0.779v-0h-2.613zM8.773 18.605h2.331v-0.78h-2.331zM13.292 17.826v0.78h2.614c-0.001-0.278-0.038-0.546-0.109-0.801l0.005 0.021zM7.219 21.575l5.721 0.008c0.002 0 0.004 0 0.007 0 0.771 0 1.473-0.296 1.997-0.782l-0.002 0.002h-7.723zM22.756 21.582l0.271-0.78h-0.54zM22.238 20.093h1.037l0.272-0.779h-1.582zM21.718 18.604h2.077l0.272-0.779h-2.622zM21.197 17.117h3.119l0.272-0.78h-3.664zM18.096 14.139h4.198l-0.27-0.779h-3.928zM23.737 12.652h5.236v-0.78h-4.966zM24.523 10.384l-0.27 0.78h4.719v-0.78zM16.542 21.582h3.884v-0.78h-3.884zM16.542 20.093h3.884v-0.779h-3.884zM18.096 18.604h2.331v-0.778h-2.331zM18.096 17.117h2.331v-0.78h-2.331zM27.418 13.361h-3.926l-0.271 0.78h4.198zM25.089 15.629h2.329v-0.78h-4.442l-0.219 0.63-0.219-0.63h-4.442v0.78h2.331v-0.717l0.25 0.717h4.161l0.25-0.717zM25.089 17.117h2.329v-0.78h-2.331zM25.089 18.605h2.329v-0.78h-2.331zM25.089 20.092h3.883v-0.778h-3.884zM25.089 21.582h3.883v-0.78h-3.884zM21.777 12.651l-0.27-0.779h-4.965v0.78zM21.261 11.164l-0.27-0.78h-4.449v0.78zM29.809 21.002c0.009-0.322 0.272-0.58 0.596-0.58 0.329 0 0.596 0.267 0.596 0.596s-0.267 0.596-0.596 0.596c-0.168 0-0.319-0.069-0.428-0.181l-0-0c-0.104-0.107-0.168-0.254-0.168-0.415 0-0.006 0-0.011 0-0.017l-0 0.001zM30.856 21.040v-0.077c0-0.251-0.203-0.454-0.454-0.454s-0.454 0.203-0.454 0.454v0 0.077c0 0.251 0.203 0.454 0.454 0.454s0.454-0.203 0.454-0.454v0zM30.313 21.317h-0.151v-0.622h0.281c0.007-0.001 0.015-0.001 0.023-0.001 0.104 0 0.188 0.084 0.188 0.188 0 0.003-0 0.007-0 0.010l0-0c0.001 0.005 0.001 0.011 0.001 0.018 0 0.076-0.046 0.141-0.112 0.169l-0.001 0 0.139 0.237h-0.166l-0.115-0.212h-0.087zM30.426 20.99c0.047 0 0.075-0.021 0.075-0.066v-0.045c0-0.044-0.027-0.065-0.075-0.065h-0.112v0.175z"></path>
</svg>
